<svg xmlns="http://www.w3.org/2000/svg" width="168" height="48" viewBox="0 0 168 48" fill="none" aria-hidden="true">
<g clip-path="url(#clip0_3153_208762)">
<path d="M52.6295 19.9304H54.4758L53.5166 17.464L52.6311 19.9304H52.6295ZM50.7096 22.3224L53.4414 15.8191H54.1796L56.9129 22.3224H55.5086L54.9178 20.6775H52.4807L51.8161 22.3224H50.7081H50.7096ZM57.1354 22.0241L57.0617 20.8282C57.6526 21.3516 58.3171 21.6498 58.9816 21.6498C59.3515 21.6498 59.6462 21.5753 59.8687 21.4246C60.1925 21.1699 60.2508 20.6962 59.9992 20.3684C59.9823 20.3451 59.9623 20.3234 59.9424 20.3032C59.7214 20.0034 59.2778 19.8543 58.3171 19.407C57.4316 18.9581 56.9881 18.3601 56.9881 17.5385C56.9881 17.0151 57.2091 16.5662 57.5789 16.1934C58.3908 15.4463 59.7935 15.7446 59.9424 15.7446C60.2386 15.8191 60.4596 15.8937 60.6806 15.9698L60.7542 17.0912C60.5087 16.9001 60.234 16.7495 59.9424 16.6423C59.0568 16.3425 58.0961 16.5678 58.0961 17.3148C58.0961 17.6892 58.3171 17.9128 58.8343 18.211C59.9424 18.809 60.5332 19.0327 60.9016 19.5561C61.4172 20.1541 61.4172 21.4246 60.6054 22.0226C60.1618 22.3224 59.6446 22.546 58.9064 22.546C58.0946 22.4715 57.4301 22.1717 57.1339 22.0226L57.1354 22.0241ZM63.265 22.3224V16.5662C62.7478 16.5662 62.157 16.6408 61.3451 16.7153L61.4188 15.743H66.3666L66.4403 16.7153C65.4059 16.5662 64.815 16.5662 64.5204 16.5662V22.2462H63.265V22.3208V22.3224ZM69.6908 21.6498C70.7252 21.6498 71.6107 20.8282 71.6107 19.0342C71.6107 18.8851 71.6107 17.464 70.7252 16.7169C70.429 16.4932 70.1343 16.4171 69.6908 16.4171C68.3617 16.4171 67.7709 17.6876 67.7709 19.0327C67.8446 20.8266 68.7301 21.6483 69.6908 21.6483V21.6498ZM69.6908 22.4715C67.7709 22.4715 66.4403 21.0518 66.4403 19.1088C66.4403 17.1657 67.7694 15.7461 69.6908 15.7461C71.6122 15.7461 72.9398 17.0912 72.9398 19.1103C72.9398 21.1295 71.6107 22.473 69.6908 22.473V22.4715ZM73.9726 22.3224V15.8191H74.6371L78.477 20.2286V15.8191H79.3625V22.3224H78.698L74.8581 17.9128V22.3224H73.9726ZM82.8355 22.3224L83.5752 15.8191H84.2398L86.5295 20.3793L88.7441 15.8191H89.4087L90.1468 22.3224H88.8178L88.4479 18.2856L86.6753 22.0226H86.0845L84.2382 18.2856L83.8684 22.2462H82.8355V22.3208V22.3224ZM92.5103 19.9304H94.3565L93.3973 17.464L92.5118 19.9304H92.5103ZM90.5904 22.3224L93.3221 15.8191H94.0619L96.7936 22.3224H95.3909L94.8001 20.6775H92.363L91.6984 22.3224H90.5904ZM98.4926 18.7345C98.6399 18.7345 98.8624 18.809 99.0097 18.809C100.044 18.809 100.339 18.211 100.339 17.6876C100.339 16.866 99.7479 16.5662 99.0097 16.5662H98.5662V18.7329H98.4926V18.7345ZM97.3108 22.3969V15.8937C97.6807 15.8191 98.1227 15.8191 98.7872 15.8191C99.3781 15.8191 99.8953 15.8937 100.265 16.0428C100.856 16.2664 101.594 16.7153 101.594 17.6876C101.594 18.0619 101.447 18.4347 101.224 18.809C101.003 19.1072 100.633 19.3324 100.19 19.4816L102.48 22.3969H101.002L99.0082 19.6307H98.5647V22.3969H97.3093H97.3108ZM103.958 22.3224V16.5662C103.44 16.5662 102.85 16.6408 102.038 16.7153L102.111 15.743H107.059L107.133 16.7153C106.099 16.5662 105.508 16.5662 105.213 16.5662V22.2462H103.958V22.3208V22.3224ZM107.945 15.8191H109.2V22.3224H107.945V15.8191ZM110.456 22.3224V15.8191H111.12L114.96 20.2286V15.8191H115.845V22.3224H115.181L111.341 17.9128V22.3224H110.456Z" fill="#00234B"></path>
<path d="M161.709 8.19596C161.265 7.44887 160.453 7 159.494 7H96.203C95.1687 7 93.5449 7 91.846 8.71939C91.3979 9.18069 91.025 9.71033 90.738 10.2897C90.2208 11.2604 89.8525 11.9345 88.0783 11.9345H78.8471C77.1482 11.9345 76.7062 11.262 76.189 10.2897C75.8928 9.7678 75.5981 9.24437 75.0809 8.72094C73.382 7.00155 71.7583 7.00155 70.7239 7.00155H7.50802C6.47209 7 5.66024 7.44887 5.29191 8.19596C4.84838 8.94305 4.92204 9.91535 5.43924 10.737L6.54729 12.68C7.13815 13.7269 7.95001 13.876 8.54087 14.0251C9.05807 14.0997 9.42639 14.1742 9.79626 14.9213L10.8306 16.7152C11.6425 18.2094 12.5296 18.3601 13.1941 18.5092C13.7097 18.5837 14.2269 18.6583 14.893 19.8543C15.5575 21.0502 16.5167 22.8442 18.9538 23.5912C19.1764 23.6658 42.513 30.5434 42.5867 30.5434C45.0238 31.365 45.6883 32.2627 46.4265 33.3842C46.8701 34.0567 48.1254 35.8506 51.0797 36.6723L73.5309 42.8012C75.968 43.4737 77.4444 42.2778 78.1826 41.6052L82.2449 37.7191C82.8358 37.1957 83.1305 36.972 83.5003 36.972C83.8702 36.972 84.1648 37.1957 84.7557 37.7191L88.8181 41.6052C89.5563 42.2032 91.0326 43.3992 93.4697 42.8012L115.921 36.6723C118.949 35.8506 120.131 34.0567 120.574 33.3842C121.312 32.2627 121.977 31.292 124.414 30.5434C124.414 30.5434 147.751 23.6674 148.047 23.5912C150.41 22.8442 151.445 21.0502 152.109 19.8543C152.774 18.6583 153.217 18.5837 153.734 18.5092C154.399 18.3601 155.36 18.2094 156.172 16.7152L157.206 14.9213C157.649 14.1742 157.944 14.0997 158.461 14.0251C159.052 13.876 159.864 13.7253 160.455 12.68L161.563 10.737C162.08 9.83924 162.154 8.94305 161.71 8.19596H161.709ZM118.507 13.4287V24.6397H48.4953V13.4271H118.507V13.4287ZM93.3961 41.1579C91.6972 41.1579 91.1063 39.6622 90.6628 38.4662C90.1456 37.1211 87.4138 28.3021 86.6004 25.9102H90.0719C91.9182 29.1237 95.316 34.8038 96.7924 37.1957C97.0886 37.6446 97.8268 38.9151 99.1558 39.7367C93.8381 41.1564 93.9854 41.1564 93.3945 41.1564L93.3961 41.1579ZM101.594 38.9151C99.6745 38.9151 98.6401 37.4209 98.0493 36.4486C96.7939 34.431 93.9133 29.5726 91.7724 25.9102H95.6122C98.0493 28.5258 103.145 33.9821 105.14 36.0758C105.434 36.3756 106.099 37.0466 107.06 37.6461C102.334 38.8421 102.334 38.9166 101.594 38.9166V38.9151ZM109.423 36.7468C107.947 36.7468 106.839 35.7 106.1 34.9529C104.328 33.1589 100.118 28.6749 97.5336 25.8341H101.743C104.401 27.8532 110.531 32.4119 112.968 34.0567C113.708 34.5459 114.501 34.9467 115.332 35.2527C109.866 36.7484 110.014 36.7484 109.423 36.7484V36.7468ZM119.319 32.561C118.654 33.6078 118.137 34.1312 116.955 34.1312C115.847 34.1312 114.739 33.6078 113.78 32.9353C111.786 31.5157 107.133 28.1514 104.179 25.9086H109.2C115.33 28.9731 117.914 30.3943 119.613 30.9161L120.499 31.1398C119.982 31.5141 119.687 32.036 119.317 32.5594L119.319 32.561ZM121.165 29.6472C119.762 29.6472 117.916 28.6749 112.304 25.8356H117.769L125.45 27.7787C125.967 27.9278 126.484 28.0039 126.928 28.153C122.571 29.4981 121.906 29.6487 121.167 29.6487L121.165 29.6472ZM136.082 25.4613C131.576 26.8064 130.838 27.1061 129.583 27.1061C128.697 27.1061 127.589 26.957 125.743 26.4336L119.687 24.8633V22.6966L136.082 25.4613ZM140.809 24.1162C139.333 24.4905 138.002 24.3399 135.935 23.9671L119.834 21.277V19.5576L146.199 22.5475L140.808 24.1178L140.809 24.1162ZM150.705 19.1087C150.484 19.483 150.261 19.8574 150.04 20.1556C149.155 21.4261 148.562 21.3515 145.757 21.0518L119.687 18.0619V16.417L149.744 18.211C149.965 18.211 150.556 18.2855 151.221 18.2855C151.073 18.5107 150.851 18.809 150.703 19.1072L150.705 19.1087ZM155.802 14.1012C155.802 14.1012 155.211 15.0735 154.99 15.5969C154.104 17.0166 153.661 17.0166 151.15 16.7929L119.762 14.9244V13.5793H156.172C156.024 13.8046 155.949 13.9537 155.802 14.1028V14.1012ZM160.306 9.91535L159.494 11.335C158.903 12.2312 158.682 12.2312 156.761 12.2312H91.4025C92.067 11.4095 92.288 10.5863 93.0277 9.83924C94.2831 8.56873 95.3175 8.56873 96.2767 8.56873H159.568C160.011 8.56873 160.306 8.71784 160.453 8.94305C160.527 9.16671 160.527 9.54103 160.306 9.91535ZM76.8535 40.7836C77.1497 40.4093 77.3707 39.8858 77.7406 38.9896C78.2562 37.6446 81.1369 28.4512 81.9503 25.9102H85.1256C85.9374 28.5258 88.8181 37.6446 89.3353 38.9896C89.6299 39.8858 89.9261 40.4093 90.2208 40.7836C90.1471 40.709 89.9982 40.6345 89.9246 40.5599L85.8622 36.6723C85.1977 36.0743 84.5332 35.4763 83.5724 35.4763C82.6117 35.4763 81.8735 36.0743 81.2827 36.6723L77.2203 40.5584C77.073 40.6329 76.9241 40.7075 76.8505 40.7836H76.8535ZM67.8448 39.6622C69.1739 38.8405 69.9857 37.57 70.2083 37.1211C71.6846 34.8038 75.0825 29.0492 76.9287 25.8356H80.4002C79.6605 28.2275 76.8551 37.0466 76.3379 38.3917C75.8943 39.5876 75.3035 41.0818 73.6046 41.0818C73.0137 41.1564 73.161 41.1564 67.8433 39.6622H67.8448ZM60.0148 37.57C60.9755 37.0466 61.64 36.3741 61.9347 36.0013C63.9298 33.9821 69.0987 28.4528 71.4621 25.8356H75.3019C73.1595 29.4981 70.2804 34.3565 69.025 36.3741C68.4341 37.3448 67.3998 38.8405 65.4798 38.8405C64.7401 38.9151 64.668 38.8405 60.0148 37.57ZM51.7443 35.2527C52.7787 34.9544 53.6642 34.3565 54.1077 34.0567C56.5448 32.4119 62.6744 27.8532 65.3325 25.8341H69.5422C66.9578 28.6749 62.7481 33.1589 60.974 34.9529C60.2358 35.7 59.2014 36.7468 57.6513 36.7468C57.0605 36.7468 57.1341 36.7468 51.7427 35.2511L51.7443 35.2527ZM46.5739 31.0668C46.8701 30.9922 47.1647 30.9922 47.4609 30.8431C49.2335 30.3197 51.8179 28.9746 57.8739 25.8356H62.8954C59.8674 28.0784 55.2894 31.4411 53.2943 32.8623C52.4088 33.5348 51.2271 34.0582 50.119 34.0582C48.9373 34.0582 48.4201 33.5348 47.7556 32.488C47.3857 32.0391 47.0159 31.5172 46.5739 31.0683V31.0668ZM40.1496 28.2275C40.5931 28.153 41.1103 28.0039 41.6275 27.8532L49.3072 25.9102H54.7722C49.1598 28.751 47.3136 29.7217 45.9109 29.7217C45.0975 29.6472 44.4329 29.4981 40.1496 28.2275ZM47.3136 22.6966V24.8633L41.2576 26.4336C39.4114 26.8825 38.3033 27.1061 37.4178 27.1061C36.1624 27.1061 35.4227 26.8079 30.9184 25.4613L47.3136 22.6966ZM20.9474 22.5459L47.312 19.556V21.2754L31.2115 23.9656C29.0706 24.3399 27.74 24.489 26.3373 24.1147L20.9459 22.5459H20.9474ZM15.7785 18.2855C16.3694 18.211 17.0339 18.211 17.2564 18.211L47.3136 16.417V18.0619L21.2436 21.0518C18.4366 21.3515 17.8473 21.4261 16.9602 20.1556C16.7392 19.8574 16.5167 19.483 16.2957 19.1087C16.1484 18.8105 16.0011 18.5107 15.7785 18.2871V18.2855ZM10.9043 13.6523H47.3136V14.9974L15.9259 16.8659C13.4151 17.0166 12.9716 17.0911 12.086 15.6699C11.8113 15.1745 11.5397 14.6759 11.2742 14.1758C11.1268 13.9506 10.978 13.8014 10.9043 13.6523ZM6.62096 8.94305C6.76829 8.71939 7.06449 8.56873 7.50648 8.56873H70.7976C71.7583 8.56873 72.8664 8.56873 74.0481 9.83924C74.7863 10.5863 75.0073 11.4095 75.6733 12.2312H10.3135C8.39354 12.2312 8.17254 12.2312 7.58168 11.335L6.76982 9.91535C6.54883 9.54103 6.47363 9.16671 6.62249 8.94305H6.62096Z" fill="#00234B"></path>
</g>
<defs>
<clipPath id="clip0_3153_208762">
<rect width="157" height="36" fill="white" transform="translate(5 7)"></rect>
</clipPath>
</defs>
</svg>