<svg xmlns="http://www.w3.org/2000/svg" width="103" height="38" viewBox="0 0 103 38" fill="none" aria-hidden="true">
<g clip-path="url(#clip0_13456_52717)">
<path d="M19.5523 17.0874V23.6958C19.5523 25.3821 20.3726 26.2024 22.0589 26.2024H22.7881C24.4744 26.2024 25.2948 25.3821 25.2948 23.6958V20.46H29.1687V23.5591C29.1687 27.7976 27.0266 29.9852 22.7426 29.9852H21.9222C17.6837 29.9852 15.4961 27.8432 15.4961 24.0604V7.83564C15.4961 3.09581 17.6381 0.908203 21.9222 0.908203H22.7426C26.9811 0.908203 29.1687 3.05024 29.1687 7.33431V17.0418H19.5523V17.0874ZM19.5523 13.2135H25.2492V7.19758C25.2492 5.5113 24.4288 4.69095 22.7426 4.69095H22.1045C20.4182 4.69095 19.5979 5.5113 19.5979 7.19758V13.2135H19.5523Z" fill="#00234B"></path>
<path d="M31.812 1.27215H35.8226V3.09516C36.7797 2.09251 38.4204 0.953125 40.6992 0.953125C44.1173 0.953125 45.8036 3.23189 45.8036 6.55888V24.3332C45.8036 27.7058 44.1173 29.939 40.6992 29.939C38.3748 29.939 36.7797 28.8452 35.8226 27.8881V37.0487H31.812V1.27215ZM35.8226 24.6978C36.9164 25.6549 38.1925 26.1562 39.5142 26.1562C40.9726 26.1562 41.8386 25.4726 41.8386 23.8319V7.0602C41.8386 5.4195 41.0182 4.73587 39.5142 4.73587C38.1925 4.73587 36.9164 5.28277 35.8226 6.19428V24.6978Z" fill="#00234B"></path>
<path d="M48.2188 19.7763C48.2188 16.2671 49.3581 14.8542 52.4117 13.806L57.7895 11.983V7.19758C57.7895 5.5113 56.9692 4.5998 55.2829 4.5998H54.6449C52.9586 4.5998 52.1382 5.5113 52.1382 7.19758V11.2082H48.2643V7.33431C48.2643 3.09581 50.4064 0.908203 54.6904 0.908203H55.4652C59.7037 0.908203 61.8913 3.05024 61.8913 7.33431V29.6206H57.8807V27.8432C56.7869 28.8914 55.2829 29.9396 53.0041 29.9396C49.8139 29.9396 48.3099 28.1166 48.3099 24.9263V19.7763H48.2188ZM57.7895 24.8352V15.4923L54.1435 16.8595C52.6851 17.452 52.1838 18.1812 52.1838 19.8219V24.1516C52.1838 25.5188 52.8674 26.2024 54.1435 26.2024C55.3741 26.1569 56.4679 25.7467 57.7895 24.8352Z" fill="#00234B"></path>
<path d="M77.9341 29.6199H73.9235V6.78675C73.9235 5.37392 73.2399 4.73587 72.0093 4.73587C70.9155 4.73587 69.7306 5.14605 68.3177 6.1487V29.6199H64.3071V1.27215H68.3177V3.09516C69.4571 2.00135 71.0067 0.953125 73.1943 0.953125C75.2452 0.953125 76.6124 1.77348 77.3416 3.27746C78.7545 2.04693 80.4408 0.953125 82.7651 0.953125C85.8642 0.953125 87.4593 2.86728 87.4593 5.9664V29.6655H83.4487V6.78675C83.4487 5.37392 82.7651 4.73587 81.5346 4.73587C80.4408 4.73587 79.2558 5.14605 77.843 6.1487V29.6199H77.9341Z" fill="#00234B"></path>
<path d="M10.437 3.87109V9.11224L3.73748 15.4928L10.437 21.7822V27.1145L0.182617 17.4525V13.6242L10.437 3.87109Z" fill="#00234B"></path>
<path d="M102.818 13.6242V17.4525L92.5635 27.1145V21.7822L99.263 15.4928L92.5635 9.06667V3.87109L102.818 13.6242Z" fill="#00234B"></path>
</g>
<defs>
<clipPath id="clip0_13456_52717">
<rect width="103" height="36.4602" fill="white" transform="translate(0 0.769531)"></rect>
</clipPath>
</defs>
</svg>