<svg xmlns="http://www.w3.org/2000/svg" width="54" height="30" viewBox="0 0 54 30" fill="none" aria-hidden="true">
<g clip-path="url(#clip0_13456_52736)">
<path d="M9.74784 2.84195C11.4554 1.04794 13.7206 0 16.3817 0C21.5657 0 25.0028 3.78505 25.6604 9.45531C25.8736 11.2967 25.8717 13.8928 25.8695 16.8998C25.8691 17.2081 25.8691 17.5209 25.8691 17.8375V29.1021H18.74V20.7705C18.74 20.7705 18.7255 13.6398 18.6819 12.3071C18.4906 6.5028 15.0544 2.85569 9.74715 2.85177C8.14591 4.54351 7.28795 6.61195 7.16142 9.77466C7.14402 10.2158 7.1484 11.7794 7.15417 13.8401C7.15716 14.9078 7.16052 16.109 7.16142 17.3567C7.1667 22.7874 7.16142 29.1033 7.16142 29.1033H0.0322764V16.281C0.0322764 15.8417 0.0242637 15.3986 0.0162325 14.9537C6.37467e-05 14.0589 -0.0162331 13.1572 0.0322764 12.2643C0.112824 10.7759 0.37031 9.31268 1.06486 7.95338C2.65468 4.83933 5.91222 2.83431 9.38501 2.83431C9.50633 2.83431 9.62774 2.8373 9.74784 2.84195Z" fill="#00234B"></path>
<path d="M53.968 17.528C54.0165 16.6352 54.0002 15.7334 53.9841 14.8387C53.976 14.3938 53.968 13.9507 53.968 13.5114V0.68904H46.839C46.839 0.68904 46.8336 7.00499 46.839 12.4356C46.8398 13.6832 46.8431 14.8844 46.8461 15.9521C46.8519 18.0129 46.8563 19.5765 46.839 20.0176C46.7124 23.1804 45.8544 25.2488 44.2532 26.9406C38.946 26.9369 35.5099 23.2895 35.3185 17.4853C35.2749 16.1526 35.2565 12.8455 35.2565 9.01523V0.683594L28.1327 0.690102V11.9547C28.1327 12.2714 28.1323 12.584 28.1323 12.8925C28.13 15.8994 28.1282 18.4954 28.3414 20.3369C28.9976 26.0072 32.4347 29.7922 37.6188 29.7922C40.28 29.7922 42.5451 28.7443 44.2527 26.9502C44.3727 26.9549 44.494 26.9577 44.6153 26.9577C48.0881 26.9577 51.3457 24.9527 52.9355 21.8387C53.6301 20.4793 53.8875 19.0162 53.968 17.5277L53.968 17.528Z" fill="#00234B"></path>
</g>
<defs>
<clipPath id="clip0_13456_52736">
<rect width="54" height="29.793" fill="white"></rect>
</clipPath>
</defs>
</svg>