<svg xmlns="http://www.w3.org/2000/svg" width="179" height="40" viewBox="0 0 179 40" fill="none" aria-hidden="true">
  <path d="M.29 22.13 0 24.73l.29 2.58c0 .14.14.14.14.14.15 0 .15-.14.15-.14L1 24.72l-.43-2.59C.58 22 .43 22 .43 22s-.14 0-.14.14ZM2 20.55l-.43 4.17.43 4.17c0 .15.15.15.15.15.14 0 .14-.15.14-.15l.58-4.17-.58-4.17c0-.14-.14-.14-.14-.14l-.15.14Zm5.47-.57-.3 4.74.3 5.04c0 .14.14.28.28.28a.3.3 0 0 0 .3-.29l.57-5.03-.43-4.74a.3.3 0 0 0-.3-.29c-.28 0-.42.14-.42.29Zm-3.6-.29-.43 5.03.43 4.75c0 .14.15.29.29.29 0 0 .14-.15.14-.3l.43-4.74-.43-5.03a.3.3 0 0 0-.28-.29c0 .15-.15.15-.15.3Zm1.73-.14-.43 5.17.43 4.9c0 .13.14.28.28.28a.3.3 0 0 0 .3-.29l.42-4.89-.43-5.17a.3.3 0 0 0-.29-.3c-.14 0-.14.15-.28.3Zm3.74-2.6-.44 7.77.44 5.04c0 .14.14.28.28.28.29 0 .43-.14.43-.29l.44-5.03-.44-7.76a.3.3 0 0 0-.28-.29c-.3 0-.43.15-.43.29Zm1.86-1.72-.28 9.5.28 5.02c0 .3.15.44.44.44.14 0 .43-.15.43-.44l.43-5.03-.43-9.49c0-.28-.15-.43-.43-.43-.3 0-.44.15-.44.43Zm88.71-.57V23c-.14-.29-.57-1-.86-1.44l-4.6-6.9h-2.44v13.08h2.58V19.12c.15.28.58 1 .87 1.43l4.74 7.2h2.3v-13.1h-2.59Zm8.63 2.59h1.44c2.73 0 3.88 1.3 3.88 4.02 0 2.45-1.3 4.03-4.03 4.03h-1.29v-8.05Zm-2.59 10.5h3.88c3.31 0 6.76-1.88 6.76-6.48 0-4.74-2.73-6.47-6.47-6.47h-4.17v-.14 13.08Zm25.74-13.1v13.1h7.9v-2.6h-5.17v-10.5h-2.73Zm39.4 2.6h1.43c2.73 0 3.88 1.3 3.88 4.02 0 2.45-1.3 4.03-4.02 4.03h-1.3v-8.05Zm-2.6 10.5h3.89c2.87 0 5.9-1.45 6.61-4.9v-3.3c-.57-3.45-3.02-4.75-6.33-4.75h-4.17v-.14 13.08ZM52.48 18.4c0 2.58 1.72 3.3 4.02 3.88 2.45.57 2.88.86 2.88 1.72 0 1.01-.72 1.44-2.3 1.44-1.3 0-2.45-.43-3.3-1.44l-1.88 1.73a6.13 6.13 0 0 0 5.03 2.44c3.6 0 5.18-1.72 5.18-4.17 0-2.87-2.3-3.59-4.31-4.02-2.02-.43-2.59-.72-2.59-1.58 0-.58.43-1.15 1.87-1.15 1.15 0 2.16.43 3.02 1.3l1.87-1.88a6.29 6.29 0 0 0-4.75-2.01h-.43c-2.44 0-4.31 1.44-4.31 3.74Zm14.38 2.87c0-2.3.86-4.17 3.01-4.17 2.16 0 3.02 1.87 3.02 4.17s-.86 4.17-3.02 4.17c-2.15 0-3.01-1.87-3.01-4.17Zm-2.74 0c0 4.03 2.16 6.76 5.61 6.76 3.6 0 5.75-2.73 5.75-6.76 0-4.02-2.15-6.76-5.75-6.76-3.45 0-5.6 2.74-5.6 6.76Zm22-6.76V22c0 2.16-1 3.45-2.73 3.45s-2.73-1.3-2.73-3.45v-7.33h-2.59v7.33c0 3.74 2.16 5.9 5.32 5.9 3.3 0 5.32-2.16 5.32-6.04V14.5h-2.59Zm32.64 6.76c0 4.17 2.3 6.76 5.75 6.76 2.44 0 3.88-1.15 4.89-3.02l-2.16-1.3c-.72 1.16-1.44 1.73-2.59 1.73-2.01 0-3.16-1.72-3.16-4.17 0-2.44 1.15-4.17 3.02-4.17 1.15 0 1.87.58 2.44 1.44l2.45-1.15a4.89 4.89 0 0 0-4.75-2.88c-3.45 0-5.9 2.74-5.9 6.76Zm24.73 0c0-2.3.86-4.17 3.02-4.17 2.15 0 3.02 1.87 3.02 4.17s-.87 4.17-3.02 4.17c-2.16 0-3.02-1.87-3.02-4.17Zm-2.73 0c0 4.03 2.15 6.76 5.6 6.76 3.6 0 5.61-2.73 5.61-6.76 0-4.02-2.16-6.76-5.6-6.76-3.46 0-5.61 2.74-5.61 6.76Zm21.85-6.76V22c0 2.16-1 3.45-2.73 3.45s-2.73-1.3-2.73-3.45v-7.33h-2.6v7.33c0 3.74 2.16 5.9 5.33 5.9 3.3 0 5.32-2.16 5.32-6.04V14.5h-2.59Zm-143.78.3-.28 9.91.28 4.75c0 .29.3.57.58.57.29 0 .57-.29.57-.57l.3-4.75-.3-10.06a.62.62 0 0 0-.57-.58c-.43.15-.58.3-.58.72Zm-5.75-.44-.28 10.35.28 4.9c0 .28.15.42.43.42.3 0 .44-.14.44-.43l.28-4.89-.28-10.35c0-.29-.15-.43-.44-.43-.28 0-.43.29-.43.43Zm3.74 0-.29 10.35.3 4.9c0 .28.28.57.57.57.28 0 .57-.3.57-.58l.29-4.89-.29-10.35a.62.62 0 0 0-.57-.57.62.62 0 0 0-.58.57Zm-1.87-.29-.28 10.64.28 4.9c0 .28.15.42.43.42.3 0 .44-.14.44-.43l.28-4.89-.28-10.64c0-.28-.3-.43-.44-.43s-.43.15-.43.43Zm5.75-1.29-.28 11.93.28 4.75c0 .29.3.57.58.57.29 0 .57-.29.57-.57l.3-4.75-.3-11.93a.62.62 0 0 0-.57-.58.62.62 0 0 0-.58.58Zm2.02-1-.3 12.93.3 4.75c0 .29.28.57.57.57.29 0 .58-.29.58-.57l.28-4.75-.28-12.94a.62.62 0 0 0-.58-.57h-.14c-.29 0-.43.29-.43.57Zm2.3-1.3c-.43.14-.58.29-.58.72v18.26c0 .29.29.57.58.72h15.96a5.77 5.77 0 0 0 5.75-5.75 5.77 5.77 0 0 0-7.91-5.32 10.04 10.04 0 0 0-10.07-9.2h-.71c-1.01 0-2.02.28-3.02.57Z" fill="#00234B"></path>
</svg>