<svg xmlns="http://www.w3.org/2000/svg" width="153" height="48" viewBox="0 0 153 48" fill="none" aria-hidden="true">
<path d="M152.738 20.6165C152.913 21.0092 153 21.4345 153 21.8904C153 22.3583 152.913 22.7901 152.738 23.1864C152.563 23.5814 152.327 23.9262 152.029 24.2174C151.731 24.5093 151.384 24.7361 150.987 24.898C150.591 25.0595 150.168 25.1408 149.719 25.1408C149.27 25.1408 148.846 25.0595 148.446 24.898C148.046 24.7361 147.696 24.5093 147.396 24.2174C147.095 23.9262 146.858 23.5814 146.683 23.1864C146.507 22.7901 146.42 22.3583 146.42 21.8904C146.42 21.4345 146.507 21.0092 146.683 20.6165C146.858 20.2231 147.095 19.8827 147.396 19.5932C147.696 19.3044 148.046 19.0777 148.446 18.9126C148.846 18.7482 149.27 18.6665 149.719 18.6665C150.168 18.6665 150.591 18.7482 150.987 18.9126C151.384 19.0777 151.731 19.3044 152.029 19.5932C152.327 19.8827 152.563 20.2231 152.738 20.6165ZM152.2 22.9951C152.336 22.6576 152.405 22.2891 152.405 21.8904C152.405 21.5037 152.336 21.1421 152.2 20.807C152.063 20.4719 151.873 20.1816 151.631 19.9359C151.389 19.6906 151.104 19.4965 150.778 19.3552C150.451 19.213 150.098 19.1429 149.719 19.1429C149.334 19.1429 148.977 19.213 148.647 19.3552C148.318 19.4965 148.031 19.6906 147.789 19.9359C147.547 20.1816 147.358 20.4719 147.221 20.807C147.084 21.1421 147.015 21.5037 147.015 21.8904C147.015 22.2891 147.084 22.6576 147.221 22.9951C147.358 23.3334 147.547 23.6265 147.789 23.8754C148.031 24.1231 148.318 24.3188 148.647 24.4602C148.977 24.6016 149.334 24.6728 149.719 24.6728C150.098 24.6728 150.451 24.6016 150.778 24.4602C151.104 24.3188 151.389 24.1231 151.631 23.8754C151.873 23.6265 152.063 23.3334 152.2 22.9951ZM150.97 21.843C150.778 22.0013 150.538 22.0955 150.253 22.1241L151.346 23.7975H150.708L149.666 22.168H149.037V23.7975H148.441V20.0098H149.92C150.375 20.0098 150.712 20.0992 150.931 20.278C151.149 20.4576 151.259 20.729 151.259 21.0931C151.259 21.4342 151.163 21.6839 150.97 21.843ZM149.658 21.6908C149.792 21.6908 149.919 21.6863 150.038 21.6783C150.158 21.6694 150.264 21.6453 150.358 21.6042C150.451 21.5639 150.525 21.5019 150.581 21.4181C150.636 21.3344 150.664 21.2176 150.664 21.0669C150.664 20.9401 150.639 20.8382 150.589 20.7637C150.54 20.6884 150.476 20.6312 150.397 20.5901C150.318 20.5498 150.228 20.5224 150.126 20.5083C150.024 20.4938 149.923 20.4862 149.824 20.4862H149.037V21.6908H149.658ZM43.1264 20.6102V18.5567H45.4999V32.8191H43.1264V30.9133H43.0658C42.014 32.1642 40.241 33.3253 37.8052 33.3253C33.8997 33.3253 30.4117 30.3177 30.4117 25.6722C30.4117 21.2643 33.657 18.0811 37.9564 18.0811C40.5719 18.0811 42.103 19.4496 43.0951 20.6102H43.1264ZM38.1357 31.2412C40.8419 31.2412 43.3366 28.9778 43.3366 25.7624C43.3366 22.3682 41.022 20.1354 38.1963 20.1354C34.5888 20.1354 32.8751 22.9336 32.8751 25.6722C32.8751 28.4112 34.5888 31.2412 38.1357 31.2412ZM64.0528 18.081C67.2992 18.081 69.5537 20.3137 69.5537 24.5126V32.8193H67.1785V24.3314C67.1785 22.1292 66.1572 20.1941 63.7223 20.1941C61.7081 20.1941 59.8147 21.623 59.8147 24.8992V32.8193H57.4094V24.3314C57.4094 21.9806 56.1174 20.1941 53.9833 20.1941C51.578 20.1941 50.0461 21.9206 50.0461 24.8992V32.8193H47.6701V18.5566H50.0461V20.3431H50.1066C51.067 19.0636 52.54 18.081 54.4037 18.081C56.6581 18.081 58.4913 19.3604 59.0931 21.0282C59.8147 19.5981 61.5585 18.081 64.0528 18.081ZM95.9141 18.081C100.391 18.081 103.608 21.356 103.608 25.6725C103.608 29.8713 100.362 33.3252 95.9141 33.3252C91.5549 33.3252 88.2186 29.9898 88.2186 25.6725C88.2186 21.2642 91.5849 18.081 95.9141 18.081ZM95.9141 31.181C98.9487 31.181 101.143 28.7985 101.143 25.6725C101.143 22.6649 99.0699 20.1941 95.9141 20.1941C92.8486 20.1941 90.6836 22.5167 90.6836 25.6725C90.6836 28.8875 93.1486 31.181 95.9141 31.181ZM112.822 18.081C117.303 18.081 120.518 21.356 120.518 25.6725C120.518 29.8713 117.271 33.3252 112.822 33.3252C108.466 33.3252 105.128 29.9898 105.128 25.6725C105.128 21.2642 108.495 18.081 112.822 18.081ZM112.822 31.181C115.858 31.181 118.054 28.7985 118.054 25.6725C118.054 22.6649 115.98 20.1941 112.822 20.1941C109.758 20.1941 107.594 22.5167 107.594 25.6725C107.594 28.8875 110.059 31.181 112.822 31.181ZM131.79 24.6708V18.606H133.535V32.8193H131.79V26.2547H124.157V32.8193H122.412V18.606H124.157V24.6708H131.79ZM145.212 22.7739C145.212 24.7952 143.696 26.3582 141.889 26.713L146.411 32.8193H144.201L139.869 26.8802H137.952V32.8193H136.206V18.606H140.352C143.927 18.606 145.212 20.8154 145.212 22.7739ZM137.952 25.2954H140.561C142.456 25.2954 143.403 24.1501 143.403 22.7739C143.403 21.107 142.394 20.19 140.541 20.19H137.952V25.2954ZM20.9559 17.9254C25.1126 17.9254 28.7022 21.4799 28.7022 25.6156C28.7022 30.0694 25.2606 33.5349 20.7152 33.5349C16.5889 33.5349 12.9932 30.6533 12.9932 26.0288V11H15.3826L15.3834 20.1831L15.6668 19.8883C16.7068 18.8658 18.1896 17.9254 20.9559 17.9254ZM20.7152 31.3774C24.1051 31.3774 26.2587 28.9872 26.2587 25.835C26.2587 22.9374 24.2235 20.171 20.7692 20.171C17.3154 20.171 15.1736 22.7513 15.1736 25.893C15.1736 29.0331 17.7139 31.3774 20.7152 31.3774ZM79.2045 17.9254C83.3608 17.9254 86.9508 21.4799 86.9508 25.6156C86.9508 30.0694 83.5092 33.5349 78.9638 33.5349C74.8375 33.5349 71.2414 30.6533 71.2414 26.0288V12.4144H73.6312L73.632 20.1831L73.9154 19.8883C74.9554 18.8658 76.4382 17.9254 79.2045 17.9254ZM78.9638 31.3774C82.3537 31.3774 84.5069 28.9872 84.5069 25.835C84.5069 22.9374 82.4721 20.171 79.0178 20.171C75.5636 20.171 73.4222 22.7513 73.4222 25.893C73.4222 29.0331 75.9621 31.3774 78.9638 31.3774ZM8.20173 12.8143C9.98494 14.6798 10.1724 15.7221 10.8054 17.5328L11.8661 20.9749C11.8661 20.9749 10.82 20.7804 9.96299 20.6523C8.96892 20.5029 8.52902 20.3567 7.2654 19.8465C6.00097 19.3362 4.85769 18.0881 3.73678 16.6963C2.61627 15.3036 0 13.1156 0 13.1156C0 13.1156 0.809073 13.1688 1.62912 13.3709C2.30118 13.5373 4.05106 14.0995 5.85623 15.0286C6.2567 15.234 6.47869 15.3673 6.87346 15.6097C7.47356 15.977 8.10496 16.5247 8.70913 17.132C9.4194 17.8453 10.0415 18.4188 10.5724 19.0571C9.99429 18.0027 8.49568 14.2066 5.56594 11.0733C5.2789 10.7665 7.59106 12.1748 8.20173 12.8143Z" fill="#00234B"></path>
</svg>