<svg width="217" height="24" viewBox="0 0 217 24" fill="none" xmlns="http://www.w3.org/2000/svg">
<g clip-path="url(#clip0_7874_11733)">
<path d="M1.29297 9.02616H10.2965H15.764V3.49219L1.29297 9.02616Z" fill="#1D3C5F"/>
<path d="M15.3828 3.55347V23.1146L22.2255 0.945312L15.3828 3.55347Z" fill="#1D3C5F"/>
<path d="M15.5262 8.875H10.0586L15.5262 22.8855V8.875Z" fill="#1D3C5F"/>
<path d="M1.29297 8.875L11.7043 12.4696L10.2965 8.875H1.29297Z" fill="#1D3C5F"/>
<path d="M33.8516 17.8377C33.7698 17.9212 33.6388 18.0215 33.4587 18.1386C33.2787 18.2557 33.0331 18.3894 32.7385 18.5064C32.4438 18.6234 32.0836 18.7405 31.6416 18.824C31.216 18.9077 30.7249 18.9579 30.1683 18.9579C29.1043 18.9579 28.1712 18.7739 27.3855 18.4395C26.5997 18.0884 25.9613 17.6036 25.4538 16.9682C24.9463 16.3329 24.5698 15.5973 24.3406 14.7447C24.0951 13.892 23.9805 12.939 23.9805 11.9191C23.9805 10.8993 24.1114 9.94628 24.3733 9.07693C24.6353 8.20754 25.0118 7.45519 25.5356 6.81987C26.0431 6.18455 26.6979 5.68299 27.4673 5.33189C28.2366 4.98079 29.1534 4.79688 30.201 4.79688C30.7085 4.79688 31.1832 4.84703 31.5925 4.93063C32.0018 5.03095 32.3783 5.13126 32.6893 5.26501C33.0003 5.39876 33.2623 5.53252 33.4587 5.66626C33.6715 5.80002 33.8189 5.93376 33.9171 6.01736C34.0316 6.11768 34.1463 6.25143 34.2281 6.4019C34.31 6.55237 34.3591 6.71956 34.3591 6.88675C34.3591 7.15425 34.2609 7.42175 34.0644 7.68925C33.868 7.95676 33.6551 8.20754 33.4096 8.44161C33.2459 8.27442 33.0658 8.10723 32.8694 7.94004C32.6729 7.77285 32.4438 7.62238 32.1982 7.48863C31.9527 7.35488 31.6743 7.25457 31.3634 7.17097C31.0523 7.08738 30.7085 7.03722 30.3157 7.03722C29.6445 7.03722 29.0715 7.17097 28.6132 7.45519C28.1548 7.73942 27.7947 8.09052 27.5164 8.54193C27.2381 8.99334 27.0417 9.49487 26.9271 10.0633C26.8125 10.6318 26.747 11.2169 26.747 11.8188C26.747 12.4541 26.8125 13.056 26.9271 13.6412C27.0417 14.2264 27.2544 14.7279 27.5491 15.1793C27.8438 15.6308 28.2203 15.9819 28.695 16.2494C29.1697 16.5168 29.7427 16.6506 30.4466 16.6506C30.8232 16.6506 31.1505 16.6005 31.4616 16.5168C31.7726 16.4165 32.0509 16.2995 32.2801 16.1657C32.5256 16.032 32.7221 15.8815 32.9021 15.7478C33.0822 15.5973 33.2296 15.4635 33.3441 15.3632C33.426 15.4635 33.5078 15.5806 33.6224 15.7143C33.737 15.8481 33.8352 15.9986 33.9171 16.1323C34.0153 16.2828 34.0807 16.4333 34.1626 16.5837C34.2281 16.7342 34.2609 16.8679 34.2609 16.985C34.2609 17.1689 34.2281 17.3027 34.1626 17.4364C34.0971 17.5535 33.9825 17.6872 33.8516 17.8377ZM44.0665 16.2828C44.0665 17.3528 44.2138 18.1386 44.5249 18.6234C44.2793 18.7237 44.0665 18.7906 43.8536 18.824C43.6409 18.8575 43.428 18.891 43.1989 18.891C42.7241 18.891 42.364 18.7906 42.1185 18.6068C41.8729 18.4228 41.7092 18.1386 41.6437 17.7875C41.349 18.1052 40.9725 18.3726 40.4814 18.59C40.0067 18.8074 39.4174 18.9077 38.7299 18.9077C38.3697 18.9077 38.0095 18.8575 37.6495 18.7572C37.2893 18.6569 36.9619 18.4897 36.6673 18.2557C36.3726 18.0215 36.1434 17.7206 35.9469 17.3361C35.7669 16.9516 35.6687 16.4834 35.6687 15.9317C35.6687 15.2462 35.8324 14.6778 36.1598 14.2431C36.4871 13.8084 36.8964 13.474 37.3875 13.2232C37.8786 12.9724 38.4188 12.8052 38.9754 12.7049C39.5484 12.6046 40.0722 12.5544 40.547 12.521C40.7106 12.5043 40.8579 12.5043 41.0217 12.5043H41.4472V12.1365C41.4472 11.6182 41.3163 11.2504 41.0381 11.0163C40.7597 10.7989 40.3177 10.682 39.7121 10.682C39.1391 10.682 38.6317 10.7823 38.1897 10.9662C37.7477 11.15 37.3057 11.3674 36.88 11.6182C36.7 11.3842 36.5362 11.1334 36.438 10.8491C36.3235 10.5649 36.2744 10.3643 36.2744 10.2306C36.2744 10.0466 36.3726 9.86271 36.5854 9.67883C36.7982 9.49487 37.0765 9.34443 37.4366 9.19396C37.7968 9.04349 38.206 8.94318 38.6808 8.84287C39.1391 8.75928 39.6302 8.70911 40.1541 8.70911C40.8743 8.70911 41.48 8.77599 41.9711 8.92646C42.4622 9.07693 42.8714 9.31099 43.1825 9.61193C43.4936 9.92962 43.7227 10.3141 43.8536 10.7823C43.9847 11.2504 44.0501 11.8021 44.0501 12.4207L44.0665 16.2828ZM41.5128 13.9254H41.2345C41.1363 13.9254 41.0544 13.9254 40.9561 13.9422C40.6288 13.9756 40.3014 14.009 39.9739 14.0591C39.6466 14.1093 39.3519 14.2096 39.1064 14.3434C38.8608 14.4771 38.648 14.661 38.4843 14.8784C38.3206 15.0958 38.2388 15.38 38.2388 15.7143C38.2388 16.0989 38.337 16.4165 38.5498 16.684C38.7626 16.9516 39.1228 17.0853 39.6302 17.0853C39.8757 17.0853 40.1213 17.0519 40.3505 16.985C40.5797 16.9181 40.7761 16.8345 40.9561 16.7175C41.1363 16.6005 41.2672 16.4834 41.3654 16.3664C41.4636 16.2326 41.5128 16.1156 41.5128 16.0153V13.9254ZM49.0266 9.91287C49.2394 9.66208 49.5668 9.3946 50.0252 9.12709C50.4835 8.85958 51.0401 8.72583 51.7277 8.72583C52.2188 8.72583 52.6935 8.80943 53.1354 8.97662C53.5774 9.14381 53.9703 9.42805 54.3141 9.79581C54.6579 10.1804 54.9362 10.682 55.1326 11.3005C55.3454 11.9191 55.4436 12.6882 55.4436 13.6077C55.4436 14.661 55.3291 15.5472 55.0835 16.2326C54.838 16.9181 54.5433 17.4698 54.1668 17.8544C53.7903 18.2557 53.3647 18.5399 52.9063 18.7071C52.4479 18.8742 51.9732 18.9579 51.5148 18.9579C51.1383 18.9579 50.7946 18.9077 50.5163 18.824C50.2379 18.7405 49.9924 18.6402 49.796 18.5231C49.5995 18.4228 49.4522 18.3058 49.3377 18.2055C49.2394 18.1052 49.1575 18.0215 49.1412 17.9881V23.0038H46.4238V9.02677C46.4893 9.01005 46.5711 8.99334 46.6693 8.99334C46.7511 8.97662 46.8494 8.97662 46.9476 8.9599C47.0622 8.9599 47.1768 8.94317 47.3241 8.94317C47.7661 8.94317 48.1426 9.01005 48.4537 9.16052C48.7483 9.31099 48.9448 9.56177 49.0266 9.91287ZM52.628 13.6746C52.628 13.2734 52.5952 12.8889 52.5298 12.5378C52.4643 12.1867 52.3497 11.8857 52.2023 11.6182C52.055 11.3674 51.8423 11.1668 51.5803 11.0163C51.3184 10.8658 51.0074 10.7989 50.6308 10.7989C50.0743 10.7989 49.6814 10.916 49.4686 11.1166C49.2557 11.334 49.1412 11.568 49.1412 11.8356V16.1657C49.2394 16.2828 49.4359 16.3999 49.7141 16.5503C49.9924 16.7008 50.3035 16.7676 50.6636 16.7676C51.3348 16.7676 51.8259 16.5002 52.1532 15.9484C52.4643 15.4134 52.628 14.661 52.628 13.6746ZM57.539 17.1856C57.4408 16.9181 57.3917 16.6339 57.3589 16.3329C57.3262 16.032 57.3262 15.7311 57.3262 15.4301V5.98393C57.4244 5.96721 57.5226 5.95048 57.6209 5.95048C57.7191 5.93377 57.8173 5.93377 57.9155 5.91705C58.0137 5.91705 58.1284 5.90034 58.2266 5.90034C58.4393 5.90034 58.6522 5.91705 58.865 5.96721C59.0778 6.00064 59.2742 6.08424 59.4379 6.21799C59.618 6.33503 59.749 6.50221 59.8635 6.71956C59.9617 6.93691 60.0272 7.20441 60.0272 7.53879V8.99334H62.8265V11.0497H60.0437V15.3967C60.0437 16.3497 60.4201 16.8178 61.1732 16.8178C61.3532 16.8178 61.5333 16.7844 61.697 16.7342C61.8607 16.6673 62.0081 16.6005 62.139 16.5336C62.2699 16.4667 62.3845 16.3831 62.4828 16.2995C62.581 16.2159 62.6465 16.1491 62.6956 16.1156C62.892 16.4165 63.0557 16.6673 63.1539 16.8847C63.2521 17.1021 63.3176 17.3027 63.3176 17.5033C63.3176 17.6872 63.2521 17.8544 63.1048 18.0215C62.9575 18.1888 62.761 18.356 62.5155 18.4897C62.2699 18.6402 61.9589 18.7572 61.5988 18.8408C61.2386 18.9244 60.8457 18.9745 60.4201 18.9745C59.6017 18.9745 58.9468 18.8074 58.4884 18.4897C58.0629 18.1386 57.7355 17.7206 57.539 17.1856ZM69.7019 16.9181C70.0293 16.9181 70.324 16.8847 70.5859 16.8011C70.8315 16.7342 71.0606 16.6339 71.2735 16.5336C71.4699 16.4333 71.6499 16.2995 71.7973 16.1825C71.9446 16.0488 72.0756 15.9317 72.1901 15.8314C72.3539 16.032 72.5176 16.2995 72.6976 16.6171C72.8777 16.9348 72.9596 17.2024 72.9596 17.403C72.9596 17.7039 72.7959 17.9714 72.4685 18.2222C72.1901 18.4395 71.7973 18.6234 71.2735 18.7906C70.766 18.9411 70.1603 19.0247 69.4728 19.0247C68.8507 19.0247 68.2286 18.9411 67.6229 18.7739C67.0173 18.6068 66.4771 18.3225 66.0023 17.9212C65.5276 17.52 65.1511 16.9682 64.8564 16.2828C64.5618 15.5973 64.4144 14.7279 64.4144 13.6914C64.4144 12.8387 64.5454 12.103 64.8073 11.4845C65.0692 10.8658 65.413 10.3475 65.8386 9.94628C66.2642 9.54502 66.7553 9.24412 67.3119 9.0435C67.8521 8.85958 68.4087 8.75928 68.9817 8.75928C69.7183 8.75928 70.3568 8.8763 70.8806 9.11037C71.4044 9.34443 71.8137 9.66208 72.141 10.0633C72.4685 10.4646 72.6976 10.916 72.845 11.4343C72.9923 11.9526 73.0578 12.4876 73.0578 13.056V13.3403C73.0578 13.4573 73.0578 13.5576 73.0414 13.6914C73.0414 13.8084 73.025 13.9254 73.025 14.0425C73.025 14.1595 73.0087 14.2431 72.9923 14.3099H67.1155C67.1646 15.0623 67.3938 15.6809 67.803 16.1825C68.1959 16.6673 68.8343 16.9181 69.7019 16.9181ZM70.6186 12.7886C70.6186 12.1365 70.4877 11.6015 70.2421 11.2002C69.9966 10.7989 69.5546 10.5817 68.9162 10.5817C68.3596 10.5817 67.934 10.7823 67.6066 11.1668C67.2791 11.5513 67.1155 12.0864 67.1155 12.7886H70.6186ZM77.7887 9.96303C77.8706 9.84596 77.9688 9.71224 78.0998 9.56177C78.2307 9.4113 78.3944 9.27756 78.5909 9.16052C78.7873 9.0435 79.0001 8.94317 79.2293 8.85958C79.4584 8.77599 79.704 8.74256 79.9823 8.74256C80.146 8.74256 80.3097 8.75927 80.4897 8.77599C80.6699 8.80943 80.8335 8.85959 80.9808 8.92646C81.1282 8.99334 81.2592 9.09365 81.3574 9.2274C81.4556 9.36115 81.5047 9.51161 81.5047 9.69549C81.5047 9.99643 81.4392 10.3309 81.2919 10.7154C81.1446 11.0999 80.9972 11.4343 80.8499 11.7018C80.6208 11.5179 80.3915 11.3674 80.1788 11.2671C79.9495 11.1668 79.6877 11.1166 79.3766 11.1166C78.9673 11.1166 78.6236 11.2337 78.3453 11.4845C78.067 11.7353 77.9197 12.0195 77.9197 12.3706V18.9579H75.2023V9.01006C75.2678 8.99334 75.3496 8.97662 75.4478 8.97662C75.5296 8.9599 75.6278 8.9599 75.7261 8.94317C75.8243 8.94317 75.9553 8.92646 76.1026 8.92646C76.5282 8.92646 76.9047 9.01006 77.2158 9.17725C77.5104 9.36116 77.7069 9.61193 77.7887 9.96303ZM85.499 9.96303C85.5809 9.84596 85.6791 9.71224 85.81 9.56177C85.941 9.4113 86.1044 9.27756 86.3009 9.16052C86.4973 9.0435 86.71 8.94317 86.9397 8.85958C87.1686 8.77599 87.4146 8.74256 87.6922 8.74256C87.8562 8.74256 88.0201 8.75927 88.2004 8.77599C88.3797 8.80943 88.5437 8.85959 88.6915 8.92646C88.8384 8.99334 88.969 9.09365 89.0673 9.2274C89.1655 9.36115 89.215 9.51161 89.215 9.69549C89.215 9.99643 89.1493 10.3309 89.0023 10.7154C88.8546 11.0999 88.7077 11.4343 88.5599 11.7018C88.331 11.5179 88.1021 11.3674 87.8886 11.2671C87.6597 11.1668 87.3975 11.1166 87.0866 11.1166C86.6775 11.1166 86.3342 11.2337 86.0556 11.4845C85.7773 11.7353 85.63 12.0195 85.63 12.3706V18.9579H82.9125V9.01006C82.978 8.99334 83.0599 8.97662 83.1581 8.97662C83.2399 8.9599 83.3381 8.9599 83.4363 8.94317C83.5346 8.94317 83.6656 8.92646 83.8129 8.92646C84.2385 8.92646 84.615 9.01006 84.926 9.17725C85.2207 9.36116 85.4171 9.61193 85.499 9.96303ZM98.4477 16.2828C98.4477 17.3528 98.5946 18.1386 98.9064 18.6234C98.6604 18.7237 98.4477 18.7906 98.235 18.824C98.0224 18.8575 97.8089 18.891 97.58 18.891C97.1051 18.891 96.7455 18.7906 96.4995 18.6068C96.2544 18.4228 96.0904 18.1386 96.0247 17.7875C95.73 18.1052 95.3533 18.3726 94.8623 18.59C94.3882 18.8074 93.7989 18.9077 93.1114 18.9077C92.7509 18.9077 92.3905 18.8575 92.0309 18.7572C91.6705 18.6569 91.3434 18.4897 91.0487 18.2557C90.7541 18.0215 90.5243 17.7206 90.3279 17.3361C90.1477 16.9516 90.0495 16.4834 90.0495 15.9317C90.0495 15.2462 90.2134 14.6778 90.5406 14.2431C90.8685 13.8084 91.2776 13.474 91.7687 13.2232C92.2598 12.9724 92.7996 12.8052 93.3565 12.7049C93.9296 12.6046 94.4531 12.5544 94.928 12.521C95.092 12.5043 95.2389 12.5043 95.4029 12.5043H95.8282V12.1365C95.8282 11.6182 95.6975 11.2504 95.4191 11.0163C95.1407 10.7989 94.6991 10.682 94.0936 10.682C93.5205 10.682 93.0132 10.7823 92.5707 10.9662C92.1292 11.15 91.6868 11.3674 91.2614 11.6182C91.0812 11.3842 90.9172 11.1334 90.819 10.8491C90.7046 10.5649 90.6559 10.3643 90.6559 10.2306C90.6559 10.0466 90.7541 9.86271 90.9668 9.67883C91.1794 9.49487 91.4579 9.34443 91.8174 9.19396C92.1778 9.04349 92.587 8.94318 93.0618 8.84287C93.5205 8.75928 94.0116 8.70911 94.5351 8.70911C95.2551 8.70911 95.8615 8.77599 96.3526 8.92646C96.8437 9.07693 97.2528 9.31099 97.5637 9.61193C97.8746 9.92962 98.1035 10.3141 98.235 10.7823C98.3657 11.2504 98.4315 11.8021 98.4315 12.4207L98.4477 16.2828ZM95.894 13.9254H95.6156C95.5173 13.9254 95.4353 13.9254 95.3371 13.9422C95.01 13.9756 94.6829 14.009 94.3549 14.0591C94.0278 14.1093 93.7331 14.2096 93.4872 14.3434C93.242 14.4771 93.0294 14.661 92.8654 14.8784C92.7014 15.0958 92.6203 15.38 92.6203 15.7143C92.6203 16.0989 92.7185 16.4165 92.9312 16.684C93.1438 16.9516 93.5042 17.0853 94.0116 17.0853C94.2567 17.0853 94.5027 17.0519 94.7316 16.985C94.9605 16.9181 95.1569 16.8345 95.3371 16.7175C95.5173 16.6005 95.648 16.4834 95.7462 16.3664C95.8445 16.2326 95.894 16.1156 95.894 16.0153V13.9254Z" fill="#1D3C5F"/>
</g>
<path d="M124.216 1.76562L127.359 7.92832L133.866 9.18885L129.302 14.2581L130.18 21.1999L124.216 18.1702L118.253 21.1999L119.131 14.2581L114.567 9.18885L121.074 7.92832L124.216 1.76562Z" fill="#1D3C5F"/>
<path d="M165.399 1.76562L168.727 7.92832L175.616 9.18885L170.784 14.2581L171.714 21.1999L165.399 18.1702L159.085 21.1999L160.015 14.2581L155.182 9.18885L162.071 7.92832L165.399 1.76562Z" fill="#1D3C5F"/>
<path d="M144.509 1.76562L147.652 7.92832L154.159 9.18885L149.595 14.2581L150.473 21.1999L144.509 18.1702L138.546 21.1999L139.424 14.2581L134.86 9.18885L141.367 7.92832L144.509 1.76562Z" fill="#1D3C5F"/>
<path d="M186.287 1.76562L189.43 7.92832L195.936 9.18885L191.372 14.2581L192.251 21.1999L186.287 18.1702L180.323 21.1999L181.201 14.2581L176.637 9.18885L183.144 7.92832L186.287 1.76562Z" fill="#1D3C5F"/>
<path d="M206.58 2.42247L209.457 8.06389L209.523 8.1936L209.666 8.22129L215.654 9.38143L211.443 14.0585L211.352 14.16L211.369 14.2956L212.177 20.6788L206.715 17.9041L206.58 17.8354L206.445 17.9041L200.983 20.6788L201.79 14.2956L201.808 14.16L201.716 14.0585L197.505 9.38143L203.494 8.22129L203.637 8.1936L203.703 8.06389L206.58 2.42247Z" stroke="#1D3C5F" stroke-width="0.596833"/>
<path fill-rule="evenodd" clip-rule="evenodd" d="M207.183 2.94139V18.469L206.579 18.1624L200.615 21.1921L201.494 14.2503L196.93 9.18103L203.436 7.92051L206.579 1.75781L207.183 2.94139Z" fill="#1D3C5F"/>
<defs>
<clipPath id="clip0_7874_11733">
<rect width="99.0742" height="22.6796" fill="white" transform="translate(0.671875 0.703125)"/>
</clipPath>
</defs>
</svg>
