<?xml version="1.0" encoding="UTF-8"?>
<svg width="284" height="295" viewBox="0 0 284 295" fill="none" xmlns="http://www.w3.org/2000/svg">
<rect y="0.798828" width="305" height="293.401" rx="16.1861" fill="white"/>
<text fill="#B3B5B7" xml:space="preserve" style="white-space: pre" font-family="Remote Sans" font-size="9.71167" letter-spacing="0em"><tspan x="19.4233" y="30.8064">COUNTRY</tspan></text>
<g clip-path="url(#6API7tKlJu6KpnXoAYlCVd-clip0_1279_5313)">
<path d="M29.135 77.3061C34.4986 77.3061 38.8467 72.9581 38.8467 67.5945C38.8467 62.2309 34.4986 57.8828 29.135 57.8828C23.7714 57.8828 19.4233 62.2309 19.4233 67.5945C19.4233 72.9581 23.7714 77.3061 29.135 77.3061Z" fill="#F0F0F0"/>
<path d="M29.1352 57.8828C25.2849 57.8828 21.9581 60.1235 20.3872 63.372H37.8832C36.3124 60.1235 32.9855 57.8828 29.1352 57.8828V57.8828Z" fill="#338AF3"/>
<path d="M29.1352 77.3066C32.9855 77.3066 36.3124 75.0659 37.8832 71.8174H20.3872C21.9581 75.0659 25.2849 77.3066 29.1352 77.3066Z" fill="#338AF3"/>
<path d="M32.0378 67.5943L30.8517 68.1522L31.4833 69.3009L30.1954 69.0545L30.0322 70.3555L29.1351 69.3986L28.238 70.3555L28.0748 69.0545L26.7869 69.3008L27.4185 68.1522L26.2324 67.5943L27.4185 67.0363L26.7869 65.8877L28.0748 66.1341L28.238 64.833L29.1351 65.7899L30.0322 64.833L30.1954 66.1341L31.4834 65.8877L30.8518 67.0364L32.0378 67.5943Z" fill="#FFDA44"/>
</g>
<text fill="#383A3D" xml:space="preserve" style="white-space: pre" font-family="Remote Sans" font-size="11.3303" letter-spacing="0em"><tspan x="45.3213" y="71.1926">Argentina</tspan></text>
<rect x="19.4233" y="90.2549" width="119.777" height="0.809306" fill="#EFF0F0"/>
<g clip-path="url(#6API7tKlJu6KpnXoAYlCVd-clip1_1279_5313)">
<path d="M32.513 104.617C31.4609 104.226 30.323 104.013 29.135 104.013C27.9471 104.013 26.8092 104.226 25.7571 104.617L24.9126 113.724L25.7571 122.832C26.8092 123.222 27.9471 123.436 29.135 123.436C30.323 123.436 31.4609 123.222 32.513 122.832L33.3575 113.724L32.513 104.617Z" fill="#FFDA44"/>
<path d="M38.8469 113.725C38.8469 109.549 36.2114 105.989 32.5132 104.617V122.832C36.2114 121.46 38.8469 117.9 38.8469 113.725V113.725Z" fill="#D80027"/>
<path d="M19.4233 113.725C19.4233 117.9 22.0588 121.46 25.7571 122.832V104.617C22.0588 105.989 19.4233 109.549 19.4233 113.725V113.725Z" fill="black"/>
</g>
<text fill="#383A3D" xml:space="preserve" style="white-space: pre" font-family="Remote Sans" font-size="11.3303" letter-spacing="0em"><tspan x="45.3213" y="117.322">Belgium</tspan></text>
<rect x="19.4233" y="136.385" width="119.777" height="0.809306" fill="#EFF0F0"/>
<g clip-path="url(#6API7tKlJu6KpnXoAYlCVd-clip2_1279_5313)">
<path d="M19.4233 159.856C19.4233 164.031 22.0588 167.591 25.757 168.963L26.6015 159.856L25.757 150.748C22.0588 152.12 19.4233 155.68 19.4233 159.856Z" fill="#6DA544"/>
<path d="M38.8465 159.855C38.8465 154.492 34.4984 150.144 29.1349 150.144C27.9469 150.144 26.809 150.357 25.7568 150.748V168.963C26.809 169.353 27.9469 169.567 29.1349 169.567C34.4984 169.567 38.8465 165.219 38.8465 159.855Z" fill="#D80027"/>
<path d="M25.7573 163.233C27.6229 163.233 29.1353 161.721 29.1353 159.855C29.1353 157.99 27.6229 156.478 25.7573 156.478C23.8918 156.478 22.3794 157.99 22.3794 159.855C22.3794 161.721 23.8918 163.233 25.7573 163.233Z" fill="#FFDA44"/>
<path d="M23.8569 158.166V160.277C23.8569 161.327 24.7076 162.177 25.757 162.177C26.8065 162.177 27.6572 161.327 27.6572 160.277V158.166H23.8569Z" fill="#D80027"/>
<path d="M25.7569 160.91C25.4077 160.91 25.1235 160.626 25.1235 160.277V159.433H26.3903V160.277C26.3903 160.626 26.1061 160.91 25.7569 160.91Z" fill="#F0F0F0"/>
</g>
<text fill="#383A3D" xml:space="preserve" style="white-space: pre" font-family="Remote Sans" font-size="11.3303" letter-spacing="0em"><tspan x="45.3213" y="163.453">Portugal</tspan></text>
<rect x="19.4233" y="182.516" width="119.777" height="0.809306" fill="#EFF0F0"/>
<g clip-path="url(#6API7tKlJu6KpnXoAYlCVd-clip3_1279_5313)">
<path d="M29.1333 215.694C34.496 215.694 38.8433 211.347 38.8433 205.984C38.8433 200.622 34.496 196.274 29.1333 196.274C23.7707 196.274 19.4233 200.622 19.4233 205.984C19.4233 211.347 23.7707 215.694 29.1333 215.694Z" fill="#6DA544"/>
<path d="M29.1336 200.074L37.1549 205.985L29.1336 211.895L21.1123 205.985L29.1336 200.074Z" fill="#FFDA44"/>
<path d="M29.1332 209.362C30.9985 209.362 32.5106 207.85 32.5106 205.985C32.5106 204.12 30.9985 202.607 29.1332 202.607C27.268 202.607 25.7559 204.12 25.7559 205.985C25.7559 207.85 27.268 209.362 29.1332 209.362Z" fill="#F0F0F0"/>
<path d="M27.4444 205.773C26.8571 205.773 26.2904 205.863 25.7568 206.029C25.7805 207.873 27.2826 209.362 29.1331 209.362C30.2774 209.362 31.288 208.792 31.8989 207.922C30.8537 206.613 29.2455 205.773 27.4444 205.773V205.773Z" fill="#0052B4"/>
<path d="M32.4482 206.632C32.4888 206.422 32.5108 206.206 32.5108 205.985C32.5108 204.119 30.9987 202.607 29.1334 202.607C27.7416 202.607 26.5468 203.449 26.0298 204.652C26.4868 204.557 26.96 204.507 27.4448 204.507C29.4064 204.507 31.1809 205.323 32.4482 206.632V206.632Z" fill="#0052B4"/>
</g>
<text fill="#383A3D" xml:space="preserve" style="white-space: pre" font-family="Remote Sans" font-size="11.3303" letter-spacing="0em"><tspan x="45.3179" y="209.583">Brazil</tspan></text>
<rect x="19.4233" y="228.646" width="119.777" height="0.809306" fill="#EFF0F0"/>
<g clip-path="url(#6API7tKlJu6KpnXoAYlCVd-clip4_1279_5313)">
<path d="M29.135 261.828C34.4986 261.828 38.8467 257.48 38.8467 252.116C38.8467 246.752 34.4986 242.404 29.135 242.404C23.7714 242.404 19.4233 246.752 19.4233 252.116C19.4233 257.48 23.7714 261.828 29.135 261.828Z" fill="#F0F0F0"/>
<path d="M28.7129 252.116H38.8468C38.8468 251.239 38.7299 250.39 38.5122 249.582H28.7129V252.116Z" fill="#D80027"/>
<path d="M28.7129 247.049H37.4214C36.8269 246.079 36.0667 245.222 35.1805 244.516H28.7129V247.049Z" fill="#D80027"/>
<path d="M29.1352 261.828C31.4208 261.828 33.5216 261.038 35.1806 259.717H23.0898C24.7488 261.038 26.8496 261.828 29.1352 261.828Z" fill="#D80027"/>
<path d="M20.8487 257.183H37.4212C37.8984 256.404 38.2686 255.553 38.512 254.649H19.7578C20.0012 255.553 20.3714 256.404 20.8487 257.183V257.183Z" fill="#D80027"/>
<path d="M23.922 243.921H24.807L23.9838 244.519L24.2982 245.487L23.475 244.889L22.6519 245.487L22.9235 244.651C22.1987 245.254 21.5634 245.962 21.0399 246.75H21.3234L20.7994 247.131C20.7178 247.267 20.6395 247.405 20.5645 247.546L20.8147 248.316L20.3478 247.977C20.2318 248.222 20.1257 248.474 20.0302 248.73L20.3059 249.579H21.3234L20.5002 250.177L20.8147 251.145L19.9915 250.547L19.4984 250.905C19.4491 251.302 19.4233 251.706 19.4233 252.116H29.135C29.135 246.752 29.135 246.12 29.135 242.404C27.2165 242.404 25.4281 242.961 23.922 243.921V243.921ZM24.2982 251.145L23.475 250.547L22.6519 251.145L22.9663 250.177L22.1431 249.579H23.1606L23.475 248.611L23.7895 249.579H24.807L23.9838 250.177L24.2982 251.145ZM23.9838 247.348L24.2982 248.316L23.475 247.718L22.6519 248.316L22.9663 247.348L22.1431 246.75H23.1606L23.475 245.782L23.7895 246.75H24.807L23.9838 247.348ZM27.7817 251.145L26.9586 250.547L26.1354 251.145L26.4498 250.177L25.6266 249.579H26.6442L26.9586 248.611L27.273 249.579H28.2905L27.4673 250.177L27.7817 251.145ZM27.4673 247.348L27.7817 248.316L26.9586 247.718L26.1354 248.316L26.4498 247.348L25.6266 246.75H26.6442L26.9586 245.782L27.273 246.75H28.2905L27.4673 247.348ZM27.4673 244.519L27.7817 245.487L26.9586 244.889L26.1354 245.487L26.4498 244.519L25.6266 243.921H26.6442L26.9586 242.953L27.273 243.921H28.2905L27.4673 244.519Z" fill="#0052B4"/>
</g>
<text fill="#383A3D" xml:space="preserve" style="white-space: pre" font-family="Remote Sans" font-size="11.3303" letter-spacing="0em"><tspan x="45.3213" y="255.714">United States</tspan></text>
<text fill="#B3B5B7" xml:space="preserve" style="white-space: pre" font-family="Remote Sans" font-size="9.71167" letter-spacing="0em"><tspan x="139.201" y="30.8064">LOCAL BENEFITS</tspan></text>
<rect x="206.373" y="57.0735" width="21.0419" height="21.0419" rx="10.521" fill="#EBF2FF"/>
<rect x="206.373" y="57.0735" width="21.0419" height="21.0419" rx="10.521" stroke="white" stroke-width="1.61861"/>
<g clip-path="url(#6API7tKlJu6KpnXoAYlCVd-clip5_1279_5313)">
<path d="M211.364 71.3711V71.3711C211.364 72.3395 212.149 73.1246 213.117 73.1246H217.973C218.942 73.1246 219.727 72.3395 219.727 71.3711V71.3711" stroke="#0564FF" stroke-width="0.809306"/>
<path d="M212.13 67.7627L211.591 65.0452C211.44 64.2846 211.364 63.5112 211.364 62.7358V61.6592M212.13 67.7627L212.476 69.9208H218.681V68.8418C218.681 68.2458 218.198 67.7627 217.602 67.7627H212.13Z" stroke="#0564FF" stroke-width="0.809306"/>
<path d="M211.92 66.3975H217.433" stroke="#0564FF" stroke-width="0.809306"/>
<path d="M213.589 69.668L212.712 72.9052" stroke="#0564FF" stroke-width="0.809306"/>
<path d="M217.484 69.668L218.361 72.9052" stroke="#0564FF" stroke-width="0.809306"/>
<path d="M218.442 64.2186C217.943 63.7334 217.943 62.9467 218.442 62.4615C218.941 61.9764 219.75 61.9764 220.249 62.4615C220.748 61.9764 221.557 61.9764 222.056 62.4615C222.555 62.9467 222.555 63.7334 222.056 64.2186L220.249 65.9756L218.442 64.2186Z" stroke="#0564FF" stroke-width="0.809306"/>
</g>
<rect x="183.713" y="57.0735" width="21.0419" height="21.0419" rx="10.521" fill="#FFF5F5"/>
<rect x="183.713" y="57.0735" width="21.0419" height="21.0419" rx="10.521" stroke="white" stroke-width="1.61861"/>
<g clip-path="url(#6API7tKlJu6KpnXoAYlCVd-clip6_1279_5313)">
<path d="M193.702 65.3738C192.729 65.3738 191.67 64.2666 190.677 64.2666C189.596 64.2666 188.72 65.1429 188.72 66.2238V66.6444C188.72 66.9025 188.765 67.1586 188.853 67.4012L190.673 72.4049C190.83 72.8366 191.24 73.124 191.7 73.124C192.22 73.124 192.669 72.7564 192.771 72.2458L193.04 70.8989C193.103 70.5833 193.38 70.3561 193.702 70.3561C194.024 70.3561 194.301 70.5833 194.364 70.8989L194.634 72.2458C194.736 72.7564 195.184 73.124 195.705 73.124C196.164 73.124 196.575 72.8366 196.732 72.4049L198.551 67.4012C198.639 67.1586 198.685 66.9025 198.685 66.6444" stroke="#ED605A" stroke-width="0.809306"/>
<path d="M196.933 61.6621C196.933 63.1512 195.725 64.3584 194.236 64.3584" stroke="#ED605A" stroke-width="0.809306"/>
<path d="M199.629 64.3584C198.14 64.3584 196.933 63.1512 196.933 61.6621" stroke="#ED605A" stroke-width="0.809306"/>
<path d="M196.933 67.0547C196.933 65.5656 198.14 64.3584 199.629 64.3584" stroke="#ED605A" stroke-width="0.809306"/>
<path d="M194.236 64.3584C195.725 64.3584 196.933 65.5656 196.933 67.0547" stroke="#ED605A" stroke-width="0.809306"/>
</g>
<rect x="161.052" y="57.0735" width="21.0419" height="21.042" rx="10.521" fill="#F2F9EE"/>
<rect x="161.052" y="57.0735" width="21.0419" height="21.042" rx="10.521" stroke="white" stroke-width="1.61861"/>
<path d="M166.056 67.5948C166.056 64.5475 168.526 62.0771 171.573 62.0771V62.0771C174.621 62.0771 177.091 64.5475 177.091 67.5948V67.5948V67.5948C177.091 70.642 174.621 73.1124 171.573 73.1124V73.1124V73.1124C168.526 73.1124 166.056 70.642 166.056 67.5948V67.5948Z" stroke="#00B568" stroke-width="0.809306"/>
<path d="M172.292 64.7168H170.854V66.8751H168.695V68.3139H170.854V70.4722H172.292V68.3139H174.451V66.8751H172.292V64.7168Z" stroke="#00B568" stroke-width="0.809306"/>
<rect x="138.391" y="57.0735" width="21.0419" height="21.0419" rx="10.521" fill="#F5F3FF"/>
<rect x="138.391" y="57.0735" width="21.0419" height="21.0419" rx="10.521" stroke="white" stroke-width="1.61861"/>
<g clip-path="url(#6API7tKlJu6KpnXoAYlCVd-clip7_1279_5313)">
<path d="M145.032 66.959L143.542 68.5015C143.34 68.7106 143.34 69.0421 143.542 69.2512L145.032 70.7936C147.153 72.9896 150.672 72.9896 152.793 70.7936L154.283 69.2512C154.485 69.0421 154.485 68.7106 154.283 68.5015L152.793 66.959C150.672 64.7631 147.153 64.7631 145.032 66.959Z" stroke="#5A05FF" stroke-width="0.809306"/>
<path d="M153.836 65.9082C153.189 65.2617 152.422 64.7488 151.577 64.3989C150.732 64.049 149.827 63.8689 148.912 63.8689C147.998 63.8689 147.093 64.049 146.248 64.3989C145.403 64.7488 144.636 65.2617 143.989 65.9082" stroke="#5A05FF" stroke-width="0.809306"/>
<path d="M148.913 63.8173V61.6592" stroke="#5A05FF" stroke-width="0.809306"/>
<path d="M146.215 64.0682L145.136 62.1992" stroke="#5A05FF" stroke-width="0.809306"/>
<path d="M151.61 64.0682L152.689 62.1992" stroke="#5A05FF" stroke-width="0.809306"/>
<path d="M147.356 69.2793C146.92 68.8553 146.92 68.1678 147.356 67.7438C147.792 67.3198 148.499 67.3198 148.936 67.7438C149.372 67.3198 150.079 67.3198 150.515 67.7438C150.951 68.1678 150.951 68.8553 150.515 69.2793L148.936 70.8147L147.356 69.2793Z" stroke="#5A05FF" stroke-width="0.809306"/>
</g>
<rect x="139.201" y="90.2549" width="106.828" height="0.809306" fill="#EFF0F0"/>
<rect x="229.033" y="103.073" width="21.3023" height="21.3023" rx="10.6511" fill="#F1F7F5"/>
<rect x="229.033" y="103.073" width="21.3023" height="21.3023" rx="10.6511" stroke="white" stroke-width="1.61861"/>
<path d="M240.832 111.426H237.388" stroke="#619E8C" stroke-width="0.825577"/>
<path d="M241.982 113.724L237.388 113.724" stroke="#619E8C" stroke-width="0.825577"/>
<path d="M244.231 108.1H237.34C236.124 108.1 235.138 109.085 235.138 110.301V119.365H242.03C243.246 119.365 244.231 118.38 244.231 117.164V108.1Z" stroke="#619E8C" stroke-width="0.825577"/>
<path d="M235.138 116.595H242.317C243.374 116.595 244.231 115.738 244.231 114.681V114.681" stroke="#619E8C" stroke-width="0.825577"/>
<rect x="206.373" y="103.203" width="21.0419" height="21.0419" rx="10.521" fill="#EBF2FF"/>
<rect x="206.373" y="103.203" width="21.0419" height="21.0419" rx="10.521" stroke="white" stroke-width="1.61861"/>
<path d="M216.894 107.79C216.894 109.374 215.657 110.659 214.131 110.659C212.605 110.659 211.368 109.374 211.368 107.79" stroke="#0564FF" stroke-width="0.809306"/>
<path d="M222.42 107.79C222.42 109.374 221.183 110.659 219.657 110.659C218.131 110.659 216.894 109.374 216.894 107.79" stroke="#0564FF" stroke-width="0.809306"/>
<path d="M211.368 107.79V113.738C211.368 116.79 213.842 119.264 216.894 119.264V119.264C219.946 119.264 222.42 116.79 222.42 113.738V107.79" stroke="#0564FF" stroke-width="0.809306"/>
<path d="M215.291 114.613C214.848 114.182 214.848 113.485 215.291 113.054C215.734 112.624 216.451 112.624 216.894 113.054C217.336 112.624 218.054 112.624 218.496 113.054C218.939 113.485 218.939 114.182 218.496 114.613L216.894 116.171L215.291 114.613Z" stroke="#0564FF" stroke-width="0.809306"/>
<rect x="183.713" y="103.203" width="21.0419" height="21.042" rx="10.521" fill="#F2F9EE"/>
<rect x="183.713" y="103.203" width="21.0419" height="21.042" rx="10.521" stroke="white" stroke-width="1.61861"/>
<path d="M188.716 113.725C188.716 110.677 191.187 108.207 194.234 108.207V108.207C197.281 108.207 199.752 110.677 199.752 113.725V113.725V113.725C199.752 116.772 197.281 119.242 194.234 119.242V119.242V119.242C191.187 119.242 188.716 116.772 188.716 113.725V113.725Z" stroke="#00B568" stroke-width="0.809306"/>
<path d="M194.953 110.847H193.514V113.005H191.356V114.444H193.514V116.602H194.953V114.444H197.111V113.005H194.953V110.847Z" stroke="#00B568" stroke-width="0.809306"/>
<rect x="161.052" y="103.203" width="21.0419" height="21.0419" rx="10.521" fill="#F5F3FF"/>
<rect x="161.052" y="103.203" width="21.0419" height="21.0419" rx="10.521" stroke="white" stroke-width="1.61861"/>
<g clip-path="url(#6API7tKlJu6KpnXoAYlCVd-clip8_1279_5313)">
<path d="M167.692 113.089L166.202 114.631C166 114.84 166 115.172 166.202 115.381L167.692 116.923C169.813 119.119 173.332 119.119 175.454 116.923L176.943 115.381C177.145 115.172 177.145 114.84 176.943 114.631L175.454 113.089C173.332 110.893 169.813 110.893 167.692 113.089Z" stroke="#5A05FF" stroke-width="0.809306"/>
<path d="M176.496 112.038C175.85 111.392 175.082 110.879 174.238 110.529C173.393 110.179 172.487 109.999 171.573 109.999C170.659 109.999 169.753 110.179 168.909 110.529C168.064 110.879 167.296 111.392 166.65 112.038" stroke="#5A05FF" stroke-width="0.809306"/>
<path d="M171.573 109.947V107.789" stroke="#5A05FF" stroke-width="0.809306"/>
<path d="M168.875 110.198L167.796 108.329" stroke="#5A05FF" stroke-width="0.809306"/>
<path d="M174.271 110.198L175.35 108.329" stroke="#5A05FF" stroke-width="0.809306"/>
<path d="M170.017 115.409C169.581 114.985 169.581 114.298 170.017 113.874C170.453 113.45 171.16 113.45 171.596 113.874C172.032 113.45 172.739 113.45 173.175 113.874C173.612 114.298 173.612 114.985 173.175 115.409L171.596 116.945L170.017 115.409Z" stroke="#5A05FF" stroke-width="0.809306"/>
</g>
<rect x="138.391" y="103.203" width="21.0419" height="21.0419" rx="10.521" fill="#FFF5F5"/>
<rect x="138.391" y="103.203" width="21.0419" height="21.0419" rx="10.521" stroke="white" stroke-width="1.61861"/>
<g clip-path="url(#6API7tKlJu6KpnXoAYlCVd-clip9_1279_5313)">
<path d="M148.381 111.504C147.408 111.504 146.348 110.396 145.356 110.396C144.275 110.396 143.399 111.273 143.399 112.354V112.774C143.399 113.032 143.444 113.288 143.532 113.531L145.352 118.535C145.509 118.966 145.919 119.254 146.378 119.254C146.899 119.254 147.347 118.886 147.449 118.376L147.719 117.029C147.782 116.713 148.059 116.486 148.381 116.486C148.703 116.486 148.98 116.713 149.043 117.029L149.313 118.376C149.415 118.886 149.863 119.254 150.384 119.254C150.843 119.254 151.253 118.966 151.41 118.535L153.23 113.531C153.318 113.288 153.363 113.032 153.363 112.774" stroke="#ED605A" stroke-width="0.809306"/>
<path d="M151.611 107.792C151.611 109.281 150.404 110.488 148.915 110.488" stroke="#ED605A" stroke-width="0.809306"/>
<path d="M154.308 110.488C152.818 110.488 151.611 109.281 151.611 107.792" stroke="#ED605A" stroke-width="0.809306"/>
<path d="M151.611 113.185C151.611 111.695 152.818 110.488 154.308 110.488" stroke="#ED605A" stroke-width="0.809306"/>
<path d="M148.915 110.488C150.404 110.488 151.611 111.695 151.611 113.185" stroke="#ED605A" stroke-width="0.809306"/>
</g>
<rect x="139.201" y="136.385" width="106.828" height="0.809306" fill="#EFF0F0"/>
<rect x="183.713" y="149.334" width="21.0419" height="21.0419" rx="10.521" fill="#F5F3FF"/>
<rect x="183.713" y="149.334" width="21.0419" height="21.0419" rx="10.521" stroke="white" stroke-width="1.61861"/>
<g clip-path="url(#6API7tKlJu6KpnXoAYlCVd-clip10_1279_5313)">
<path d="M190.353 159.22L188.863 160.762C188.661 160.971 188.661 161.303 188.863 161.512L190.353 163.054C192.474 165.25 195.993 165.25 198.114 163.054L199.604 161.512C199.806 161.303 199.806 160.971 199.604 160.762L198.114 159.22C195.993 157.024 192.474 157.024 190.353 159.22Z" stroke="#5A05FF" stroke-width="0.809306"/>
<path d="M199.157 158.169C198.51 157.522 197.743 157.01 196.898 156.66C196.053 156.31 195.148 156.13 194.234 156.13C193.319 156.13 192.414 156.31 191.569 156.66C190.725 157.01 189.957 157.522 189.311 158.169" stroke="#5A05FF" stroke-width="0.809306"/>
<path d="M194.234 156.078V153.92" stroke="#5A05FF" stroke-width="0.809306"/>
<path d="M191.536 156.329L190.457 154.46" stroke="#5A05FF" stroke-width="0.809306"/>
<path d="M196.931 156.329L198.01 154.46" stroke="#5A05FF" stroke-width="0.809306"/>
<path d="M192.678 161.54C192.242 161.116 192.242 160.429 192.678 160.005C193.114 159.581 193.821 159.581 194.257 160.005C194.693 159.581 195.4 159.581 195.836 160.005C196.272 160.429 196.272 161.116 195.836 161.54L194.257 163.075L192.678 161.54Z" stroke="#5A05FF" stroke-width="0.809306"/>
</g>
<rect x="161.052" y="149.334" width="21.0419" height="21.0419" rx="10.521" fill="#FFF5F5"/>
<rect x="161.052" y="149.334" width="21.0419" height="21.0419" rx="10.521" stroke="white" stroke-width="1.61861"/>
<g clip-path="url(#6API7tKlJu6KpnXoAYlCVd-clip11_1279_5313)">
<path d="M171.042 157.635C170.068 157.635 169.009 156.527 168.017 156.527C166.936 156.527 166.059 157.404 166.059 158.485V158.905C166.059 159.163 166.104 159.419 166.193 159.662L168.012 164.666C168.169 165.097 168.579 165.385 169.039 165.385C169.56 165.385 170.008 165.017 170.11 164.507L170.379 163.16C170.443 162.844 170.72 162.617 171.042 162.617C171.364 162.617 171.641 162.844 171.704 163.16L171.973 164.507C172.075 165.017 172.524 165.385 173.044 165.385C173.504 165.385 173.914 165.097 174.071 164.666L175.891 159.662C175.979 159.419 176.024 159.163 176.024 158.905" stroke="#ED605A" stroke-width="0.809306"/>
<path d="M174.272 153.923C174.272 155.412 173.065 156.619 171.576 156.619" stroke="#ED605A" stroke-width="0.809306"/>
<path d="M176.968 156.619C175.479 156.619 174.272 155.412 174.272 153.923" stroke="#ED605A" stroke-width="0.809306"/>
<path d="M174.272 159.315C174.272 157.826 175.479 156.619 176.968 156.619" stroke="#ED605A" stroke-width="0.809306"/>
<path d="M171.576 156.619C173.065 156.619 174.272 157.826 174.272 159.315" stroke="#ED605A" stroke-width="0.809306"/>
</g>
<rect x="138.391" y="149.334" width="21.0419" height="21.042" rx="10.521" fill="#F2F9EE"/>
<rect x="138.391" y="149.334" width="21.0419" height="21.042" rx="10.521" stroke="white" stroke-width="1.61861"/>
<path d="M143.395 159.855C143.395 156.808 145.865 154.338 148.913 154.338V154.338C151.96 154.338 154.43 156.808 154.43 159.855V159.855V159.855C154.43 162.903 151.96 165.373 148.913 165.373V165.373V165.373C145.865 165.373 143.395 162.903 143.395 159.855V159.855Z" stroke="#00B568" stroke-width="0.809306"/>
<path d="M149.632 156.978H148.193V159.136H146.035V160.575H148.193V162.733H149.632V160.575H151.79V159.136H149.632V156.978Z" stroke="#00B568" stroke-width="0.809306"/>
<rect x="139.201" y="182.516" width="106.828" height="0.809306" fill="#EFF0F0"/>
<rect x="206.373" y="195.464" width="21.0419" height="21.0419" rx="10.521" fill="#FFF5F5"/>
<rect x="206.373" y="195.464" width="21.0419" height="21.0419" rx="10.521" stroke="white" stroke-width="1.61861"/>
<g clip-path="url(#6API7tKlJu6KpnXoAYlCVd-clip12_1279_5313)">
<path d="M216.362 203.764C215.389 203.764 214.33 202.657 213.337 202.657C212.256 202.657 211.38 203.534 211.38 204.614V205.035C211.38 205.293 211.425 205.549 211.513 205.792L213.333 210.796C213.49 211.227 213.9 211.515 214.36 211.515C214.88 211.515 215.329 211.147 215.431 210.636L215.7 209.29C215.763 208.974 216.041 208.747 216.362 208.747C216.684 208.747 216.961 208.974 217.025 209.29L217.294 210.636C217.396 211.147 217.844 211.515 218.365 211.515C218.825 211.515 219.235 211.227 219.392 210.796L221.211 205.792C221.3 205.549 221.345 205.293 221.345 205.035" stroke="#ED605A" stroke-width="0.809306"/>
<path d="M219.593 200.053C219.593 201.542 218.386 202.749 216.896 202.749" stroke="#ED605A" stroke-width="0.809306"/>
<path d="M222.289 202.749C220.8 202.749 219.593 201.542 219.593 200.053" stroke="#ED605A" stroke-width="0.809306"/>
<path d="M219.593 205.445C219.593 203.956 220.8 202.749 222.289 202.749" stroke="#ED605A" stroke-width="0.809306"/>
<path d="M216.896 202.749C218.386 202.749 219.593 203.956 219.593 205.445" stroke="#ED605A" stroke-width="0.809306"/>
</g>
<rect x="183.713" y="195.464" width="21.0419" height="21.0419" rx="10.521" fill="#F5F3FF"/>
<rect x="183.713" y="195.464" width="21.0419" height="21.0419" rx="10.521" stroke="white" stroke-width="1.61861"/>
<g clip-path="url(#6API7tKlJu6KpnXoAYlCVd-clip13_1279_5313)">
<path d="M190.353 205.35L188.863 206.892C188.661 207.101 188.661 207.433 188.863 207.642L190.353 209.184C192.474 211.38 195.993 211.38 198.114 209.184L199.604 207.642C199.806 207.433 199.806 207.101 199.604 206.892L198.114 205.35C195.993 203.154 192.474 203.154 190.353 205.35Z" stroke="#5A05FF" stroke-width="0.809306"/>
<path d="M199.157 204.299C198.51 203.652 197.743 203.139 196.898 202.79C196.053 202.44 195.148 202.26 194.234 202.26C193.319 202.26 192.414 202.44 191.569 202.79C190.725 203.139 189.957 203.652 189.311 204.299" stroke="#5A05FF" stroke-width="0.809306"/>
<path d="M194.234 202.208V200.05" stroke="#5A05FF" stroke-width="0.809306"/>
<path d="M191.536 202.459L190.457 200.59" stroke="#5A05FF" stroke-width="0.809306"/>
<path d="M196.931 202.459L198.01 200.59" stroke="#5A05FF" stroke-width="0.809306"/>
<path d="M192.678 207.67C192.242 207.246 192.242 206.558 192.678 206.134C193.114 205.71 193.821 205.71 194.257 206.134C194.693 205.71 195.4 205.71 195.836 206.134C196.272 206.558 196.272 207.246 195.836 207.67L194.257 209.205L192.678 207.67Z" stroke="#5A05FF" stroke-width="0.809306"/>
</g>
<rect x="161.052" y="195.464" width="21.0419" height="21.0419" rx="10.521" fill="#EBF2FF"/>
<rect x="161.052" y="195.464" width="21.0419" height="21.0419" rx="10.521" stroke="white" stroke-width="1.61861"/>
<g clip-path="url(#6API7tKlJu6KpnXoAYlCVd-clip14_1279_5313)">
<path d="M166.043 209.762V209.762C166.043 210.73 166.828 211.515 167.796 211.515H172.652C173.621 211.515 174.406 210.73 174.406 209.762V209.762" stroke="#0564FF" stroke-width="0.809306"/>
<path d="M166.809 206.153L166.27 203.436C166.119 202.675 166.043 201.902 166.043 201.126V200.05M166.809 206.153L167.156 208.311H173.36V207.232C173.36 206.636 172.877 206.153 172.281 206.153H166.809Z" stroke="#0564FF" stroke-width="0.809306"/>
<path d="M166.599 204.788H172.113" stroke="#0564FF" stroke-width="0.809306"/>
<path d="M168.268 208.059L167.392 211.296" stroke="#0564FF" stroke-width="0.809306"/>
<path d="M172.163 208.059L173.04 211.296" stroke="#0564FF" stroke-width="0.809306"/>
<path d="M173.121 202.609C172.622 202.124 172.622 201.337 173.121 200.852C173.62 200.367 174.429 200.367 174.928 200.852C175.427 200.367 176.236 200.367 176.735 200.852C177.234 201.337 177.234 202.124 176.735 202.609L174.928 204.366L173.121 202.609Z" stroke="#0564FF" stroke-width="0.809306"/>
</g>
<rect x="138.391" y="195.464" width="21.0419" height="21.042" rx="10.521" fill="#F2F9EE"/>
<rect x="138.391" y="195.464" width="21.0419" height="21.042" rx="10.521" stroke="white" stroke-width="1.61861"/>
<path d="M143.395 205.985C143.395 202.938 145.865 200.468 148.913 200.468V200.468C151.96 200.468 154.43 202.938 154.43 205.985V205.985V205.985C154.43 209.033 151.96 211.503 148.913 211.503V211.503V211.503C145.865 211.503 143.395 209.033 143.395 205.985V205.985Z" stroke="#00B568" stroke-width="0.809306"/>
<path d="M149.632 203.107H148.193V205.266H146.035V206.705H148.193V208.863H149.632V206.705H151.79V205.266H149.632V203.107Z" stroke="#00B568" stroke-width="0.809306"/>
<rect x="139.201" y="228.646" width="106.828" height="0.809306" fill="#EFF0F0"/>
<rect x="229.294" y="241.595" width="21.0419" height="21.0419" rx="10.521" fill="#F5F3FF"/>
<rect x="229.294" y="241.595" width="21.0419" height="21.0419" rx="10.521" stroke="white" stroke-width="1.61861"/>
<g clip-path="url(#6API7tKlJu6KpnXoAYlCVd-clip15_1279_5313)">
<path d="M235.934 251.481L234.444 253.023C234.242 253.232 234.242 253.564 234.444 253.773L235.934 255.315C238.055 257.511 241.574 257.511 243.695 255.315L245.185 253.773C245.387 253.564 245.387 253.232 245.185 253.023L243.695 251.481C241.574 249.285 238.055 249.285 235.934 251.481Z" stroke="#5A05FF" stroke-width="0.809306"/>
<path d="M244.738 250.43C244.092 249.783 243.324 249.27 242.479 248.92C241.635 248.571 240.729 248.39 239.815 248.39C238.901 248.39 237.995 248.571 237.15 248.92C236.306 249.27 235.538 249.783 234.892 250.43" stroke="#5A05FF" stroke-width="0.809306"/>
<path d="M239.815 248.339V246.181" stroke="#5A05FF" stroke-width="0.809306"/>
<path d="M237.117 248.59L236.038 246.721" stroke="#5A05FF" stroke-width="0.809306"/>
<path d="M242.512 248.59L243.591 246.721" stroke="#5A05FF" stroke-width="0.809306"/>
<path d="M238.259 253.801C237.823 253.377 237.823 252.689 238.259 252.265C238.695 251.841 239.402 251.841 239.838 252.265C240.274 251.841 240.981 251.841 241.417 252.265C241.853 252.689 241.853 253.377 241.417 253.801L239.838 255.336L238.259 253.801Z" stroke="#5A05FF" stroke-width="0.809306"/>
</g>
<rect x="206.373" y="241.464" width="21.3023" height="21.3023" rx="10.6511" fill="#F1F7F5"/>
<rect x="206.373" y="241.464" width="21.3023" height="21.3023" rx="10.6511" stroke="white" stroke-width="1.61861"/>
<path d="M218.171 249.817H214.727" stroke="#619E8C" stroke-width="0.825577"/>
<path d="M219.322 252.115L214.727 252.115" stroke="#619E8C" stroke-width="0.825577"/>
<path d="M221.571 246.491H214.679C213.463 246.491 212.478 247.477 212.478 248.693V257.757H219.369C220.585 257.757 221.571 256.771 221.571 255.555V246.491Z" stroke="#619E8C" stroke-width="0.825577"/>
<path d="M212.478 254.987H219.656C220.714 254.987 221.571 254.13 221.571 253.072V253.072" stroke="#619E8C" stroke-width="0.825577"/>
<rect x="183.713" y="241.595" width="21.0419" height="21.0419" rx="10.521" fill="#EBF2FF"/>
<rect x="183.713" y="241.595" width="21.0419" height="21.0419" rx="10.521" stroke="white" stroke-width="1.61861"/>
<path d="M194.234 246.182C194.234 247.766 192.997 249.05 191.471 249.05C189.945 249.05 188.708 247.766 188.708 246.182" stroke="#0564FF" stroke-width="0.809306"/>
<path d="M199.76 246.182C199.76 247.766 198.523 249.05 196.997 249.05C195.471 249.05 194.234 247.766 194.234 246.182" stroke="#0564FF" stroke-width="0.809306"/>
<path d="M188.708 246.182V252.13C188.708 255.182 191.182 257.656 194.234 257.656V257.656C197.286 257.656 199.76 255.182 199.76 252.13V246.182" stroke="#0564FF" stroke-width="0.809306"/>
<path d="M192.631 253.004C192.188 252.574 192.188 251.876 192.631 251.446C193.073 251.015 193.791 251.015 194.234 251.446C194.676 251.015 195.394 251.015 195.836 251.446C196.279 251.876 196.279 252.574 195.836 253.004L194.234 254.563L192.631 253.004Z" stroke="#0564FF" stroke-width="0.809306"/>
<rect x="161.052" y="241.595" width="21.0419" height="21.042" rx="10.521" fill="#F2F9EE"/>
<rect x="161.052" y="241.595" width="21.0419" height="21.042" rx="10.521" stroke="white" stroke-width="1.61861"/>
<path d="M166.056 252.116C166.056 249.069 168.526 246.599 171.573 246.599V246.599C174.621 246.599 177.091 249.069 177.091 252.116V252.116V252.116C177.091 255.164 174.621 257.634 171.573 257.634V257.634V257.634C168.526 257.634 166.056 255.164 166.056 252.116V252.116Z" stroke="#00B568" stroke-width="0.809306"/>
<path d="M172.292 249.238H170.854V251.397H168.695V252.835H170.854V254.994H172.292V252.835H174.451V251.397H172.292V249.238Z" stroke="#00B568" stroke-width="0.809306"/>
<rect x="138.391" y="241.595" width="21.0419" height="21.0419" rx="10.521" fill="#FFF5F5"/>
<rect x="138.391" y="241.595" width="21.0419" height="21.0419" rx="10.521" stroke="white" stroke-width="1.61861"/>
<g clip-path="url(#6API7tKlJu6KpnXoAYlCVd-clip16_1279_5313)">
<path d="M148.381 249.895C147.408 249.895 146.348 248.788 145.356 248.788C144.275 248.788 143.399 249.664 143.399 250.745V251.166C143.399 251.424 143.444 251.68 143.532 251.923L145.352 256.926C145.509 257.358 145.919 257.645 146.378 257.645C146.899 257.645 147.347 257.278 147.449 256.767L147.719 255.42C147.782 255.105 148.059 254.878 148.381 254.878C148.703 254.878 148.98 255.105 149.043 255.42L149.313 256.767C149.415 257.278 149.863 257.645 150.384 257.645C150.843 257.645 151.253 257.358 151.41 256.926L153.23 251.923C153.318 251.68 153.363 251.424 153.363 251.166" stroke="#ED605A" stroke-width="0.809306"/>
<path d="M151.611 246.184C151.611 247.673 150.404 248.88 148.915 248.88" stroke="#ED605A" stroke-width="0.809306"/>
<path d="M154.308 248.88C152.818 248.88 151.611 247.673 151.611 246.184" stroke="#ED605A" stroke-width="0.809306"/>
<path d="M151.611 251.576C151.611 250.087 152.818 248.88 154.308 248.88" stroke="#ED605A" stroke-width="0.809306"/>
<path d="M148.915 248.88C150.404 248.88 151.611 250.087 151.611 251.576" stroke="#ED605A" stroke-width="0.809306"/>
</g>
<defs>
<clipPath id="6API7tKlJu6KpnXoAYlCVd-clip0_1279_5313">
<rect width="19.4233" height="19.4233" fill="white" transform="translate(19.4233 57.8828)"/>
</clipPath>
<clipPath id="6API7tKlJu6KpnXoAYlCVd-clip1_1279_5313">
<rect width="19.4233" height="19.4233" fill="white" transform="translate(19.4233 104.013)"/>
</clipPath>
<clipPath id="6API7tKlJu6KpnXoAYlCVd-clip2_1279_5313">
<rect width="19.4233" height="19.4233" fill="white" transform="translate(19.4233 150.144)"/>
</clipPath>
<clipPath id="6API7tKlJu6KpnXoAYlCVd-clip3_1279_5313">
<rect width="19.42" height="19.42" fill="white" transform="translate(19.4233 196.274)"/>
</clipPath>
<clipPath id="6API7tKlJu6KpnXoAYlCVd-clip4_1279_5313">
<rect width="19.4233" height="19.4233" fill="white" transform="translate(19.4233 242.404)"/>
</clipPath>
<clipPath id="6API7tKlJu6KpnXoAYlCVd-clip5_1279_5313">
<rect width="12.9489" height="12.9489" fill="white" transform="translate(210.419 61.1201)"/>
</clipPath>
<clipPath id="6API7tKlJu6KpnXoAYlCVd-clip6_1279_5313">
<rect width="12.9489" height="12.9489" fill="white" transform="translate(187.759 61.1201)"/>
</clipPath>
<clipPath id="6API7tKlJu6KpnXoAYlCVd-clip7_1279_5313">
<rect width="12.9489" height="12.9489" fill="white" transform="translate(142.438 61.1201)"/>
</clipPath>
<clipPath id="6API7tKlJu6KpnXoAYlCVd-clip8_1279_5313">
<rect width="12.9489" height="12.9489" fill="white" transform="translate(165.099 107.25)"/>
</clipPath>
<clipPath id="6API7tKlJu6KpnXoAYlCVd-clip9_1279_5313">
<rect width="12.9489" height="12.9489" fill="white" transform="translate(142.438 107.25)"/>
</clipPath>
<clipPath id="6API7tKlJu6KpnXoAYlCVd-clip10_1279_5313">
<rect width="12.9489" height="12.9489" fill="white" transform="translate(187.759 153.381)"/>
</clipPath>
<clipPath id="6API7tKlJu6KpnXoAYlCVd-clip11_1279_5313">
<rect width="12.9489" height="12.9489" fill="white" transform="translate(165.099 153.381)"/>
</clipPath>
<clipPath id="6API7tKlJu6KpnXoAYlCVd-clip12_1279_5313">
<rect width="12.9489" height="12.9489" fill="white" transform="translate(210.419 199.511)"/>
</clipPath>
<clipPath id="6API7tKlJu6KpnXoAYlCVd-clip13_1279_5313">
<rect width="12.9489" height="12.9489" fill="white" transform="translate(187.759 199.511)"/>
</clipPath>
<clipPath id="6API7tKlJu6KpnXoAYlCVd-clip14_1279_5313">
<rect width="12.9489" height="12.9489" fill="white" transform="translate(165.099 199.511)"/>
</clipPath>
<clipPath id="6API7tKlJu6KpnXoAYlCVd-clip15_1279_5313">
<rect width="12.9489" height="12.9489" fill="white" transform="translate(233.34 245.642)"/>
</clipPath>
<clipPath id="6API7tKlJu6KpnXoAYlCVd-clip16_1279_5313">
<rect width="12.9489" height="12.9489" fill="white" transform="translate(142.438 245.642)"/>
</clipPath>
</defs>
<style>@import url("https://remote-website.remote.com/fonts/bossa.css"); @import url("https://remote-website.remote.com/fonts/remote-sans.css"); @import url('https://fonts.googleapis.com/css2?family=Inter:wght@400;500;600&amp;display=swap');</style></svg>
