<svg width="54" height="54" viewBox="0 0 54 54" fill="none" xmlns="http://www.w3.org/2000/svg">
<g clip-path="url(#clip0_12461_136305)">
<path d="M54 27C54 12.0883 41.9117 0 27 0C12.0883 0 0 12.0883 0 27C0 41.9117 12.0883 54 27 54C41.9117 54 54 41.9117 54 27Z" fill="#5A05FF"/>
<path d="M40.5991 25.1465L40.5991 26.5188C40.5991 34.3159 34.277 40.6367 26.4799 40.6367V40.6367C18.6842 40.6367 12.3633 34.3171 12.3633 26.5215V26.5215C12.3633 18.7258 18.6829 12.4062 26.4785 12.4062L27.8544 12.4062" stroke="white" stroke-width="1.9"/>
<path d="M34.7503 18.2659C32.9892 20.027 30.1842 20.0773 28.4852 18.3783C26.7862 16.6793 26.8366 13.8744 28.5977 12.1133" stroke="white" stroke-width="2.0625"/>
<path d="M40.9026 24.4173C39.1415 26.1784 36.3366 26.2287 34.6376 24.5297C32.9386 22.8307 32.9889 20.0257 34.75 18.2646" stroke="white" stroke-width="2.0625"/>
<circle cx="22.375" cy="22.375" r="2.75" stroke="white" stroke-width="2.0625"/>
<circle cx="30.625" cy="30.625" r="1.375" stroke="white" stroke-width="2.0625"/>
<circle cx="21.3438" cy="32.6875" r="1.03125" stroke="white" stroke-width="2.0625"/>
</g>
<defs>
<clipPath id="clip0_12461_136305">
<rect width="54" height="54" fill="white"/>
</clipPath>
</defs>
</svg>
