<svg width="971" height="1365" viewBox="0 0 971 1365" fill="none" xmlns="http://www.w3.org/2000/svg">
<mask id="mask0_1_2" style="mask-type:alpha" maskUnits="userSpaceOnUse" x="0" y="0" width="971" height="1365">
<rect width="971" height="1365" transform="matrix(1 0 0 -1 0 1365)" fill="#F2F5F8"/>
</mask>
<g mask="url(#mask0_1_2)">
<path fill-rule="evenodd" clip-rule="evenodd" d="M1294.02 606.324C1294.02 901.189 1054.98 1140.22 760.117 1140.22C465.252 1140.22 226.217 901.189 226.217 606.324C226.217 311.459 465.252 72.4238 760.117 72.4238C1054.98 72.4238 1294.02 311.459 1294.02 606.324ZM251.409 768.191C240.611 734.244 233.119 698.82 229.32 662.341C259.535 659.174 291.931 655.762 326.156 652.139C259.464 668.884 243.812 723.058 251.409 768.191ZM1185.44 283.789C1206.54 311.579 1224.97 341.516 1240.38 373.141C1213.05 386.438 1183.75 400.65 1152.76 415.671C1209.74 377.854 1207 322.73 1185.44 283.789ZM1257.8 615.001L1257.39 614.995L1239.63 614.69C1228.22 614.493 1216.56 614.289 1204.68 614.076L1222.79 609.467C1268.06 587.059 1283.08 562.223 1284.7 507.24C1291.28 542.313 1294.44 578.581 1293.81 615.624C1282.12 615.418 1270.11 615.212 1257.8 615.001ZM1293.32 630.856C1291.63 668.215 1286.11 704.519 1277.14 739.451C1269.58 737.499 1261.88 735.515 1254.04 733.498L1237.18 729.155C1219.67 724.646 1201.54 719.978 1182.83 715.143C1251.5 722.987 1284.95 676.728 1293.32 630.856ZM831.299 1135.42C805.023 1138.9 778.15 1140.48 750.819 1140.02C740.513 1139.85 730.313 1139.36 720.147 1138.62C721.71 1117.89 723.339 1096.15 725.034 1073.51L726.217 1057.71L726.218 1057.7L727.428 1041.53C732.106 1110.37 784.165 1135.17 831.299 1135.42ZM1224.34 869.997C1206.96 900.532 1186.67 929.167 1163.84 955.515C1140.84 935.64 1116.21 914.357 1090.18 891.808C1147.48 929.272 1197.05 905.105 1224.34 869.997ZM1146.39 809.561C1211.01 833.095 1253.92 797.495 1272.49 756.301C1262.44 790.776 1249 823.773 1232.57 854.906L1206.1 840.977C1193.33 834.26 1180.17 827.342 1166.67 820.235C1160 816.722 1153.24 813.164 1146.39 809.561ZM769.462 72.6131C802.421 73.2117 834.641 76.7651 865.841 83.0266L858.991 116.911C854.998 136.655 850.844 157.197 846.565 178.464C850.68 109.445 802.21 78.4884 755.498 72.5438C760.141 72.5086 764.784 72.5438 769.462 72.6131ZM269.56 395.761C283.524 363.185 300.654 332.335 320.528 303.523C332.183 311.545 344.219 319.834 356.614 328.371L400.726 358.753C339.557 327.761 292.845 357.557 269.56 395.761ZM413.142 200.733C439.629 178.078 468.332 157.956 498.898 140.753C513.777 167.278 529.712 195.666 546.56 225.673C505.441 171.077 450.674 176.988 413.142 200.733ZM466.01 283.964C413.6 240.062 361.612 258.108 330.412 289.663C351.2 261.555 374.626 235.523 400.409 212.025L406.638 218.854C418.04 231.354 429.881 244.335 442.118 257.756C449.924 266.316 457.892 275.056 466.01 283.964ZM227.737 644.47C226.647 628.816 226.224 612.985 226.506 597.015C226.893 575.38 228.546 554.097 231.395 533.166C261.505 537.352 293.76 541.82 327.879 546.534C258.831 546.71 230.868 597.226 227.737 644.47ZM234.139 515.507C240.294 479.555 250.038 444.869 262.982 411.802C279.866 418.389 297.464 425.274 315.714 432.416L318.87 433.651C330.223 438.093 341.825 442.634 353.662 447.261C286.69 431.079 247.998 471.921 234.139 515.507ZM832.636 1036.74C853.353 1102.24 908.05 1114.66 952.335 1104.46C919.271 1117.23 884.624 1126.8 848.816 1132.78C843.751 1102.81 838.334 1070.69 832.636 1036.74ZM930.351 1008.28C965.279 1067.14 1020.54 1067.17 1060.6 1047.54C1031.72 1067.24 1000.84 1084.16 968.339 1097.95C962.937 1085.21 957.359 1072.04 951.616 1058.48L951.568 1058.36C944.725 1042.21 937.647 1025.49 930.351 1008.28ZM1017.2 958.998C1064.4 1008.39 1118.04 996.146 1152.48 968.214C1128.84 993.824 1102.74 1017.11 1074.53 1037.69C1056.63 1013.14 1037.46 986.824 1017.2 958.998ZM1226.9 502.15C1213.64 505.112 1200.05 508.149 1186.14 511.251C1250.41 487.224 1260.08 432.205 1247.66 388.724C1262.05 420.947 1273.37 454.86 1281.18 490.037C1263.79 493.913 1245.68 497.957 1226.9 502.15ZM1099.26 331.665C1146.18 281.994 1131.23 229.051 1101.62 196.054C1128.42 218.392 1152.97 243.298 1174.92 270.385L1133.76 303.735C1122.7 312.688 1111.35 321.879 1099.72 331.296L1099.69 331.316L1099.63 331.364L1099.26 331.665ZM1088.36 185.36C1069.64 209.316 1049.63 234.996 1028.49 262.154C1063.03 202.984 1036.26 154.684 999.645 129.18C1031.13 145.01 1060.81 163.866 1088.36 185.36ZM943.26 210.09C963.415 144.272 925.392 103.219 883.041 86.7549C918.216 95.0577 952.054 106.807 984.133 121.687C975.086 141.228 965.597 161.759 955.693 183.19L943.26 210.09ZM513.988 132.593C545.153 116.375 578.077 103.113 612.442 93.2276C620.849 122.461 629.854 153.734 639.386 186.837C611.633 124.15 556.409 117.712 513.988 132.593ZM301.955 880.198C283.946 850.121 268.821 818.18 256.932 784.655C283.331 775.325 311.431 765.369 341.066 754.868L348.738 752.15C287.886 783.6 284.685 838.899 301.955 880.198ZM392.882 842.065C340.823 886.355 349.934 940.67 375.822 976.693C351.622 951.575 329.849 924.101 310.925 894.657C336.497 878.264 363.898 860.675 392.882 842.065ZM439.616 935.554C444.921 930.107 450.296 924.588 455.739 919C414.936 973.914 436.076 1024.78 469.492 1054.08C440.122 1034.98 412.791 1013.07 387.817 988.758C397.216 979.11 406.904 969.156 416.87 958.919L439.616 935.554ZM504.368 1029.46C514.021 1013.49 524.028 996.928 534.355 979.823C506.989 1042.79 539.701 1087.71 579.413 1108.72C545.927 1096.69 513.953 1081.35 483.984 1063.2L504.368 1029.46ZM741.498 170.304C728.87 102.621 675.264 83.765 629.326 88.6905C664.114 79.931 700.238 74.5488 737.312 73.0005C738.039 89.9714 738.799 107.6 739.585 125.85C740.207 140.285 740.845 155.109 741.498 170.304ZM614.545 1056.74L625.879 1021.69C613.849 1089.65 657.396 1125.81 702.138 1136.96C665.486 1133.02 629.959 1125.36 595.91 1114.34C601.861 1095.95 608.081 1076.72 614.545 1056.74ZM1181.43 606.324C1181.43 839.011 992.804 1027.64 760.117 1027.64C527.43 1027.64 338.8 839.011 338.8 606.324C338.8 373.637 527.43 185.008 760.117 185.008C992.804 185.008 1181.43 373.637 1181.43 606.324Z" fill="#0061FF" fill-opacity="0.04"/>
<path d="M652.652 707.865C651.255 678.333 714.001 636.587 741.09 618.937C705.235 641.915 670.069 664.478 635.865 686.458C634.711 684.669 633.595 682.855 632.517 681.014C637.615 652.22 705.896 626.227 737.186 614.857C697.56 628.891 658.726 642.65 620.89 656.063C620.176 654.057 619.504 652.031 618.875 649.986C630.716 621.579 710.56 612.182 739.261 608.947L712.761 611.74C678.96 615.303 645.734 618.803 613.202 622.261C612.971 620.081 612.787 617.888 612.652 615.681C630.299 590.422 705.53 599.505 737.748 603.67C709.628 599.772 681.861 595.935 654.535 592.159L613.718 586.518C614.008 584.377 614.344 582.252 614.724 580.142C637.552 560.261 709.703 587.304 739.753 598.815C728.365 594.357 717.041 589.926 705.788 585.525L622.409 552.919C623.162 550.986 623.956 549.073 624.787 547.181C650.583 533.991 711.48 573.697 739.472 592.589C732.468 587.767 725.492 582.963 718.546 578.178L696.135 562.737L695.972 562.625C676.496 549.204 657.267 535.954 638.314 522.922C639.463 521.253 640.646 519.608 641.86 517.99C670.233 511.098 721.31 564.751 743.904 589.107C715.469 557.912 687.588 527.341 660.399 497.565C661.885 496.205 663.399 494.877 664.941 493.578C694.556 493.223 732.845 558.821 748.969 587.101C728.1 549.862 707.613 513.315 687.677 477.804C689.431 476.817 691.206 475.865 693.003 474.949C722.73 481.354 746.022 558.862 754.21 586.679C742.276 545.079 730.549 504.31 719.099 464.646C721.074 464.078 723.066 463.55 725.074 463.063C753.278 476.1 757.683 556.908 759.099 585.87C758.324 567.397 757.543 549.088 756.765 530.96L755.82 508.918C755.099 492.125 754.385 475.495 753.689 459.041C755.778 458.953 757.879 458.909 759.991 458.909C760.033 458.909 760.074 458.909 760.117 458.909C785.269 478.118 769.791 557.428 763.883 587.594L769.205 561.241C776.02 527.485 782.723 494.292 789.294 461.818C791.342 462.23 793.375 462.685 795.392 463.182C813.855 486.983 782.524 557.465 769.195 586.855C783.021 556.948 796.643 527.491 810.014 498.577L822.05 472.549C823.907 473.41 825.742 474.309 827.556 475.245C839.466 502.515 793.405 563.53 773.662 589.247C785.506 574.059 797.239 559.011 808.851 544.119L820.065 529.736C830.443 516.426 840.72 503.246 850.89 490.208C852.491 491.461 854.066 492.746 855.613 494.063C860.878 523.611 800.94 573.349 776.44 593.468C784.72 586.754 792.958 580.079 801.151 573.441C812.8 564.003 824.359 554.643 835.819 545.362C848.955 534.726 861.962 524.193 874.829 513.767C876.111 515.351 877.36 516.962 878.576 518.6C877.048 548.243 809.515 582.467 780.345 596.881L801.302 586.705C832.407 571.603 862.994 556.752 892.915 542.245C893.816 544.105 894.678 545.986 895.503 547.888C887.083 577.201 808.614 595.711 780.415 602.193C791.174 599.794 801.874 597.406 812.514 595.031L835.165 589.975L835.666 589.863C858.805 584.697 881.642 579.598 904.143 574.586C904.572 576.529 904.962 578.487 905.314 580.458C890.796 599.592 863.883 604.33 813.515 607.118L790.124 607.258C820.556 607.815 850.588 608.332 880.071 608.839L907.582 609.313C907.545 611.291 907.47 613.26 907.356 615.218C886.527 638.606 808.667 619.088 778.938 611.621C808.421 619.222 837.485 626.708 866.049 634.063L902.924 643.561C902.377 645.676 901.785 647.773 901.148 649.851C876.107 666.289 808.053 631.743 779.501 616.968C802.975 629.332 826.158 641.537 848.993 653.558L890.565 675.447C889.557 677.353 888.508 679.233 887.421 681.089C858.622 691.081 798.166 639.488 774.9 619.632L774.787 619.535C807.772 648.069 840.103 676.018 871.541 703.211C870.127 704.842 868.677 706.441 867.193 708.008C837.815 710.975 792.482 650.885 773.24 624.882C783.316 638.719 793.32 652.44 803.235 666.037C814.92 682.063 826.48 697.918 837.887 713.591C840.883 717.708 843.868 721.811 846.842 725.903C845.103 727.171 843.335 728.401 841.539 729.594C811.21 725.779 779.786 652.896 767.7 624.865L794.201 687.47L794.707 688.667L794.743 688.75C802.415 706.883 810.003 724.816 817.502 742.521C815.471 743.381 813.417 744.197 811.341 744.967C782.288 734.226 768.115 653.662 763.299 626.286L763.25 626.008C770.518 668.995 777.614 711.122 784.504 752.118C782.274 752.491 780.025 752.814 777.762 753.085C752.242 736.608 756.234 660.832 758.29 630.194C755.092 672.303 751.996 713.553 748.97 753.739C746.667 753.569 744.378 753.346 742.106 753.072C721.208 731.064 743.768 657.822 753.366 627.345C748.627 642.013 743.919 656.575 739.249 671.02L738.621 672.963C730.516 698.031 722.526 722.746 714.682 747.06C712.572 746.381 710.483 745.655 708.416 744.884C693.864 718.861 732.191 653.266 748.617 625.657C732.65 652.004 716.95 677.977 701.531 703.485L700.853 704.608C695.104 714.118 689.394 723.564 683.724 732.941C681.873 731.822 680.048 730.663 678.251 729.467C670.415 701.394 720.572 647.664 743.447 623.827C714.052 653.99 685.207 683.603 657.151 712.427C655.619 710.939 654.119 709.418 652.652 707.865Z" fill="#0061FF" fill-opacity="0.15"/>
<path fill-rule="evenodd" clip-rule="evenodd" d="M641.812 727.995C580.681 796.527 589.037 832.641 600.684 848.711C603.758 850.737 606.874 852.706 610.028 854.616C622.332 834.244 634.938 813.387 647.806 792.099L672.309 751.564C628.277 832.251 644.88 865.598 660.053 878.675C663.588 879.972 667.155 881.202 670.753 882.364L680.488 852.276L680.535 852.129C689.412 824.699 698.513 796.572 707.8 767.816C683.415 856.781 708.163 885.331 726.554 894.432C730.404 894.873 734.276 895.237 738.17 895.525L741.223 854.905L741.471 851.595C743.339 826.742 745.247 801.352 747.196 775.485C744.524 870.221 779.342 890.034 796.567 894.016C800.392 893.532 804.193 892.973 807.97 892.342L804.694 872.898C799.274 840.73 793.691 807.59 787.963 773.656C807.967 866.083 845.241 877.576 862.363 877.651C865.886 876.317 869.375 874.917 872.83 873.451C868.699 863.705 864.527 853.857 860.314 843.91L848.619 816.292L847.35 813.294C840.296 796.636 833.138 779.732 825.881 762.61C865.355 845.377 901.931 851.661 921.343 847.141C924.412 845.076 927.438 842.953 930.422 840.774C907.642 809.488 883.958 776.985 859.543 743.508C916.683 815.034 953.589 813.103 971.434 804.448C973.97 801.734 976.455 798.972 978.887 796.163C965.027 784.189 950.918 771.99 936.579 759.587L887.859 717.441C959.835 774.346 995.396 763.915 1010.79 751.358C1012.65 748.137 1014.45 744.878 1016.19 741.581C981.897 723.559 946.321 704.843 909.668 685.535C992.896 724.703 1025.17 705.967 1037.32 689.894C1038.4 686.268 1039.42 682.614 1040.36 678.931C1027.65 675.659 1014.78 672.347 1001.75 668.995C976.318 662.453 950.296 655.76 923.773 648.914C1014.01 667.821 1041.02 641.135 1049.04 622.017C1049.22 618.623 1049.33 615.214 1049.39 611.789C1035.48 611.543 1021.38 611.292 1007.1 611.038L973.83 610.445C962.336 610.24 950.737 610.035 939.039 609.831L961.093 608.072C1008.41 599.434 1034.51 588.675 1044.7 554.307C1044.05 550.724 1043.33 547.165 1042.54 543.629C1026.11 547.297 1009.4 551.03 992.437 554.821L925.074 569.869C1013.64 545.81 1026.18 510.561 1025.12 490.388C1023.62 486.958 1022.04 483.562 1020.41 480.203C985.591 497.141 949.417 514.705 912.13 532.791C992.758 489.121 997.182 452.3 991.713 433.197C989.501 430.245 987.234 427.339 984.914 424.477C971.673 435.194 958.203 446.1 944.528 457.172L891.377 500.216C959.999 439.446 956.127 402.67 946.538 385.331C943.71 382.944 940.836 380.61 937.917 378.331C920.135 401.129 901.869 424.566 883.163 448.568L879.075 453.814L879.034 453.866L863.941 473.234C917.101 398.469 904.848 363.467 891.483 348.705C888.154 347.004 884.789 345.364 881.388 343.789C871.13 366.007 860.608 388.756 849.868 411.975L849.83 412.057L830.876 453.042C865.69 367.939 845.2 336.63 828.417 325.291C824.706 324.39 820.966 323.56 817.201 322.803L808.515 365.809L808.469 366.04C803.538 390.451 798.5 415.395 793.38 440.8C807.469 349.62 779.018 324.1 759.315 317.122C755.347 317.129 751.399 317.217 747.47 317.382C749.15 356.053 750.864 396.252 752.613 437.634C744.156 343.279 707.948 327.496 690.702 325.425C687.02 326.328 683.365 327.3 679.739 328.341C690.446 365.574 701.57 404.231 713.041 444.036C683.652 356.952 647.786 346.576 627.864 348.871C624.582 350.555 621.336 352.298 618.128 354.102L677.022 459.092C628.623 381.101 591.618 378.914 572.921 385.51C570.127 387.873 567.378 390.288 564.676 392.755C575.712 404.857 586.922 417.152 598.295 429.626C613.83 446.664 629.669 464.037 645.787 481.712C580.94 416.62 544.414 422.851 527.721 433.514C525.534 436.44 523.401 439.409 521.323 442.419L544.85 458.624C569.428 475.554 594.664 492.936 620.497 510.699C542.4 461.871 508.185 476.556 494.324 490.902C492.846 494.283 491.432 497.698 490.082 501.145C526.17 515.287 563.649 529.952 602.241 545.033C514.8 515.28 484.903 538.115 474.711 555.724C474.045 559.469 473.452 563.238 472.932 567.031C501.632 571.012 531.168 575.09 561.411 579.265L592.216 583.518C500.265 575.117 476.592 605.467 470.844 625.657C471.092 629.505 471.416 633.332 471.813 637.137C488.219 635.407 504.904 633.645 521.836 631.857C544.647 629.448 567.908 626.991 591.548 624.501C497.776 638.809 484.286 675.762 483.275 692.906C484.382 696.463 485.556 699.991 486.795 703.489C523.31 690.568 561.251 677.126 600.306 663.267C515.065 697.886 506.886 734.26 510.369 753.901C512.224 757.04 514.138 760.141 516.108 763.202C548.701 742.265 582.546 720.527 617.436 698.164C542.41 751.131 542.438 788.193 550.139 806.464C552.652 809.101 555.214 811.691 557.824 814.232C576.629 794.913 595.94 775.089 615.686 754.818L641.812 727.995ZM634.637 687.118C639.913 695.314 645.963 702.983 652.717 709.983C652.685 709.787 652.657 709.59 652.632 709.392C653.838 710.649 655.065 711.884 656.313 713.098C656.228 713.186 656.143 713.273 656.058 713.361C663.023 720.115 670.656 726.236 678.816 731.548C678.737 731.353 678.661 731.157 678.588 730.96C680.057 731.923 681.544 732.86 683.048 733.772C682.986 733.875 682.924 733.977 682.861 734.08C691.233 739.146 700.132 743.438 709.488 746.78C709.371 746.618 709.256 746.454 709.144 746.288C710.817 746.897 712.504 747.478 714.204 748.028C714.169 748.14 714.133 748.251 714.097 748.363C723.558 751.423 733.478 753.569 743.678 754.66C743.535 754.54 743.393 754.419 743.253 754.296C745.069 754.501 746.896 754.673 748.731 754.812L748.708 755.117C749.959 755.21 751.211 755.289 752.462 755.352C754.06 755.432 755.658 755.484 757.256 755.504C764.889 755.644 772.381 755.222 779.697 754.238C779.553 754.167 779.41 754.095 779.267 754.021C781.036 753.794 782.795 753.536 784.544 753.247C784.558 753.331 784.572 753.415 784.586 753.499C794.576 751.845 804.214 749.172 813.429 745.619C813.321 745.593 813.212 745.566 813.104 745.538C814.694 744.933 816.271 744.301 817.835 743.643L817.897 743.789C826.972 739.955 835.59 735.241 843.645 729.718C843.601 729.718 843.558 729.717 843.514 729.716C844.848 728.814 846.165 727.89 847.467 726.945C847.483 726.967 847.498 726.988 847.514 727.01C854.436 721.941 860.896 716.33 866.823 710.2C892.945 683.371 909.035 646.727 909.035 606.324C909.035 524.079 842.363 457.407 760.118 457.407C695.238 457.407 640.048 498.898 619.636 556.795C616.834 564.705 614.673 572.93 613.215 581.407C613.24 581.381 613.265 581.356 613.289 581.33C613.009 582.992 612.755 584.664 612.53 586.344C612.5 586.34 612.471 586.336 612.442 586.332C611.668 592.172 611.175 598.081 611.07 604.133C611 608.565 611.14 612.998 611.422 617.359C611.475 617.265 611.529 617.171 611.583 617.077C611.709 618.839 611.865 620.592 612.052 622.336C611.994 622.342 611.937 622.349 611.879 622.355C612.934 632.521 615.009 642.371 618.034 651.869C618.076 651.731 618.119 651.594 618.163 651.457C618.686 653.103 619.237 654.738 619.816 656.359C619.738 656.387 619.66 656.414 619.582 656.442C622.889 665.764 627.11 674.7 632.104 683.072C632.117 682.891 632.132 682.709 632.15 682.528C633.04 684.02 633.955 685.494 634.895 686.952C634.809 687.007 634.723 687.062 634.637 687.118Z" fill="#0061FF" fill-opacity="0.08"/>
<path fill-rule="evenodd" clip-rule="evenodd" d="M530.593 958.027C517.863 944.957 485.254 900.114 544.09 828.322C517.34 855.812 491.641 882.181 467.237 907.253C463.813 903.919 460.446 900.527 457.137 897.078C447.725 881.453 426.154 830.47 499.594 773.867C467.292 794.583 436.322 814.46 406.858 833.39C404.27 829.367 401.749 825.297 399.297 821.182C393.59 803.803 383.733 748.741 468.323 710.159L425.749 725.242C404.724 732.69 384.263 739.937 364.437 746.969C362.823 742.417 361.286 737.827 359.827 733.204C358.151 714.581 360.83 657.437 452.319 639.345C414.147 643.384 377.552 647.248 342.745 650.901C342.229 645.955 341.8 640.984 341.457 635.989C344.104 616.982 359.963 560.088 453.515 564.557C415.52 559.289 379.032 554.231 344.367 549.454C345.043 544.522 345.804 539.618 346.65 534.743C353.585 517.484 381.98 467.812 471.806 494.271C436.057 480.258 401.781 466.841 369.187 454.09C370.959 449.566 372.807 445.081 374.729 440.635C385.499 425.775 424.268 385.576 505.151 431.583C483.53 416.686 462.499 402.201 442.148 388.182L414.413 369.071C417.141 365.12 419.934 361.218 422.792 357.366C436.659 345.437 483.264 315.733 551.371 378.604C528.735 353.752 506.879 329.814 485.944 306.883L477.123 297.223C480.662 293.992 484.257 290.821 487.906 287.711C504.092 279.206 556.326 260.669 608.424 337.34C600.331 322.922 592.38 308.751 584.581 294.849L568.349 265.917C563.674 257.586 559.059 249.362 554.506 241.253C558.699 238.895 562.938 236.607 567.22 234.391C585.069 229.661 640.782 223.101 674.166 309.831C666.165 282.077 658.422 255.196 650.951 229.26L643.665 203.964C648.431 202.595 653.232 201.306 658.066 200.103C677.15 199.573 734.122 206.02 746.484 298.117C744.835 259.794 743.256 223.013 741.747 188.085C746.894 187.869 752.064 187.745 757.257 187.717C780.69 192.48 830.869 213.304 820.879 303.886C828.458 266.302 835.757 230.224 842.672 195.93C847.631 196.926 852.559 198.01 857.453 199.18C874.435 207.443 920.84 238.971 889.364 326.295C905.47 291.483 920.911 258.071 935.582 226.305C940.061 228.378 944.495 230.528 948.886 232.753C963.195 244.629 1000.15 285.664 949.724 363.161C958.389 352.045 966.921 341.095 975.316 330.32L980.423 323.766C993.079 307.523 1005.42 291.691 1017.41 276.303C1021.24 279.289 1025.01 282.338 1028.72 285.451C1039.87 300.126 1066.43 348.331 999.848 412.376C1029.65 388.261 1058.25 365.092 1085.43 343.078C1088.46 346.818 1091.43 350.611 1094.33 354.458C1101.91 371.233 1117.25 424.451 1037.73 471.898C1072.22 455.122 1105.35 439.049 1136.83 423.78C1138.96 428.158 1141.02 432.579 1143 437.041C1146.66 455.395 1149.73 511.444 1061.37 539.58C1079.09 535.627 1096.47 531.744 1113.48 527.943L1118.66 526.784C1135.78 522.958 1152.52 519.218 1168.86 515.573C1169.92 520.326 1170.89 525.11 1171.79 529.923C1166.46 573.49 1148.46 592.837 1098.2 609.197L1077.9 612.434C1112.95 613.066 1146.6 613.662 1178.78 614.224C1178.7 618.593 1178.56 622.946 1178.35 627.281C1173.44 645.905 1151.13 699.146 1059.01 683.986C1077 688.606 1094.62 693.144 1111.86 697.584L1116.8 698.856C1133.47 703.147 1149.77 707.344 1165.7 711.434C1164.46 716.259 1163.14 721.05 1161.74 725.806C1152.7 742.158 1118.9 786.848 1033.23 750.825C1067.16 768.689 1099.73 785.853 1130.69 802.141C1128.42 806.457 1126.07 810.729 1123.65 814.954C1111.18 828.553 1068.35 863.413 993.411 809.08C1022.43 834.173 1050.26 858.251 1076.69 881.14C1073.54 884.785 1070.32 888.376 1067.04 891.91C1051.87 902.273 1002.36 926.501 941.704 856.676L949.238 867.007C969.132 894.285 988.289 920.554 1006.56 945.689C1002.68 948.525 998.743 951.295 994.759 953.999C977.64 960.733 923.577 973.437 880.219 891.572L887.365 908.451L887.439 908.624L887.854 909.604C900.067 938.448 911.859 966.299 923.17 992.996C918.636 994.919 914.062 996.763 909.449 998.529C890.761 1001.24 834.478 1001.37 811.03 911.73C814.618 933.083 818.129 953.967 821.554 974.313C824.193 989.98 826.78 1005.33 829.315 1020.32C824.353 1021.15 819.361 1021.9 814.342 1022.55C794.86 1020.91 738.043 1008.03 736.53 915.107L735.076 934.414L735.07 934.495C732.713 965.773 730.438 995.978 728.283 1024.93C723.157 1024.55 718.056 1024.08 712.983 1023.52C694.93 1017.47 643.829 991.939 664.598 901.036C652.806 937.538 641.469 972.571 630.727 1005.89C626.024 1004.37 621.358 1002.77 616.729 1001.09C601.061 991.139 558.701 954.736 599.771 871.416C579.944 904.231 560.886 935.75 542.774 965.695C538.667 963.207 534.606 960.651 530.593 958.027ZM1050.25 606.898C1050.25 767.394 920.147 897.501 759.652 897.501C599.156 897.501 469.049 767.394 469.049 606.898C469.049 446.403 599.156 316.296 759.652 316.296C920.147 316.296 1050.25 446.403 1050.25 606.898Z" fill="#0061FF" fill-opacity="0.06"/>
<path fill-rule="evenodd" clip-rule="evenodd" d="M1391.03 606.323C1391.03 954.766 1108.56 1237.23 760.118 1237.23C411.676 1237.23 129.207 954.766 129.207 606.323C129.207 257.881 411.676 -24.5878 760.118 -24.5878C1108.56 -24.5878 1391.03 257.881 1391.03 606.323ZM159.112 797.564C146.344 757.461 137.515 715.634 133.013 672.506C157.881 669.903 185.212 667.018 214.723 663.887C166.991 679.119 145.148 731.57 159.112 797.564ZM1262.61 225.286C1287.55 258.106 1309.32 293.461 1327.51 330.855L1319.37 334.805C1299.1 344.636 1277.12 355.305 1253.57 366.737C1293.28 336.8 1296.8 281.289 1262.61 225.286ZM218.769 929.834C197.523 894.339 179.654 856.558 165.655 817.018C173.816 814.13 182.256 811.142 190.966 808.056L243.109 789.579C200.337 815.083 190.769 870.136 218.769 929.834ZM771.151 -24.1982C810.09 -23.5291 848.149 -19.3431 885.012 -11.9206L881.434 5.76457C877.465 25.3733 873.219 46.3565 868.726 68.6371C868.621 18.1918 823.843 -18.2525 754.655 -24.2686C760.142 -24.3391 765.629 -24.3039 771.151 -24.1982ZM1336.09 349.254C1353.12 387.351 1366.48 427.384 1375.7 468.93C1360.87 472.247 1345.13 475.759 1328.55 479.459L1295.5 486.835C1341.12 466.502 1357.09 412.504 1336.09 349.254ZM1379.88 489.333C1387.66 530.737 1391.39 573.55 1390.61 617.311C1367.61 616.924 1342.53 616.502 1315.55 616.01L1331.1 610.205C1369.86 582.555 1381.71 553.182 1379.88 489.333ZM1390.05 635.287C1388.04 679.436 1381.5 722.353 1370.91 763.582L1345.39 757.011C1328.35 752.627 1310.31 747.982 1291.35 743.108C1341.65 745.711 1380.41 703.392 1390.05 635.287ZM252.466 232.215C276.983 198.972 304.7 168.262 335.126 140.472L369.694 178.35C376.444 185.747 383.391 193.363 390.526 201.188C350.603 171.604 296.399 183.775 252.466 232.215ZM308.464 295.185C261.998 275.063 213 298.948 180.534 357.555C197.066 319.106 217.291 282.626 240.788 248.573C249.284 254.427 258.133 260.52 267.317 266.843C280.376 275.835 294.111 285.292 308.464 295.185ZM249.3 406.418C199.915 397.588 156.509 433.962 138.676 499.042C145.957 456.582 157.494 415.564 172.76 376.482C196.046 385.592 221.653 395.619 249.3 406.418ZM129.671 595.325C130.128 569.785 132.098 544.598 135.475 519.903C160.238 523.35 187.463 527.114 216.869 531.16C166.604 534.431 132.977 581.605 131.148 651.364C129.847 632.895 129.354 614.18 129.671 595.325ZM844.209 1231.42C813.15 1235.53 781.422 1237.4 749.132 1236.83C736.962 1236.62 724.897 1236.06 712.902 1235.18L713.718 1224.27L713.722 1224.21C715.361 1202.27 717.132 1178.56 719.058 1153.25C725.636 1203.17 774.739 1233.84 844.209 1231.42ZM1223.67 1033.86C1195.75 1064.14 1164.9 1091.65 1131.59 1115.96C1116.85 1095.77 1100.67 1073.57 1083.19 1049.58C1119.56 1083.35 1174.71 1077.2 1223.67 1033.86ZM1174.92 965.118C1218.12 989.813 1270.56 971.239 1308.55 917.803C1288.01 953.896 1264.05 987.737 1237.07 1018.87C1229.06 1011.94 1220.72 1004.72 1212.06 997.229C1200.26 987.027 1187.88 976.312 1174.92 965.118ZM1245.59 861.764C1294.23 876.222 1340.17 846.286 1365.43 783.598C1353.57 824.264 1337.67 863.242 1318.29 900.038C1296.17 888.394 1271.86 875.589 1245.59 861.764ZM1186.35 261.168C1218.22 223.105 1209.29 168.333 1163.56 121.616C1195.22 148 1224.24 177.443 1250.2 209.456L1235.51 221.351C1220.15 233.782 1203.72 247.086 1186.35 261.168ZM1097.36 173.785C1119.91 129.39 1098.59 77.8896 1043.12 42.6051C1080.3 61.3203 1115.37 83.5877 1147.87 108.987L1097.36 173.785ZM469.318 46.6514C506.146 27.4784 545.049 11.8247 585.64 0.145719C592.57 24.1716 600.167 50.591 608.363 79.1551C585.464 34.8316 530.908 22.0962 469.318 46.6514ZM491.724 127.948C459.539 90.1309 403.998 89.8151 350.181 127.174C381.486 100.368 415.395 76.5878 451.519 56.2902C457.786 67.4563 464.367 79.1848 471.247 91.4481L491.724 127.948ZM229.427 946.966C250.461 933.493 273.606 918.647 298.58 902.606C262.772 936.975 265.692 992.451 306.072 1043.88C277.51 1014.23 251.798 981.757 229.427 946.966ZM377.582 999.276C350.357 1040.86 365.728 1094.26 416.732 1135.31C382.049 1112.76 349.759 1086.87 320.248 1058.13C326.654 1051.55 333.292 1044.74 340.155 1037.69L354.595 1022.86C362.026 1015.23 369.692 1007.37 377.582 999.276ZM476.388 1075.75C459.258 1122.65 486.835 1171.37 546.631 1199.86C507.06 1185.61 469.318 1167.53 433.862 1146.07C437.211 1140.54 440.645 1134.86 444.162 1129.05L453.843 1113.03C461.048 1101.11 468.568 1088.67 476.388 1075.75ZM851.244 1147.27C869.253 1193.95 922.614 1212.6 987.194 1194.83C948.115 1209.92 907.207 1221.21 864.892 1228.29C863.478 1219.88 862.015 1211.2 860.505 1202.25L858.392 1189.71C856.105 1176.14 853.719 1161.98 851.244 1147.27ZM974.039 1111.49C1001.93 1152.65 1057.3 1158.98 1115.12 1127.61C1081.01 1150.86 1044.53 1170.87 1006.12 1187.16C1001.83 1177.05 997.357 1166.5 992.712 1155.53L992.672 1155.44L991.569 1152.84C988.181 1144.84 984.702 1136.63 981.13 1128.21C978.806 1122.72 976.442 1117.15 974.039 1111.49ZM990.29 108.353C1002.21 58.8927 969.713 14.5329 905.413 -7.48803C946.954 2.32679 986.878 16.222 1024.76 33.741L1018.23 47.885C1009.54 66.6849 1000.21 86.8945 990.29 108.353ZM736.715 58.3656C724.439 9.67883 672.944 -15.2979 605.584 -5.23653C646.704 -15.5796 689.371 -21.9115 733.198 -23.7404C734.253 1.23626 735.414 28.6746 736.715 58.3656ZM586.347 1143.95L591.409 1128.31C585.676 1178.26 625.001 1219.46 691.622 1233.25C648.286 1228.57 606.323 1219.49 566.119 1206.51C570.075 1194.3 574.227 1181.45 578.569 1168.02C581.097 1160.19 583.69 1152.17 586.347 1143.95ZM1294.12 606.323C1294.12 901.245 1055.04 1140.33 760.118 1140.33C465.197 1140.33 226.116 901.245 226.116 606.323C226.116 311.402 465.197 72.3214 760.118 72.3214C1055.04 72.3214 1294.12 311.402 1294.12 606.323Z" fill="#0061FF" fill-opacity="0.02"/>
<path fill-rule="evenodd" clip-rule="evenodd" d="M1 632.111C3.80942 566.047 22.8949 517.166 50.4923 509.237L37.8595 507.485C32.2341 506.705 26.9533 505.972 22.0278 505.291C16.8474 504.573 12.0594 503.913 7.67582 503.311C10.1601 485.182 13.2842 467.258 17.0246 449.561C35.03 387.658 64.0703 347.249 92.8424 346.328C76.9614 340.095 63.4739 334.82 52.6233 330.594C59.1519 313.921 66.2531 297.536 73.9025 281.462C105.237 226.993 142.27 195.371 170.121 201.041C156.06 191.365 144.133 183.153 134.554 176.561C144.586 162.025 155.111 147.856 166.106 134.078C208.685 88.6167 251.628 66.5077 277.263 78.2692C268.909 69.0861 261.465 60.9318 255.014 53.8637C252.595 51.2138 250.315 48.7169 248.18 46.3752C261.206 34.4849 274.647 23.0426 288.479 12.0723C340.27 -22.7126 387.147 -34.6293 409.45 -17.3799C401.118 -32.238 394.028 -44.8656 388.331 -54.9951C403.929 -63.7656 419.869 -72.0024 436.125 -79.678C494.972 -102.015 543.749 -103.082 561.791 -81.1229C559.164 -90.2532 556.764 -98.6045 554.596 -106.145L549.872 -122.559C567.489 -127.621 585.37 -132.062 603.487 -135.858C666.81 -143.981 716.684 -133.651 729.398 -108.281L728.685 -124.707L728.673 -124.958C728.24 -134.915 727.856 -143.727 727.539 -151.32C738.296 -151.772 749.11 -152 759.977 -152C768.338 -152 776.668 -151.865 784.964 -151.596C850.044 -144.607 895.581 -123.049 901.825 -94.8421L905.675 -113.887C907.432 -122.57 909 -130.321 910.366 -137.11C928.642 -133.438 946.681 -129.111 964.457 -124.152C1023.74 -102.51 1061.33 -71.4313 1060.57 -42.9893C1067.72 -58.4329 1073.79 -71.5578 1078.67 -82.0924C1095.19 -74.441 1111.4 -66.2119 1127.25 -57.4326C1178.94 -23.1352 1207.73 15.301 1200.42 42.4576C1210.88 29.0213 1219.76 17.6482 1226.92 8.49035C1241.02 19.4958 1254.71 30.9866 1267.99 42.9396C1310.53 87.9245 1329.85 131.823 1316.6 156.577C1327.49 147.78 1337.02 140.058 1345.08 133.527L1350.12 129.444C1361.3 143.234 1372.01 157.424 1382.22 171.988C1413.85 225.749 1422.97 273.185 1404.44 294.475C1411.65 290.979 1418.35 287.724 1424.51 284.728L1424.55 284.708L1426.74 283.65C1432.8 280.705 1438.31 278.027 1443.25 275.639C1451.08 291.745 1458.37 308.17 1465.07 324.888C1484.02 385.326 1482.24 434.439 1459.17 451.334L1480.36 446.611C1488.13 444.879 1495.12 443.319 1501.28 441.939C1504.84 457.994 1507.9 474.239 1510.44 490.659C1514.63 542.385 1511.14 577.627 1489.49 612.309L1480.34 619.943L1504.92 620.375C1510.08 620.465 1514.86 620.546 1519.24 620.618C1518.94 638.166 1518.04 655.57 1516.57 672.81C1506.21 737.161 1482.26 781.373 1453.75 786.019C1461.16 787.928 1468.07 789.703 1474.46 791.342C1482.29 793.354 1489.33 795.163 1495.54 796.769C1490.99 814.501 1485.81 831.983 1480.04 849.19C1455.38 907.267 1422.33 943.24 1393.95 940.979C1409.04 948.908 1421.84 955.628 1432.13 961.048C1423.71 977.019 1414.74 992.653 1405.24 1007.93C1368.38 1057.77 1328.5 1084.59 1301.73 1075.96C1314.6 1087.09 1325.53 1096.54 1334.32 1104.16C1322.6 1117.7 1310.41 1130.81 1297.77 1143.49C1250.7 1183.65 1205.92 1200.7 1181.89 1186.24C1191.91 1200.01 1200.42 1211.69 1207.28 1221.09C1192.85 1231.62 1178.04 1241.66 1162.87 1251.17C1107.55 1280.02 1059.7 1286.7 1039.36 1267.12C1043.28 1276.35 1046.84 1284.76 1050.04 1292.3C1052.27 1297.57 1054.32 1302.41 1056.18 1306.81C1039.6 1313.83 1022.73 1320.29 1005.58 1326.15C944.579 1341.67 894.473 1337.35 878.961 1313.83C881.8 1330.6 884.195 1344.83 886.116 1356.32C867.789 1359.38 849.24 1361.79 830.493 1363.51C765.382 1364.48 716.113 1348.48 706.324 1321.64L705.727 1329.62C704.712 1343.19 703.835 1354.91 703.114 1364.65C684.257 1363.25 665.592 1361.17 647.144 1358.42C584.434 1344.16 542.438 1317.69 539.631 1289.1C536.65 1298.31 533.935 1306.72 531.487 1314.3C529.621 1320.07 527.91 1325.35 526.354 1330.13C509.023 1324.53 491.965 1318.33 475.203 1311.54C419.033 1283.51 385.369 1248.5 389.4 1220.43C384.202 1229.05 379.459 1236.89 375.209 1243.92L370.742 1251.31C369.472 1253.41 368.255 1255.42 367.095 1257.34C351.834 1248.1 336.924 1238.33 322.391 1228.07C274.619 1188.26 250.107 1146.8 260.379 1120.56C257.325 1123.7 254.391 1126.71 251.581 1129.59L246.321 1134.99C240.327 1141.15 234.967 1146.66 230.257 1151.47C217.665 1139.21 205.496 1126.51 193.776 1113.41C155.995 1063.75 141.33 1017.64 157.212 994.309C147.841 1000.32 139.405 1005.73 131.956 1010.51L120.858 1017.63C111.338 1002.83 102.318 987.681 93.8218 972.201C67.9249 914.766 63.9124 866.07 84.7523 846.701L44.0357 861.121C38.1063 844.392 32.7463 827.393 27.9798 810.148C15.8216 747.414 23.0509 696.809 47.6782 682.56C30.719 684.336 16.3148 685.858 4.73929 687.093C2.84626 668.948 1.59231 650.613 1 632.111ZM152.851 970.283C129.002 930.425 108.953 888.071 93.2295 843.676C106.35 839.051 120.91 833.888 136.809 828.245L147.981 824.279L148.089 824.241L154.187 822.076C120.56 846.103 120.033 905.66 152.851 970.283ZM85.878 821.866C71.5619 776.872 61.6425 729.945 56.6127 681.61C67.0987 680.509 78.4542 679.307 90.6297 678.02L120.912 674.821C82.3957 690.827 68.3257 749.891 85.878 821.866ZM1405.98 319.064C1425.08 361.77 1440.07 406.658 1450.41 453.304C1432.05 457.384 1410.91 462.098 1387.31 467.375C1423.68 447.394 1431.17 387.767 1405.98 319.064ZM1455.09 476.099C1463.81 522.57 1468 570.587 1467.12 619.697C1451.73 619.446 1434.45 619.14 1415.44 618.804L1408.23 618.677L1420.79 611.852C1455.54 575.97 1459.59 537.978 1455.09 476.099ZM900.031 -86.0473C858.701 -94.3502 816.033 -99.0633 772.346 -99.8381C766.158 -99.9074 760.003 -99.9074 753.849 -99.9074C831.196 -95.4748 883.569 -65.1511 887.227 -22.6565C892.011 -46.3666 896.302 -67.5787 900.031 -86.0473ZM109.938 328.351C128.474 285.222 151.162 244.31 177.508 206.143C185.7 211.772 194.54 217.852 203.992 224.358L230.762 242.798C190.98 229.289 143.564 262.885 109.938 328.351ZM161.433 373.168C119.294 369.122 80.6721 413.834 62.9793 487.04C71.1398 439.408 84.0488 393.431 101.214 349.598C118.766 356.458 138.921 364.338 161.433 373.168ZM854.304 1308.45C819.481 1313.09 783.849 1315.2 747.654 1314.57C734.006 1314.32 720.464 1313.69 706.992 1312.71C707.571 1304.98 708.191 1296.79 708.845 1288.13C709.783 1275.74 710.79 1262.42 711.846 1248.23C720.886 1289.24 778.116 1313.45 854.304 1308.45ZM1438.94 806.106C1425.58 851.767 1407.78 895.493 1386.04 936.792C1373.43 930.14 1359.39 922.763 1344.02 914.692L1328.77 906.68C1370.03 915.334 1413.3 875.864 1438.94 806.106ZM1382.42 767.656C1424.98 766.284 1457.97 716.155 1466.48 639.853C1464.23 689.35 1456.92 737.508 1445.06 783.767C1427.53 779.241 1407.51 774.099 1385.2 768.371L1385.09 768.344L1382.42 767.656ZM1338.17 326.663C1369.44 298.837 1363.7 241.285 1323.57 180.005C1351.53 216.837 1375.94 256.447 1396.35 298.414C1385.03 303.895 1372.57 309.942 1359.05 316.512C1352.35 319.768 1345.38 323.153 1338.17 326.663ZM300.197 69.9323C335.302 39.8903 373.361 13.2255 413.847 -9.53486L419.4 0.364706C427.245 14.3513 435.964 29.8972 445.504 46.855C415.957 17.306 358.904 26.3813 300.197 69.9323ZM326.895 132.655C291.404 110.563 237.903 132.233 190.593 187.78C218.099 150.525 249.194 116.051 283.313 84.8829C296.011 98.8134 310.609 114.784 326.895 132.655ZM52.8841 595.037C53.3765 566.366 55.5926 538.154 59.3915 510.468L71.3156 512.111C87.0153 514.273 104.444 516.676 123.445 519.298C81.9385 525.56 54.2558 581.247 54.5372 657.9C53.0951 637.18 52.5322 616.214 52.8841 595.037ZM219.19 954.523C191.507 985.796 203.889 1042.19 250.742 1098.15C218.662 1064.88 189.854 1028.47 164.775 989.454C174.197 983.403 184.466 976.803 195.531 969.699C203.055 964.869 210.947 959.805 219.19 954.523ZM1158.14 1192.01C1119.87 1218.11 1078.96 1240.56 1035.88 1258.85C1032.98 1252.01 1029.92 1244.78 1026.69 1237.16L1026.48 1236.66C1021.57 1225.07 1016.29 1212.59 1010.66 1199.26C1036.47 1231.41 1095.74 1228.52 1158.14 1192.01ZM1138.52 1126.72C1171.3 1152.58 1226.77 1136.96 1279.88 1086.9C1248.54 1120.84 1213.96 1151.7 1176.61 1178.99C1173.95 1175.35 1171.2 1171.57 1168.35 1167.67L1159.99 1156.2C1154.08 1148.09 1147.82 1139.49 1141.23 1130.44L1138.52 1126.72ZM1246.01 1027.76C1283.93 1045.56 1334.58 1017.67 1375.1 956.739C1352.06 997.194 1325.19 1035.15 1294.94 1070.08C1280.69 1057.77 1264.3 1043.59 1246.01 1027.76ZM1309.64 162.239C1295.01 174.094 1278.16 187.709 1259.38 202.941C1283.54 168.888 1265.14 114.222 1212.45 63.7412C1247.98 93.3255 1280.55 126.323 1309.64 162.239ZM1164.9 87.9927C1161.72 92.0721 1158.46 96.2548 1155.12 100.538C1171.02 61.7715 1140.52 12.5213 1077.38 -24.908C1119.1 -3.9072 1158.42 21.0695 1194.9 49.5291L1164.9 87.9927ZM1056.8 -34.8285C1048.89 -17.732 1039.81 1.93283 1029.68 23.8844C1036.19 -17.8729 994.264 -59.0657 922.859 -81.0877C969.466 -70.0767 1014.28 -54.4933 1056.8 -34.8285ZM732.529 -34.6876C718.881 -74.2275 660.28 -91.8522 586.66 -78.5192C632.739 -90.1641 680.646 -97.2344 729.75 -99.3098L730.59 -79.8783C731.191 -66.0149 731.844 -50.9224 732.529 -34.6876ZM582.157 -10.3448C560.208 -45.4169 500.587 -49.4621 433.826 -20.3698C475.121 -41.8636 518.773 -59.4178 564.289 -72.5042C569.494 -54.3877 575.474 -33.5971 582.157 -10.3448ZM266.64 1114.13C279.761 1100.62 294.886 1085.1 311.735 1067.8C291.72 1104.49 316.483 1156.66 374.838 1200.7C335.935 1175.37 299.705 1146.35 266.64 1114.13ZM401.072 1201.11C409.069 1187.89 417.909 1173.27 427.494 1157.39C416.309 1197.96 452.82 1243.37 520.531 1273.1C476.141 1257.12 433.791 1236.83 394.043 1212.73L401.072 1201.11ZM553.476 1246.26L553.722 1245.5C556.45 1237.06 559.307 1228.22 562.284 1218.99C560.947 1261.45 608.398 1297.37 683.144 1310.53C634.568 1305.28 587.469 1295.12 542.41 1280.55C545.795 1270.02 549.496 1258.58 553.476 1246.26ZM866.755 1241.19C884.906 1278.62 944.351 1289.17 1014.67 1267.43C970.837 1284.35 924.935 1297.02 877.484 1304.97C874.918 1289.74 872.045 1272.65 868.884 1253.85L866.755 1241.19ZM1391.25 607.385C1391.25 956.029 1108.62 1238.66 759.977 1238.66C411.333 1238.66 128.701 956.029 128.701 607.385C128.701 258.74 411.333 -23.8912 759.977 -23.8912C1108.62 -23.8912 1391.25 258.74 1391.25 607.385Z" fill="#0061FF" fill-opacity="0.01"/>
</g>
</svg>
