<svg width="168" height="43" viewBox="0 0 168 43" fill="none" xmlns="http://www.w3.org/2000/svg">
<path d="M48.78 15V13.74C50.205 13.38 57.165 11.52 57.165 7.77C57.165 6.09 55.755 5.445 53.94 5.445C51.87 5.445 50.37 6.345 49.23 7.035L48.75 5.925C50.25 5.055 51.87 4.32 53.985 4.32C56.325 4.32 58.395 5.25 58.395 7.71C58.395 11.1 54.495 12.855 51.735 13.875H58.5V15H48.78ZM65.813 15.18C62.873 15.18 60.593 13.17 60.593 9.75C60.593 6.345 62.873 4.32 65.813 4.32C68.753 4.32 71.018 6.345 71.018 9.75C71.018 13.17 68.753 15.18 65.813 15.18ZM65.813 14.055C68.048 14.055 69.728 12.465 69.728 9.75C69.728 7.035 68.048 5.445 65.813 5.445C63.578 5.445 61.883 7.035 61.883 9.75C61.883 12.465 63.578 14.055 65.813 14.055ZM72.8474 15V13.74C74.2724 13.38 81.2324 11.52 81.2324 7.77C81.2324 6.09 79.8224 5.445 78.0074 5.445C75.9374 5.445 74.4374 6.345 73.2974 7.035L72.8174 5.925C74.3174 5.055 75.9374 4.32 78.0524 4.32C80.3924 4.32 82.4624 5.25 82.4624 7.71C82.4624 11.1 78.5624 12.855 75.8024 13.875H82.5674V15H72.8474ZM94.9354 11.085V12.21H93.1054V15H91.8004V12.21H84.2104V10.89C86.2954 9.42 87.4954 6.975 87.9604 4.935L89.1904 5.28C88.5904 7.485 87.5104 9.585 85.6504 11.085H91.8004V4.5H93.1054V11.085H94.9354ZM58.62 25.495H51.495V28.12H57.96V30.055H51.495V34H49.11V23.5H58.62V25.495ZM63.289 25.57C65.419 25.57 67.294 26.47 67.294 29.065V34H65.059V31.96C64.294 33.37 63.049 34.135 61.519 34.135C60.259 34.135 59.134 33.52 59.134 32.17C59.134 29.89 62.884 29.065 65.029 28.705C64.879 27.805 64.189 27.46 63.184 27.46C62.074 27.46 60.859 27.895 60.004 28.465L59.314 26.725C60.409 26.035 61.819 25.57 63.289 25.57ZM62.464 32.335C63.619 32.335 64.924 31.135 65.059 29.92C62.764 30.385 61.504 30.82 61.504 31.63C61.504 32.14 62.014 32.335 62.464 32.335ZM68.8944 34V22.9H71.0994V34H68.8944ZM72.8348 34V22.9H75.0398V34H72.8348ZM83.1503 31.96H89.5253V34H80.7653V23.5H83.1503V31.96ZM94.9695 32.275C95.9445 32.275 97.0845 31.93 97.9995 31.195L98.7195 32.905C97.5495 33.76 96.1995 34.18 94.8945 34.18C92.4195 34.18 90.1995 32.77 90.1995 29.935C90.1995 27.37 91.9545 25.57 94.7595 25.57C97.5945 25.57 98.8695 27.37 98.9745 29.605L98.9895 30.22H92.4045C92.5395 31.675 93.6645 32.275 94.9695 32.275ZM94.7445 27.4C93.7395 27.4 92.8845 27.91 92.5395 28.9H96.8595C96.6795 28 95.9145 27.4 94.7445 27.4ZM104.305 25.57C106.435 25.57 108.31 26.47 108.31 29.065V34H106.075V31.96C105.31 33.37 104.065 34.135 102.535 34.135C101.275 34.135 100.15 33.52 100.15 32.17C100.15 29.89 103.9 29.065 106.045 28.705C105.895 27.805 105.205 27.46 104.2 27.46C103.09 27.46 101.875 27.895 101.02 28.465L100.33 26.725C101.425 26.035 102.835 25.57 104.305 25.57ZM103.48 32.335C104.635 32.335 105.94 31.135 106.075 29.92C103.78 30.385 102.52 30.82 102.52 31.63C102.52 32.14 103.03 32.335 103.48 32.335ZM116.735 22.9H118.97V33.97H116.735V32.38C116.105 33.49 114.995 34.18 113.57 34.18C111.23 34.18 109.55 32.41 109.55 29.905C109.55 27.355 111.26 25.585 113.585 25.585C114.995 25.585 116.105 26.275 116.735 27.4V22.9ZM114.275 32.245C115.745 32.245 116.735 31.27 116.735 29.89C116.735 28.495 115.745 27.505 114.275 27.505C112.805 27.505 111.815 28.495 111.815 29.89C111.815 31.27 112.805 32.245 114.275 32.245ZM125.101 32.275C126.076 32.275 127.216 31.93 128.131 31.195L128.851 32.905C127.681 33.76 126.331 34.18 125.026 34.18C122.551 34.18 120.331 32.77 120.331 29.935C120.331 27.37 122.086 25.57 124.891 25.57C127.726 25.57 129.001 27.37 129.106 29.605L129.121 30.22H122.536C122.671 31.675 123.796 32.275 125.101 32.275ZM124.876 27.4C123.871 27.4 123.016 27.91 122.671 28.9H126.991C126.811 28 126.046 27.4 124.876 27.4ZM135.682 25.615C136.282 25.615 136.897 25.75 137.272 25.915L136.822 27.91C136.537 27.76 136.012 27.61 135.442 27.61C133.732 27.61 132.667 29.035 132.667 31.54V34H130.462V25.75H132.667V28.045C133.162 26.62 134.167 25.615 135.682 25.615Z" fill="white"/>
<path d="M33 7.5H5.5V30L18 38L33 30V7.5Z" fill="black"/>
<path d="M18.5969 10.6471C19.3717 10.6471 20.1466 10.6471 20.9215 10.8431L18.5969 15.3529C15.1099 15.1569 12.0105 17.902 11.8168 21.4314C11.623 24.9608 14.3351 28.098 17.822 28.2941H18.5969C20.1466 28.2941 21.6963 27.7059 22.8586 26.7255L25.377 31.0392C23.4398 32.4118 21.1152 33.1961 18.5969 33.1961C12.3979 33.3922 7.16754 28.6863 6.97383 22.4118C6.78011 16.1373 11.4293 10.8431 17.6283 10.6471H18.5969ZM26.5393 20.2549L29.445 25.1569L26.5393 29.8627L23.8272 25.1569H18.2094L21.1152 20.2549H26.5393ZM21.89 18.4902C21.89 17.7059 22.0838 16.9216 22.4712 16.3333C22.8586 15.7451 23.6335 15.1569 24.2147 14.7647L24.6021 14.5686C25.377 14.1765 25.5707 13.9804 25.5707 13.5882C25.5707 13.1961 24.9895 12.8039 24.6021 12.8039C23.8272 12.8039 23.2461 13.1961 22.8586 13.9804L21.89 13C22.0838 12.6078 22.4712 12.2157 22.8586 11.8235C23.4398 11.4314 24.0209 11.4314 24.6021 11.4314C25.1832 11.4314 25.9581 11.6274 26.3456 12.0196C26.733 12.4118 27.1204 13 27.1204 13.5882C27.1204 14.5686 26.5393 15.3529 25.377 15.7451L24.7958 16.1373C24.2147 16.5294 23.8272 16.7255 23.6335 17.3137H27.1204V18.6863L21.89 18.4902ZM18.5969 43L37 32.4118V3H0V32.2157L18.5969 43Z" fill="#FF492C"/>
</svg>
