<svg width="145" height="30" viewBox="0 0 145 30" fill="none" xmlns="http://www.w3.org/2000/svg">
<path d="M51.9391 4.78125L55.082 10.9439L61.5887 12.2045L57.0244 17.2738L57.9029 24.2155L51.9391 21.1858L45.9754 24.2155L46.8538 17.2738L42.2896 12.2045L48.7962 10.9439L51.9391 4.78125Z" fill="#1D3C5F"/>
<path d="M93.1219 4.78125L96.4497 10.9439L103.339 12.2045L98.5063 17.2738L99.4365 24.2155L93.1219 21.1858L86.8073 24.2155L87.7374 17.2738L82.9047 12.2045L89.7941 10.9439L93.1219 4.78125Z" fill="#1D3C5F"/>
<path d="M72.2321 4.78125L75.375 10.9439L81.8817 12.2045L77.3174 17.2738L78.1958 24.2155L72.2321 21.1858L66.2683 24.2155L67.1468 17.2738L62.5825 12.2045L69.0892 10.9439L72.2321 4.78125Z" fill="#1D3C5F"/>
<path d="M114.009 4.78125L117.152 10.9439L123.659 12.2045L119.095 17.2738L119.973 24.2155L114.009 21.1858L108.046 24.2155L108.924 17.2738L104.36 12.2045L110.867 10.9439L114.009 4.78125Z" fill="#1D3C5F"/>
<path d="M134.302 5.4381L137.179 11.0795L137.246 11.2092L137.389 11.2369L143.377 12.3971L139.166 17.0741L139.075 17.1756L139.092 17.3112L139.899 23.6945L134.438 20.9197L134.302 20.8511L134.167 20.9197L128.705 23.6945L129.513 17.3112L129.53 17.1756L129.439 17.0741L125.228 12.3971L131.216 11.2369L131.359 11.2092L131.425 11.0795L134.302 5.4381Z" stroke="#1D3C5F" stroke-width="0.596833"/>
<path fill-rule="evenodd" clip-rule="evenodd" d="M134.906 5.95701V21.4846L134.302 21.178L128.338 24.2077L129.217 17.2659L124.652 12.1967L131.159 10.9361L134.302 4.77344L134.906 5.95701Z" fill="#1D3C5F"/>
<g clip-path="url(#clip0_7874_11748)">
<path fill-rule="evenodd" clip-rule="evenodd" d="M28.2246 14.4717C28.2246 22.2527 21.9168 28.5605 14.1357 28.5605C6.35467 28.5605 0.046875 22.2527 0.046875 14.4717C0.046875 6.69061 6.35467 0.382812 14.1357 0.382812C21.9168 0.382812 28.2246 6.69061 28.2246 14.4717ZM19.4821 21.6423C18.8893 20.6139 18.2959 19.5846 17.6959 18.5433C17.6785 18.5567 17.6628 18.5695 17.648 18.5817L17.648 18.5817C17.6216 18.6033 17.5978 18.6227 17.5723 18.6392C17.2589 18.8788 16.9908 19.0534 16.6756 19.2116C15.8353 19.6339 14.9386 19.7664 14.0062 19.6325C13.0217 19.4914 12.1722 19.0648 11.4584 18.376C10.9932 17.9275 10.646 17.3961 10.4007 16.7978C10.1105 16.0902 10.0055 15.3203 10.0956 14.5608C10.1819 13.8119 10.4503 13.0955 10.8774 12.4743C11.3045 11.8531 11.8773 11.346 12.5457 10.9972C13.1548 10.6822 13.7232 10.5047 14.4863 10.4723C14.5554 10.471 14.6776 10.463 14.6776 10.463C14.6776 10.463 16.2239 7.25515 16.2937 7.10346C13.712 6.49273 9.70231 7.32563 7.55958 11.0918C5.69658 14.3661 6.2685 18.9147 9.74825 21.5805C12.772 23.8952 16.8567 23.6523 19.4821 21.6423ZM17.2956 9.26516L17.4272 9.39464L17.4879 9.29118C17.5143 9.24632 17.5383 9.20544 17.562 9.1644C17.8403 8.68307 18.3757 8.45666 18.9017 8.59852C19.1247 8.65808 19.2809 8.8488 19.2809 9.06339C19.2819 9.31343 19.1419 9.48588 18.9436 9.60344C18.7856 9.69719 18.6236 9.78426 18.4617 9.87133L18.4616 9.87135C18.2942 9.96138 18.1267 10.0514 17.9637 10.1488C17.5472 10.3975 17.2006 10.7205 16.9775 11.1617C16.7351 11.6426 16.6733 12.141 16.6875 12.6705V12.7747H20.4223V11.6971L18.0027 11.7002C18.0027 11.7002 18.0105 11.5242 18.1707 11.3375C18.3527 11.1514 18.5119 11.0611 18.6982 10.9582C18.8082 10.8976 18.918 10.8401 19.027 10.783L19.027 10.783C19.2527 10.6647 19.4744 10.5485 19.6851 10.4113C20.2166 10.0656 20.4843 9.57016 20.4396 8.9233C20.4129 8.53986 20.2609 8.21866 19.9648 7.96548C19.5635 7.62241 19.0879 7.49504 18.5764 7.48501C18.1767 7.47502 17.783 7.58378 17.4451 7.79752C17.1395 7.98935 16.8819 8.23048 16.7175 8.56038C16.705 8.58581 16.6758 8.64782 16.6758 8.64782C16.6758 8.64782 16.7119 8.68775 16.7427 8.71697C16.7955 8.76678 16.8464 8.81862 16.8973 8.87046L16.8973 8.8705C16.9291 8.90291 16.9609 8.93532 16.9932 8.96724C17.0923 9.0654 17.1917 9.16309 17.2951 9.26474L17.2956 9.26516ZM22.1768 17.2165L20.1378 13.6953H16.103L14.0508 17.2529H18.1154L20.1211 20.7574L22.1768 17.2165Z" fill="#1D3C5F"/>
</g>
<defs>
<clipPath id="clip0_7874_11748">
<rect width="29.8416" height="29.8416" fill="white" transform="translate(0.015625)"/>
</clipPath>
</defs>
</svg>
