<svg xmlns="http://www.w3.org/2000/svg" width="125" height="48" viewBox="0 0 125 48" fill="none" aria-hidden="true">
<g clip-path="url(#clip0_941_47242)">
<path d="M27.685 20.7183L27.6493 20.6185L23.8187 10.6364C23.7402 10.4369 23.6047 10.273 23.4263 10.159C22.9555 9.85974 22.3278 9.99511 22.0282 10.4654C21.9711 10.5509 21.9354 10.6435 21.9069 10.7361L19.3175 18.6449H8.84566L6.26337 10.7361C6.11357 10.1946 5.55003 9.88824 5.0079 10.0379C4.91516 10.0664 4.82243 10.102 4.73683 10.159C4.55849 10.273 4.42296 10.4369 4.34449 10.6364L0.513859 20.6185L0.471059 20.7183C-0.663151 23.6751 0.299857 27.0239 2.83221 28.9263L2.84648 28.9405L2.88215 28.969L8.71013 33.3296L11.5992 35.5098L13.354 36.8351C13.7748 37.1557 14.3598 37.1557 14.7878 36.8351L16.5426 35.5098L19.4316 33.3296L25.3024 28.9405L25.3167 28.9263C27.849 27.0239 28.812 23.6751 27.6778 20.7183H27.685Z" fill="#00234B"></path>
<path d="M50.6262 20.2052H54.7421C54.0573 15.8305 50.2695 12.7881 45.3332 12.7881C39.4981 12.7881 35.1182 17.0702 35.1182 24.2522C35.1182 31.4343 39.2983 35.6736 45.4544 35.6736C50.9757 35.6736 54.9276 32.1254 54.9276 26.3826V23.7107H45.8825V26.8671H51.0185C50.9543 30.0449 48.8285 32.0541 45.4759 32.0541C41.7451 32.0541 39.1842 29.2611 39.1842 24.2166C39.1842 19.1721 41.7879 16.4218 45.3902 16.4218C48.0795 16.4218 49.92 17.854 50.6262 20.2195V20.2052Z" fill="#00234B"></path>
<path d="M57.645 35.3601H61.5898V18.6662H57.645V35.3601ZM59.6352 16.0085C60.8907 16.0085 61.9108 15.0467 61.9108 13.8782C61.9108 12.7096 60.8907 11.7335 59.6352 11.7335C58.3797 11.7335 57.3525 12.6883 57.3525 13.8782C57.3525 15.068 58.3655 16.0085 59.6281 16.0085H59.6352Z" fill="#00234B"></path>
<path d="M73.3886 18.6663H70.0858V14.6549H66.141V18.6663H63.7656V21.7087H66.141V30.9997C66.1196 34.1418 68.4095 35.6951 71.3698 35.6025C72.1616 35.5882 72.9392 35.4528 73.6882 35.2106L73.0248 32.1326C72.6467 32.2323 72.2615 32.2822 71.8692 32.2893C70.8776 32.2893 70.0787 31.9402 70.0787 30.3513V21.7087H73.3814V18.6734L73.3886 18.6663Z" fill="#00234B"></path>
<path d="M76.4419 35.3602H90.3021V31.9758H80.4794V13.0874H76.4419V35.3602Z" fill="#00234B"></path>
<path d="M97.8488 35.7021C100.474 35.7021 102.036 34.4695 102.757 33.073H102.885V35.3672H106.68V24.1881C106.68 19.7706 103.078 18.4453 99.8818 18.4453C96.3651 18.4453 93.6686 20.0128 92.7912 23.0552L96.4721 23.5753C96.8644 22.4353 97.9772 21.4521 99.9032 21.4521C101.736 21.4521 102.735 22.3854 102.735 24.0313V24.0955C102.735 25.2283 101.551 25.2782 98.5978 25.5988C95.3521 25.948 92.2491 26.917 92.2491 30.679C92.2348 33.9636 94.6459 35.7021 97.8345 35.7021H97.8488ZM99.1471 32.8165C97.4993 32.8165 96.3294 32.0684 96.3294 30.622C96.3294 29.1756 97.6491 28.4773 99.4039 28.228C100.438 28.0855 102.507 27.829 103.021 27.4157V29.3822C103.035 31.2347 101.53 32.8165 99.1542 32.8165H99.1471Z" fill="#00234B"></path>
<path d="M109.583 35.3602H113.457V32.7311H113.685C114.306 33.9495 115.604 35.6595 118.479 35.6595C122.424 35.6595 125.37 32.5387 125.37 27.0382C125.37 21.5377 122.331 18.4454 118.465 18.4454C115.511 18.4454 114.284 20.2195 113.685 21.4237H113.521V13.0874H109.583V35.3602ZM113.45 27.0097C113.45 23.7607 114.841 21.6659 117.38 21.6659C119.92 21.6659 121.354 23.8961 121.354 27.0097C121.354 30.1233 119.984 32.4247 117.38 32.4247C114.777 32.4247 113.45 30.2516 113.45 27.0097Z" fill="#00234B"></path>
</g>
<defs>
<clipPath id="clip0_941_47242">
<rect width="125" height="48" fill="white"></rect>
</clipPath>
</defs>
</svg>