<svg width="455" height="494" viewBox="0 0 455 494" fill="none" xmlns="http://www.w3.org/2000/svg" class="background-pattern-right" ><g opacity="0.2"><path d="M9.272 0V494.246" stroke="#383A3D" stroke-width="1.09105" /><path d="M48.5499 0V494.246" stroke="#383A3D" stroke-width="1.09105" /><path d="M87.8284 0V494.246" stroke="#383A3D" stroke-width="1.09105" /><path d="M127.105 0V494.246" stroke="#383A3D" stroke-width="1.09105" /><path d="M166.383 0V494.246" stroke="#383A3D" stroke-width="1.09105" /><path d="M205.661 0V494.246" stroke="#383A3D" stroke-width="1.09105" /><path d="M244.94 0V494.246" stroke="#383A3D" stroke-width="1.09105" /><path d="M284.217 0V494.246" stroke="#383A3D" stroke-width="1.09105" /><path d="M323.494 0V494.246" stroke="#383A3D" stroke-width="1.09105" /><path d="M362.773 0V494.246" stroke="#383A3D" stroke-width="1.09105" /><path d="M402.051 0V494.246" stroke="#383A3D" stroke-width="1.09105" /><path d="M441.328 0V494.246" stroke="#383A3D" stroke-width="1.09105" /><path d="M494.246 31.094L3.60012e-05 31.094" stroke="#383A3D" stroke-width="1.09105" /><path d="M494.246 70.3715L3.60012e-05 70.3714" stroke="#383A3D" stroke-width="1.09105" /><path d="M494.246 109.651L5.50747e-05 109.651" stroke="#383A3D" stroke-width="1.09105" /><path d="M494.246 148.928L5.50747e-05 148.928" stroke="#383A3D" stroke-width="1.09105" /><path d="M494.246 188.206L3.60012e-05 188.206" stroke="#383A3D" stroke-width="1.09105" /><path d="M494.246 227.483L5.50747e-05 227.483" stroke="#383A3D" stroke-width="1.09105" /><path d="M494.246 266.76L5.50747e-05 266.76" stroke="#383A3D" stroke-width="1.09105" /><path d="M494.246 306.039L5.50747e-05 306.039" stroke="#383A3D" stroke-width="1.09105" /><path d="M494.246 345.317L5.50747e-05 345.317" stroke="#383A3D" stroke-width="1.09105" /><path d="M494.246 384.594L5.50747e-05 384.594" stroke="#383A3D" stroke-width="1.09105" /><path d="M494.246 423.871L5.50747e-05 423.871" stroke="#383A3D" stroke-width="1.09105" /><path d="M494.246 463.151L5.50747e-05 463.151" stroke="#383A3D" stroke-width="1.09105" /></g></svg>
