<svg xmlns="http://www.w3.org/2000/svg" width="109" height="48" viewBox="0 0 109 48" fill="none" aria-hidden="true">
<g clip-path="url(#clip0_3153_208732)">
<path d="M72.0373 39.2795V25.6864H81.6211V28.7152H75.8017V31.0507H80.8391V33.6598H75.8017V36.2324H81.8029V39.2795H72.0373ZM108.881 39.2795V25.6864H104.935V30.485C102.353 31.3608 100.279 31.3791 100.116 31.3791V25.6864H96.1695V39.2795H100.116V34.4261H100.225C100.17 34.4444 102.753 34.3349 104.917 33.5138V39.2795H108.881ZM51.906 39.2795V34.5903H56.3614V31.7257H51.906V29.0436H57.5071V25.7229H47.9597V39.2795H51.906ZM72.1282 23.9531V20.906H66.127V18.3334H71.1644V15.7243H66.127V13.3888H72.201V10.36H62.3626V23.9531H72.1282ZM93.7508 23.9348V20.6141H88.3679V10.3418H84.4216V23.9348H93.7508ZM83.0395 23.9348V20.6141H77.6566V10.3418H73.7104V23.9348H83.0395ZM101.68 13.3341C103.844 13.3158 105.335 14.9944 105.299 17.1474C105.299 17.9137 105.135 18.5888 104.826 19.1545C103.607 21.5446 99.7338 21.5446 98.5336 19.1545C98.2244 18.5888 98.079 17.8955 98.079 17.1474C98.0426 14.9944 99.5156 13.3158 101.68 13.3341ZM101.68 24.2997C105.844 24.3545 109.227 21.4717 109.136 17.1474C109.136 15.7243 108.808 14.4471 108.172 13.3888C105.553 8.88213 97.788 8.86388 95.1693 13.3888C94.551 14.4653 94.2236 15.7243 94.2236 17.1474C94.1691 21.4717 97.5152 24.3545 101.68 24.2997ZM60.6714 23.9348V10.3418H56.7251V15.1404C54.1428 16.0162 52.0696 16.0344 51.906 16.0344V10.3418H47.9597V23.9348H51.906V19.0632H52.0151C51.9605 19.0815 54.5429 18.972 56.7069 18.1509V23.9166H60.6714V23.9348ZM88.8953 39.5349C91.714 39.5896 94.8965 38.1665 94.9874 35.0829C95.0238 34.0429 94.7874 33.2219 94.2964 32.638C93.7872 32.0542 93.1689 31.6345 92.4596 31.3973C91.514 31.0324 89.2044 30.6675 88.186 30.4121C87.8587 30.3208 87.5677 30.1931 87.3495 30.0106C86.8949 29.6822 86.8767 28.9341 87.2586 28.5327C87.6405 28.1131 88.2952 28.0036 88.8953 28.0219C89.95 28.0584 90.8593 28.5875 91.0775 29.6275L93.9145 28.1131C93.4235 27.0366 92.5506 26.2885 91.4412 25.7959C89.0953 24.8106 85.531 25.0113 83.9488 27.2008C82.985 28.405 82.8577 30.8682 83.8579 31.9812C84.3671 32.565 84.9672 32.9847 85.6582 33.2219C86.5675 33.605 88.8953 33.97 89.95 34.2619C90.5683 34.4626 91.2412 34.7728 91.2048 35.5026C91.1321 36.5609 89.75 36.8345 88.8225 36.7798C87.8223 36.7433 86.8949 36.4331 86.3129 35.6851C86.0947 35.4114 85.9492 35.0829 85.8765 34.7363L82.7849 36.3784C83.8033 38.6409 86.4402 39.5531 88.8953 39.5349ZM62.7627 31.9447H64.4903C64.854 31.9447 65.1996 31.8717 65.5087 31.7257C66.4907 31.3061 66.9272 30.1931 66.2907 29.2991C65.8906 28.7517 65.1814 28.478 64.4903 28.478H62.7627V31.9447ZM70.3824 39.4619C67.2 39.4984 64.6722 37.4549 63.5265 34.5538H62.7627V39.316H58.8165V25.7229H64.9813C66.909 25.7229 68.7821 26.325 69.8369 27.8577C70.5643 28.9159 70.7461 30.558 70.2006 31.744C69.7096 32.8022 68.6548 33.4408 67.4182 33.8787C67.4182 33.8787 67.9819 35.2472 69.2913 35.7945C69.6368 35.9405 70.0369 36.0317 70.4552 36.05V39.4802C70.4188 39.4619 70.4006 39.4619 70.3824 39.4619Z" fill="#00234B"></path>
<path d="M41.122 12.9144C41.522 13.5895 41.5039 14.3923 41.1401 15.0309C39.8308 17.0561 39.2489 19.4828 39.4671 21.8913C39.9217 28.6422 36.1573 35.7215 29.3378 39.6991C22.5182 43.6766 14.5166 43.4577 8.89725 39.7173C6.93322 38.3306 4.53274 37.6373 2.13225 37.765C1.40483 37.7468 0.695595 37.3636 0.295514 36.6885C-0.104567 36.0134 -0.086381 35.2106 0.277329 34.572C1.58668 32.5467 2.16862 30.1201 1.95039 27.7116C1.49576 20.9607 5.26015 13.8814 12.0797 9.90384C18.8993 5.92627 26.9009 6.14522 32.5202 9.88559C34.4842 11.2723 36.8847 11.9656 39.2852 11.8196C40.0308 11.8379 40.7401 12.221 41.122 12.9144Z" fill="#00234B"></path>
</g>
<defs>
<clipPath id="clip0_3153_208732">
<rect width="109" height="48" fill="white"></rect>
</clipPath>
</defs>
</svg>