<?xml version="1.0" encoding="UTF-8"?>
<svg width="163" height="68" viewBox="0 0 163 68" fill="none" xmlns="http://www.w3.org/2000/svg">
<g filter="url(#2xNr3p2bBFnrhUhjtULEZ0-filter0_d_7887_46852)">
<rect x="4" width="155.357" height="60.9992" rx="7.78376" fill="white"/>
</g>
<text fill="#0061FF" xml:space="preserve" style="white-space: pre" font-family="Inter" font-size="6.67179" font-weight="500" letter-spacing="0em"><tspan x="117.603" y="17.3739">View all</tspan></text>
<path fill-rule="evenodd" clip-rule="evenodd" d="M144.703 13.6078C144.773 13.538 144.886 13.538 144.956 13.6078L146.386 15.0383C146.456 15.1081 146.456 15.2213 146.386 15.2912L144.956 16.7216C144.886 16.7915 144.773 16.7915 144.703 16.7216C144.633 16.6518 144.633 16.5386 144.703 16.4688L146.007 15.1647L144.703 13.8607C144.633 13.7908 144.633 13.6776 144.703 13.6078Z" fill="#0061FF"/>
<text fill="#4E6783" xml:space="preserve" style="white-space: pre" font-family="Remote Sans" font-size="5.69326" font-weight="300" letter-spacing="0em"><tspan x="59.6051" y="17.2475"> (207)</tspan></text>
<text fill="#00234B" xml:space="preserve" style="white-space: pre" font-family="Remote Sans" font-size="9.53113" font-weight="500" letter-spacing="0em"><tspan x="12.4707" y="17.2475">Your team</tspan></text>
<rect x="12.5762" y="25.7341" width="26.6872" height="27.8361" rx="4.86346" fill="#EFF7FF"/>
<rect x="17.4395" y="31.1411" width="17.0221" height="17.0221" rx="3.6476" fill="white"/>
<path opacity="0.32" d="M23.7793 38.3174C23.7793 37.52 24.4257 36.8735 25.2231 36.8735C26.0205 36.8735 26.667 37.52 26.667 38.3174C26.667 39.1148 26.0205 39.7612 25.2231 39.7612C24.4257 39.7612 23.7793 39.1148 23.7793 38.3174Z" fill="#0061FF"/>
<path fill-rule="evenodd" clip-rule="evenodd" d="M27.3507 36.8735C27.2248 36.8735 27.1227 36.9756 27.1227 37.1015C27.1227 37.2274 27.2248 37.3295 27.3507 37.3295C27.8963 37.3295 28.3386 37.7718 28.3386 38.3174C28.3386 38.863 27.8963 39.3053 27.3507 39.3053C27.2248 39.3053 27.1227 39.4073 27.1227 39.5332C27.1227 39.6591 27.2248 39.7612 27.3507 39.7612C28.1481 39.7612 28.7945 39.1148 28.7945 38.3174C28.7945 37.52 28.1481 36.8735 27.3507 36.8735ZM27.9586 40.5211C27.8327 40.5211 27.7307 40.6232 27.7307 40.7491C27.7307 40.875 27.8327 40.9771 27.9586 40.9771H28.3234C29.0033 40.9771 29.5545 41.5282 29.5545 42.2081C29.5545 42.6194 29.221 42.9529 28.8097 42.9529H27.9586C27.8327 42.9529 27.7307 43.0549 27.7307 43.1808C27.7307 43.3067 27.8327 43.4088 27.9586 43.4088H28.8097C29.4728 43.4088 30.0104 42.8713 30.0104 42.2081C30.0104 41.2764 29.2551 40.5211 28.3234 40.5211H27.9586ZM22.8672 42.2537C22.8672 41.2968 23.6429 40.5211 24.5998 40.5211H25.8461C26.803 40.5211 27.5787 41.2968 27.5787 42.2537C27.5787 42.8917 27.0615 43.4088 26.4236 43.4088H24.0223C23.3843 43.4088 22.8672 42.8917 22.8672 42.2537Z" fill="#0061FF"/>
<rect x="43.0762" y="25.7341" width="102.936" height="26.7491" rx="3.6476" fill="#ECFDF2"/>
<rect x="47.9395" y="30.5977" width="17.0221" height="17.0221" rx="3.6476" fill="white"/>
<path opacity="0.32" d="M55.6173 42.8652H58.2618C58.9427 42.8652 59.2832 42.8652 59.5433 42.7327C59.7721 42.6161 59.9581 42.4301 60.0746 42.2013C60.2072 41.9412 60.2072 41.6008 60.2072 40.9198V39.2463C58.1257 40.1639 55.7534 40.1639 53.6719 39.2463V40.9198C53.6719 41.6008 53.6719 41.9412 53.8044 42.2013C53.921 42.4301 54.107 42.6161 54.3357 42.7327C54.5958 42.8652 54.9363 42.8652 55.6173 42.8652Z" fill="#12B749"/>
<path fill-rule="evenodd" clip-rule="evenodd" d="M56.9395 36.786C56.4724 36.786 56.081 37.1103 55.9781 37.5459H57.901C57.7981 37.1103 57.4066 36.786 56.9395 36.786ZM56.9395 36.3301C56.2197 36.3301 55.6229 36.8569 55.5136 37.5459H55.3724C54.9214 37.5459 54.6958 37.5459 54.5133 37.6051C54.1421 37.7252 53.8511 38.0162 53.731 38.3873C53.6719 38.5699 53.6719 38.7954 53.6719 39.2465C54.2609 39.5062 54.8732 39.6923 55.4957 39.805V40.3576C55.4957 40.4835 55.5977 40.5856 55.7236 40.5856C55.8496 40.5856 55.9516 40.4835 55.9516 40.3576V39.8742C56.6077 39.9548 57.2713 39.9548 57.9274 39.8742V40.3576C57.9274 40.4835 58.0295 40.5856 58.1554 40.5856C58.2813 40.5856 58.3834 40.4835 58.3834 40.3576V39.805C59.0058 39.6923 59.6181 39.5062 60.2072 39.2465C60.2072 38.7954 60.2072 38.5699 60.148 38.3873C60.0279 38.0162 59.7369 37.7252 59.3658 37.6051C59.1832 37.5459 58.9577 37.5459 58.5066 37.5459H58.3655C58.2562 36.8569 57.6594 36.3301 56.9395 36.3301Z" fill="#12B749"/>
<text fill="#0F1419" xml:space="preserve" style="white-space: pre" font-family="Remote Sans" font-size="8.57802" font-weight="500" letter-spacing="0em"><tspan x="80.7442" y="42.0203"> </tspan></text>
<text fill="#0F1419" xml:space="preserve" style="white-space: pre" font-family="Inter" font-size="8.57802" letter-spacing="0em"><tspan x="82.7714" y="42.0203">Contractors</tspan></text>
<text fill="#0F1419" xml:space="preserve" style="white-space: pre" font-family="Remote Sans" font-size="9.53113" font-weight="500" letter-spacing="0em"><tspan x="69.8262" y="42.0203">43</tspan></text>
<defs>
<filter id="2xNr3p2bBFnrhUhjtULEZ0-filter0_d_7887_46852" x="0.611153" y="0" width="162.135" height="67.777" filterUnits="userSpaceOnUse" color-interpolation-filters="sRGB">
<feFlood flood-opacity="0" result="BackgroundImageFix"/>
<feColorMatrix in="SourceAlpha" type="matrix" values="0 0 0 0 0 0 0 0 0 0 0 0 0 0 0 0 0 0 127 0" result="hardAlpha"/>
<feOffset dy="3.38885"/>
<feGaussianBlur stdDeviation="1.69442"/>
<feComposite in2="hardAlpha" operator="out"/>
<feColorMatrix type="matrix" values="0 0 0 0 0 0 0 0 0 0 0 0 0 0 0 0 0 0 0.08 0"/>
<feBlend mode="normal" in2="BackgroundImageFix" result="effect1_dropShadow_7887_46852"/>
<feBlend mode="normal" in="SourceGraphic" in2="effect1_dropShadow_7887_46852" result="shape"/>
</filter>
</defs>
<style>@import url("https://remote-website.remote.com/fonts/bossa.css"); @import url("https://remote-website.remote.com/fonts/remote-sans.css"); @import url('https://fonts.googleapis.com/css2?family=Inter:wght@400;500;600&amp;display=swap');</style></svg>
