<svg viewBox="0 0 607.953125 48" data-meta-row-shape="true"><path data-meta-row-shape-bridges="true" d=" M119.75922796107139 36.043855464936115 C123.14193146769384 30.21330449036382, 129.85806853230616 30.21330449036382, 133.2407720389286 36.043855464936115 L133.2407720389286 11.956144535063881 C129.85806853230616 17.786695509636175, 123.14193146769384 17.78669550963618, 119.75922796107139 11.956144535063885 Z "></path><path data-meta-row-rect="0" d="M0 24 A24 24 0 0 1 24 0 L99 0 A24 24 0 0 1 123 24 L123 24 A24 24 0 0 1 99 48 L24 48 A24 24 0 0 1 0 24  Z"></path><path data-meta-row-rect="1" d="M130 24 A24 24 0 0 1 154 0 L583.953125 0 A24 24 0 0 1 607.953125 24 L607.953125 24 A24 24 0 0 1 583.953125 48 L154 48 A24 24 0 0 1 130 24  Z"></path></svg>