<svg viewBox="0 0 184.875 48" data-meta-row-shape="true"><path data-meta-row-shape-bridges="true" d=" M66.34749555600905 33.89691409636298 C69.40416923965459 29.253337845997297, 75.68568736784584 28.94612942553144, 79.22483755158996 35.45907904073957 L79.22483755158996 12.540920959260431 C75.68568736784584 19.05387057446856, 69.40416923965459 18.746662154002706, 66.34749555600905 14.103085903637025 Z "></path><path data-meta-row-rect="0" d="M0 24 A18 18 0 0 1 18 6 L51.3125 6 A18 18 0 0 1 69.3125 24 L69.3125 24 A18 18 0 0 1 51.3125 42 L18 42 A18 18 0 0 1 0 24  Z"></path><path data-meta-row-rect="1" d="M76.3125 24 A24 24 0 0 1 100.3125 0 L160.875 0 A24 24 0 0 1 184.875 24 L184.875 24 A24 24 0 0 1 160.875 48 L100.3125 48 A24 24 0 0 1 76.3125 24  Z"></path></svg>