<svg width="117" height="75" viewBox="0 0 117 75" fill="none" xmlns="http://www.w3.org/2000/svg"><path d="M.5 1H71v70.5h41.5" stroke="#5A05FF" stroke-opacity="0.5" stroke-dasharray="2 2"></path><path d="M116.06 71.6a.5.5 0 0 0 0-.7l-3.18-3.19a.5.5 0 1 0-.7.71l2.82 2.83-2.83 2.83a.5.5 0 0 0 .71.7l3.18-3.18Zm-1.15.15h.2v-1h-.2v1Zm.6 0h.2v-1h-.2v1Zm.55-.15a.5.5 0 0 0 0-.7l-3.18-3.19a.5.5 0 1 0-.7.71l2.82 2.83-2.83 2.83a.5.5 0 0 0 .71.7l3.18-3.18Zm-1.15.15h.2v-1h-.2v1Zm.6 0h.2v-1h-.2v1Z" fill="#5A05FF" fill-opacity="0.5"></path></svg>