<svg class="remote-logo" width="119" height="44" viewBox="0 0 119 44" xmlns="http://www.w3.org/2000/svg" data-menu-transition="stroke" preserveAspectRatio="xMinYMid slice" aria-hidden="true"><g class="remote-symbol"><path d="M29.7214 27.4396H29.9721V32.0283H29.2214C24.3466 32.0283 21.5261 29.2477 21.5261 24.7081V22.3737L23.1101 21.9754C23.574 21.8579 23.9956 21.6125 24.327 21.2669C24.6584 20.9214 24.8862 20.4897 24.9846 20.0209C25.0829 19.5522 25.0478 19.0652 24.8832 18.6154C24.7186 18.1657 24.4312 17.7712 24.0537 17.4769C23.6761 17.1826 23.2236 17.0003 22.7477 16.9508C22.2717 16.9013 21.7915 16.9865 21.3615 17.1968C20.9316 17.4071 20.5693 17.7339 20.3158 18.1402C20.0623 18.5465 19.9279 19.0158 19.9278 19.4948V29.496H15V19.3215C14.9997 19.0153 15.0192 18.7095 15.0581 18.4058C15.5181 14.7949 18.6681 12 22.486 12C25.9474 12 28.8609 14.2982 29.7214 17.4203C30.1687 19.0555 30.0236 20.7965 29.3118 22.3349C28.7087 23.6332 27.7419 24.7281 26.5288 25.4867C26.9358 27.1383 27.8015 27.4435 29.7214 27.4435"></path></g><g class="remote-logotype"><path d="M41.9254 18.6218V21.4257H41.4667C40.5029 21.4257 39.7509 21.6908 39.2109 22.2211C38.6708 22.7514 38.4016 23.4717 38.4033 24.3822V29.4378H35.6901V18.7951H38.4033V20.1712C39.2182 19.1365 40.2402 18.6192 41.4693 18.6192L41.9254 18.6218Z"></path><path d="M53.5809 25.0988H45.3467C45.5162 25.7418 45.9012 26.307 46.4372 26.6999C47.0071 27.1048 47.6935 27.3123 48.3921 27.291C48.9802 27.2976 49.562 27.1703 50.0937 26.9185C50.5682 26.7027 50.9865 26.38 51.3159 25.9757L53.1248 27.5664C52.556 28.2429 51.84 28.78 51.0317 29.1365C50.1735 29.5149 49.2444 29.705 48.3068 29.6939C47.2529 29.7094 46.2122 29.4571 45.2821 28.9606C44.4033 28.4944 43.6703 27.7939 43.1645 26.9366C42.6677 26.0738 42.4041 25.0963 42.3996 24.1005C42.3951 23.1047 42.6498 22.1249 43.1387 21.2576C43.6223 20.4195 44.3267 19.7305 45.1749 19.2659C46.0553 18.7795 47.0467 18.5299 48.0523 18.5417C49.6475 18.5417 50.9787 19.0732 52.0459 20.1363C53.1131 21.1994 53.6476 22.5324 53.6493 24.1353C53.648 24.4576 53.6251 24.7795 53.5809 25.0988V25.0988ZM49.7564 21.515C49.2648 21.1288 48.6579 20.9189 48.0329 20.9189C47.4079 20.9189 46.801 21.1288 46.3093 21.515C45.813 21.9233 45.4655 22.4844 45.3209 23.111H50.7474C50.6031 22.484 50.255 21.9226 49.7577 21.515H49.7564Z"></path><path d="M71.0371 19.6216C71.7632 20.3415 72.1263 21.305 72.1263 22.5121V29.4443H69.413V23.3179C69.413 22.6643 69.2243 22.1427 68.8471 21.753C68.4698 21.3632 67.9655 21.1675 67.3341 21.1658C66.6691 21.1658 66.1295 21.3667 65.7152 21.7685C65.3009 22.1703 65.0937 22.7005 65.0937 23.3593V29.4379H62.3804V23.3179C62.3804 22.6721 62.1888 22.1522 61.8055 21.7581C61.4222 21.3641 60.9097 21.1667 60.268 21.1658C59.9727 21.1541 59.678 21.2019 59.4015 21.3063C59.1249 21.4107 58.8722 21.5696 58.6581 21.7737C58.4508 21.9807 58.2887 22.2285 58.182 22.5014C58.0752 22.7743 58.0262 23.0664 58.0379 23.3593V29.4379H55.3298V18.7938H58.0431V19.8932C58.8433 18.9887 59.892 18.5369 61.1892 18.5378C61.8754 18.524 62.5544 18.6799 63.166 18.9917C63.7309 19.2846 64.2046 19.727 64.5356 20.2708C65.4141 19.1155 66.62 18.5378 68.1533 18.5378C69.3566 18.5404 70.3178 18.9016 71.0371 19.6216Z"></path><path d="M85.1169 24.1184C85.1169 25.7015 84.5703 27.0267 83.4773 28.0941C82.3842 29.1615 81.0258 29.6939 79.4022 29.6914C77.7794 29.6914 76.4197 29.1581 75.3232 28.0915C74.2267 27.025 73.6776 25.6997 73.6759 24.1159C73.6759 22.5328 74.225 21.2072 75.3232 20.1389C76.4215 19.0706 77.7811 18.5373 79.4022 18.5391C81.025 18.5391 82.3833 19.0723 83.4773 20.1389C84.5712 21.2055 85.1177 22.532 85.1169 24.1184ZM81.4992 26.2227C82.029 25.6501 82.3234 24.8983 82.3234 24.1178C82.3234 23.3373 82.029 22.5855 81.4992 22.0129C81.2254 21.7384 80.9003 21.5205 80.5423 21.3719C80.1844 21.2233 79.8007 21.1468 79.4132 21.1468C79.0257 21.1468 78.642 21.2233 78.284 21.3719C77.9261 21.5205 77.6009 21.7384 77.3272 22.0129C76.7912 22.5804 76.4925 23.3317 76.4925 24.1126C76.4925 24.8936 76.7912 25.6449 77.3272 26.2123C77.886 26.7539 78.6334 27.0567 79.4112 27.0567C80.1891 27.0567 80.9364 26.7539 81.4953 26.2123L81.4992 26.2227Z"></path><path d="M90.0723 21.2731V25.6989C90.0723 26.6094 90.5611 27.0646 91.5387 27.0646C92.024 27.0467 92.4998 26.925 92.9341 26.7077V29.2374C92.3211 29.5545 91.6381 29.712 90.9483 29.6952C89.7596 29.6952 88.8646 29.3779 88.2634 28.7433C87.6622 28.1087 87.3607 27.2405 87.359 26.1386V21.2757H85.6677V18.7951H87.359V17.022L90.0723 16.0934V18.7951H92.9341V21.2731H90.0723Z"></path><path d="M104.943 25.0988H96.7024C96.8719 25.7418 97.2569 26.307 97.7929 26.6999C98.3627 27.105 99.0492 27.3125 99.7477 27.2909C100.335 27.2978 100.917 27.1704 101.448 26.9185C101.923 26.703 102.342 26.3803 102.672 25.9756L104.48 27.5664C103.912 28.2429 103.196 28.78 102.387 29.1365C101.529 29.5157 100.6 29.7067 99.6624 29.6965C98.6085 29.7121 97.5678 29.4598 96.6378 28.9632C95.7588 28.4966 95.0256 27.7962 94.5189 26.9392C94.0227 26.0761 93.7595 25.0987 93.7552 24.1029C93.7509 23.1072 94.0056 22.1275 94.4943 21.2602C94.9779 20.4217 95.6823 19.7323 96.5306 19.2672C97.411 18.7808 98.4024 18.5312 99.4079 18.5429C101.003 18.5429 102.334 19.0749 103.4 20.1389C104.467 21.2029 105 22.5367 105 24.1404C105.002 24.4608 104.983 24.7809 104.943 25.0988ZM101.122 21.515C100.631 21.1288 100.024 20.9189 99.3989 20.9189C98.7739 20.9189 98.167 21.1288 97.6753 21.515C97.179 21.9233 96.8315 22.4844 96.6869 23.1109H102.113C101.968 22.4823 101.617 21.92 101.117 21.5124L101.122 21.515Z"></path></g></svg>