<svg width="224" height="28" viewBox="0 0 224 28" fill="none" xmlns="http://www.w3.org/2000/svg">
<g clip-path="url(#clip0_7874_11720)">
<path d="M28.1511 9.48438H39.2794V11.5139H34.8976V22.9549H32.4961V11.5139H28.1328L28.1511 9.48438ZM38.8027 13.2023H40.8559V15.0881H40.8926C40.9718 14.8098 41.1023 14.5481 41.2776 14.3158C41.465 14.0542 41.694 13.8238 41.9559 13.6333C42.2179 13.4177 42.5155 13.2476 42.8359 13.1304C43.1436 13.0033 43.4737 12.9361 43.8075 12.9328C44.0642 12.9328 44.2476 12.9508 44.3392 12.9508C44.4357 12.9715 44.5339 12.9836 44.6326 12.9867V15.0522C44.4754 15.0181 44.3162 14.9941 44.1559 14.9803C43.9979 14.9594 43.8387 14.9474 43.6793 14.9444C43.3193 14.943 42.9631 15.0165 42.6342 15.1599C42.3062 15.3096 42.013 15.5236 41.7726 15.7885C41.5163 16.0994 41.3177 16.4521 41.186 16.8303C41.0317 17.294 40.9575 17.7795 40.966 18.2671V22.901H38.766L38.8027 13.2023ZM54.7158 22.9549H52.5525V21.5988H52.5159C52.2353 22.0983 51.8157 22.5094 51.3059 22.7842C50.8131 23.0751 50.2494 23.2303 49.6742 23.2332C48.3725 23.2332 47.4192 22.9279 46.8326 22.2813C46.2459 21.6347 45.9525 20.6828 45.9525 19.4076V13.2112H48.1525V19.1921C48.1525 20.0542 48.3175 20.6649 48.6659 21.0061C49.0142 21.3474 49.4725 21.545 50.0775 21.545C50.474 21.557 50.8683 21.4833 51.2325 21.3294C51.5249 21.2054 51.7827 21.0144 51.9841 20.7726C52.1855 20.5245 52.3295 20.2365 52.4058 19.9285C52.4968 19.5824 52.54 19.226 52.5342 18.8688V13.2112H54.7342V22.9639L54.7158 22.9549ZM58.4557 19.8297C58.5291 20.4583 58.7674 20.8894 59.1891 21.1588C59.651 21.4197 60.1777 21.5503 60.7107 21.536C60.9439 21.5338 61.1767 21.5158 61.4074 21.4821C61.6585 21.452 61.9048 21.3917 62.1407 21.3025C62.3637 21.2246 62.5604 21.0879 62.709 20.9074C62.8622 20.7201 62.9345 20.4816 62.9107 20.2428C62.9076 20.1145 62.8785 19.988 62.825 19.8708C62.7714 19.7536 62.6947 19.648 62.599 19.5603C62.3806 19.3779 62.1328 19.2323 61.8657 19.1293C61.5317 19.0115 61.1884 18.9214 60.839 18.8598C60.454 18.788 60.0691 18.6981 59.6657 18.6084C59.2624 18.5185 58.8591 18.4108 58.4741 18.2851C58.1041 18.1699 57.7569 17.9937 57.4474 17.7642C57.1436 17.5503 56.8981 17.2666 56.7325 16.938C56.537 16.5538 56.4424 16.1278 56.4574 15.6987C56.4364 15.224 56.5784 14.7561 56.8608 14.3696C57.1245 14.01 57.4697 13.715 57.8691 13.5076C58.2934 13.2829 58.7513 13.1253 59.2257 13.0406C59.6914 12.9566 60.1639 12.9146 60.6374 12.9148C61.1311 12.9123 61.6233 12.9665 62.104 13.0765C62.5551 13.1715 62.9841 13.3481 63.369 13.5973C63.7505 13.8333 64.0706 14.153 64.304 14.5313C64.5684 14.9506 64.7314 15.4237 64.7806 15.9143H62.4891C62.3791 15.3934 62.1407 15.0522 61.774 14.8725C61.3667 14.687 60.9215 14.5948 60.4723 14.6032C60.3258 14.6032 60.1241 14.6211 59.9224 14.6391C59.7165 14.6678 59.5139 14.7159 59.3174 14.7828C59.1393 14.8523 58.9772 14.9561 58.8408 15.0881C58.7734 15.1574 58.7209 15.2392 58.6862 15.3285C58.6517 15.418 58.6356 15.5133 58.6391 15.609C58.6339 15.7272 58.656 15.8451 58.7035 15.9539C58.7512 16.0627 58.8231 16.1596 58.9141 16.2376C59.1327 16.4152 59.3807 16.5549 59.6474 16.6507C59.9813 16.7684 60.3247 16.8585 60.674 16.92C61.0591 16.9919 61.4623 17.0817 61.8657 17.1715C62.2691 17.2613 62.654 17.3691 63.039 17.4948C63.4106 17.6061 63.7585 17.7827 64.0657 18.0157C64.3654 18.2315 64.6153 18.5069 64.799 18.8239C64.9925 19.196 65.0872 19.6099 65.074 20.0273C65.0916 20.5465 64.9513 21.0592 64.6707 21.5C64.3984 21.8986 64.042 22.2355 63.6256 22.4879C63.18 22.7421 62.698 22.9298 62.1957 23.0446C61.6839 23.1565 61.1617 23.2166 60.6374 23.2242C60.0496 23.2291 59.4638 23.1566 58.8958 23.0087C58.3976 22.8801 57.926 22.6674 57.5024 22.3801C57.1169 22.1016 56.803 21.7387 56.5858 21.3204C56.3486 20.8512 56.2232 20.3354 56.2191 19.8117H58.4374V19.8297H58.4557ZM65.6974 13.2023H67.3656V10.2567H69.5656V13.1843H71.5455V14.7828H69.5656V19.9913C69.567 20.1894 69.5793 20.3872 69.6023 20.5841C69.6201 20.728 69.6636 20.8678 69.7306 20.9971C69.8078 21.1084 69.916 21.1957 70.0423 21.2485C70.2306 21.3133 70.4294 21.3438 70.6289 21.3384C70.7819 21.3414 70.935 21.3354 71.0873 21.3204C71.2413 21.3052 71.3944 21.2813 71.5455 21.2485V22.9189C71.3073 22.9549 71.0689 22.9728 70.8306 22.9908C70.5936 23.0211 70.3546 23.0331 70.1156 23.0267C69.6455 23.0408 69.176 22.9863 68.7223 22.865C68.4129 22.7767 68.1299 22.6165 67.8973 22.398C67.6957 22.1799 67.5566 21.9135 67.494 21.6257C67.4187 21.271 67.3758 20.9104 67.3656 20.5481V14.8007H65.6974V13.2023ZM73.0856 13.2023H75.1572V14.5313H75.1939C75.469 13.9942 75.9212 13.5638 76.4772 13.31C77.0398 13.0545 77.6538 12.9256 78.2738 12.9328C78.9819 12.9109 79.6853 13.0524 80.3272 13.3459C80.8947 13.5968 81.3918 13.979 81.7754 14.4595C82.1732 14.9479 82.4662 15.5098 82.6371 16.1118C83.0153 17.389 83.028 18.7435 82.6738 20.0273C82.5088 20.6124 82.2421 21.1652 81.8855 21.6617C81.5337 22.1343 81.0758 22.5214 80.5471 22.7932C79.9585 23.091 79.3028 23.2393 78.6405 23.2242C78.3207 23.2211 78.0017 23.191 77.6872 23.1345C77.3719 23.0804 77.0642 22.99 76.7706 22.865C76.4792 22.7423 76.2074 22.579 75.9638 22.3801C75.7184 22.1885 75.5078 21.9578 75.3405 21.6976H75.3039V26.5649H73.1039V13.2023H73.0856ZM80.7671 18.0875C80.7706 17.6559 80.7088 17.2262 80.5838 16.8123C80.4783 16.4176 80.298 16.046 80.0522 15.7167C79.8207 15.4053 79.5276 15.1426 79.1905 14.9444C78.8263 14.7467 78.415 14.6475 77.9989 14.657C77.0821 14.657 76.3855 14.9624 75.9088 15.591C75.4322 16.2196 75.2122 17.0637 75.2122 18.1055C75.2039 18.5668 75.2657 19.0269 75.3955 19.4704C75.5036 19.862 75.6906 20.2285 75.9455 20.5481C76.1812 20.8483 76.4817 21.0936 76.8256 21.2665C77.1937 21.4522 77.6033 21.5448 78.0172 21.536C78.4593 21.5485 78.8966 21.4429 79.2821 21.2306C79.6189 21.0319 79.9119 20.7693 80.1439 20.4583C80.3722 20.126 80.5338 19.7542 80.6205 19.3627C80.7145 18.9438 80.7636 18.5165 80.7671 18.0875ZM84.6355 9.48438H86.8354V11.5139H84.6355V9.48438ZM84.6355 13.2023H86.8354V22.9549H84.6355V13.2023ZM88.7971 9.48438H90.997V22.9549H88.7971V9.48438ZM97.7071 23.2242C96.9775 23.239 96.2536 23.1045 95.5804 22.8292C94.9879 22.5824 94.4518 22.2221 94.0036 21.7694C93.568 21.2963 93.2372 20.7397 93.032 20.135C92.8007 19.47 92.683 18.7722 92.6836 18.0695C92.6739 17.3721 92.7919 16.6786 93.032 16.022C93.2415 15.4192 93.5718 14.8635 94.0036 14.3876C94.4436 13.9254 94.9818 13.5637 95.5804 13.328C96.2556 13.0611 96.9784 12.9269 97.7071 12.9328C98.4366 12.9181 99.1605 13.0527 99.8337 13.328C100.43 13.5682 100.967 13.9293 101.41 14.3876C101.846 14.8609 102.177 15.4173 102.381 16.022C102.613 16.6809 102.731 17.3728 102.73 18.0695C102.741 18.7729 102.623 19.4725 102.381 20.135C102.166 20.7346 101.835 21.289 101.41 21.7694C100.97 22.2316 100.432 22.5934 99.8337 22.8292C99.1585 23.0975 98.4357 23.2319 97.7071 23.2242ZM97.7071 21.518C98.1482 21.5259 98.5846 21.4206 98.9723 21.2127C99.3228 21.0181 99.6236 20.7478 99.8518 20.4224C100.089 20.0903 100.262 19.7191 100.366 19.3268C100.585 18.5086 100.585 17.6485 100.366 16.8303C100.266 16.4367 100.092 16.065 99.8518 15.7347C99.6179 15.4186 99.318 15.1552 98.9723 14.9624C98.5837 14.7565 98.1482 14.6514 97.7071 14.657C97.2649 14.6491 96.8295 14.7544 96.4418 14.9624C96.0961 15.1557 95.7962 15.419 95.5623 15.7347C95.322 16.065 95.1478 16.4367 95.0486 16.8303C94.8286 17.6485 94.8286 18.5086 95.0486 19.3268C95.1478 19.7204 95.322 20.0921 95.5623 20.4224C95.7953 20.7439 96.0951 21.0132 96.4418 21.2127C96.8266 21.4267 97.2649 21.5324 97.7071 21.518ZM103.39 13.2023H105.058V10.2567H107.258V13.1843H109.239V14.7828H107.258V19.9913C107.26 20.1894 107.272 20.3872 107.296 20.5841C107.313 20.728 107.357 20.8678 107.423 20.9971C107.501 21.1084 107.609 21.1957 107.735 21.2485C107.924 21.3133 108.122 21.3438 108.322 21.3384C108.475 21.3414 108.628 21.3354 108.78 21.3204C108.934 21.3052 109.087 21.2813 109.239 21.2485V22.9189C109 22.9549 108.761 22.9728 108.524 22.9908C108.287 23.0211 108.047 23.0331 107.808 23.0267C107.339 23.0408 106.869 22.9863 106.415 22.865C106.106 22.7767 105.823 22.6165 105.59 22.398C105.389 22.1799 105.249 21.9135 105.187 21.6257C105.112 21.271 105.069 20.9104 105.058 20.5481V14.8007H103.39V13.2023Z" fill="#1D3C5F"/>
<path d="M26.3447 9.72699H16.2798L13.1815 0.351562L10.0649 9.72699L0 9.70909L8.1399 15.5104L5.02327 24.8947L13.1632 19.0934L21.3031 24.8947L18.2048 15.5193L26.3447 9.72699Z" fill="#1D3C5F"/>
<path d="M18.5559 17.2287L17.8592 15.1094L12.8359 18.6835L18.5559 17.2287Z" fill="#1D3C5F"/>
</g>
<path d="M130.705 4.78125L133.848 10.9439L140.354 12.2045L135.79 17.2738L136.669 24.2155L130.705 21.1858L124.741 24.2155L125.619 17.2738L121.055 12.2045L127.562 10.9439L130.705 4.78125Z" fill="#1D3C5F"/>
<path d="M171.888 4.78125L175.215 10.9439L182.105 12.2045L177.272 17.2738L178.202 24.2155L171.888 21.1858L165.573 24.2155L166.503 17.2738L161.67 12.2045L168.56 10.9439L171.888 4.78125Z" fill="#1D3C5F"/>
<path d="M151.002 4.78125L154.145 10.9439L160.651 12.2045L156.087 17.2738L156.965 24.2155L151.002 21.1858L145.038 24.2155L145.916 17.2738L141.352 12.2045L147.859 10.9439L151.002 4.78125Z" fill="#1D3C5F"/>
<path d="M192.775 4.78125L195.918 10.9439L202.425 12.2045L197.86 17.2738L198.739 24.2155L192.775 21.1858L186.811 24.2155L187.69 17.2738L183.125 12.2045L189.632 10.9439L192.775 4.78125Z" fill="#1D3C5F"/>
<path d="M213.068 5.4381L215.945 11.0795L216.011 11.2092L216.154 11.2369L222.143 12.3971L217.932 17.0741L217.84 17.1756L217.857 17.3112L218.665 23.6945L213.203 20.9197L213.068 20.8511L212.933 20.9197L207.471 23.6945L208.279 17.3112L208.296 17.1756L208.204 17.0741L203.993 12.3971L209.982 11.2369L210.125 11.2092L210.191 11.0795L213.068 5.4381Z" stroke="#1D3C5F" stroke-width="0.596833"/>
<path fill-rule="evenodd" clip-rule="evenodd" d="M213.663 5.95701V21.4846L213.06 21.178L207.096 24.2077L207.974 17.2659L203.41 12.1967L209.917 10.9361L213.06 4.77344L213.663 5.95701Z" fill="#1D3C5F"/>
<defs>
<clipPath id="clip0_7874_11720">
<rect width="109.817" height="27.4543" fill="white"/>
</clipPath>
</defs>
</svg>
