<svg xmlns="http://www.w3.org/2000/svg" width="155" height="48" viewBox="0 0 155 48" fill="none" aria-hidden="true">
<path d="M154.68 25.3889C154.68 25.3672 154.68 25.3518 154.675 25.3301C154.675 25.3084 154.675 25.293 154.671 25.2713C154.66 25.1862 154.643 25.1011 154.627 25.0161C154.627 25.0006 154.622 24.9836 154.616 24.9681V24.9635C154.616 24.948 154.612 24.9263 154.605 24.9109C154.605 24.8892 154.595 24.8738 154.595 24.8521C154.595 24.8304 154.584 24.815 154.584 24.7933C154.584 24.7717 154.574 24.7562 154.569 24.7346C154.569 24.7129 154.558 24.6974 154.552 24.6758V24.6711C154.552 24.6557 154.541 24.634 154.536 24.617V24.6061C154.536 24.5907 154.526 24.5737 154.521 24.5581V24.5473C154.521 24.5319 154.51 24.5149 154.505 24.4994V24.4839C154.505 24.4685 154.494 24.4515 154.49 24.436V24.4205C154.49 24.405 154.479 24.3942 154.473 24.3772C154.473 24.3726 154.473 24.3663 154.468 24.3617C154.468 24.3462 154.457 24.3355 154.452 24.3184C154.452 24.3138 154.452 24.3076 154.448 24.2968C154.448 24.2859 154.437 24.2705 154.432 24.2596C154.432 24.255 154.432 24.2441 154.427 24.2379C154.427 24.2271 154.417 24.2117 154.417 24.2008C154.417 24.1962 154.412 24.1854 154.406 24.1791C154.406 24.1684 154.396 24.1576 154.396 24.1467C154.396 24.1359 154.391 24.1312 154.385 24.1204C154.385 24.1096 154.374 24.0987 154.374 24.0879C154.374 24.0771 154.369 24.0725 154.363 24.0616C154.363 24.0508 154.352 24.0399 154.352 24.0291C154.352 24.0183 154.342 24.0075 154.342 24.0028C154.342 23.992 154.337 23.9811 154.331 23.9766C154.331 23.9657 154.32 23.9549 154.32 23.944C154.32 23.9333 154.315 23.9286 154.309 23.9177C154.309 23.9069 154.298 23.8961 154.293 23.8852C154.293 23.8745 154.289 23.8698 154.282 23.8589C154.282 23.8481 154.272 23.8374 154.267 23.8265C154.267 23.8218 154.262 23.811 154.256 23.8048C154.251 23.794 154.245 23.7831 154.24 23.7677C154.24 23.763 154.236 23.7523 154.229 23.746C154.223 23.7352 154.219 23.7197 154.212 23.7089C154.212 23.7043 154.208 23.6981 154.201 23.6873C154.198 23.6765 154.192 23.6609 154.181 23.6501C154.181 23.6455 154.176 23.6393 154.17 23.6347C154.165 23.6238 154.154 23.6084 154.148 23.5976C154.148 23.5976 154.144 23.5867 154.137 23.582C154.133 23.5666 154.122 23.5558 154.116 23.5387C154.116 23.5387 154.116 23.5279 154.111 23.5233C154.106 23.5078 154.095 23.497 154.089 23.4799C154.089 23.4799 154.089 23.4692 154.084 23.4692C154.08 23.4537 154.069 23.4428 154.063 23.4258C154.063 23.4258 154.063 23.415 154.058 23.415C154.052 23.3995 154.041 23.3887 154.036 23.3717C154.036 23.3717 154.036 23.3608 154.031 23.3608C154.027 23.35 154.016 23.3346 154.01 23.3237C154.01 23.3237 154.005 23.3129 153.999 23.3083C153.995 23.2975 153.989 23.2866 153.978 23.2758C153.908 23.1644 153.833 23.0577 153.758 22.9509C153.748 22.9355 153.737 22.9184 153.726 22.903C153.715 22.8875 153.704 22.8767 153.693 22.8596V22.855C153.682 22.8395 153.671 22.8287 153.66 22.8117L153.656 22.8071C153.645 22.7963 153.634 22.7807 153.623 22.77C153.623 22.77 153.623 22.7653 153.619 22.7591C153.608 22.7483 153.598 22.7328 153.587 22.722C153.587 22.722 153.582 22.7174 153.576 22.7112C153.565 22.7003 153.554 22.6895 153.55 22.6786C153.55 22.6786 153.545 22.6679 153.539 22.6632C153.528 22.6524 153.523 22.6415 153.512 22.6307C153.512 22.6307 153.501 22.6198 153.497 22.6153C153.486 22.6044 153.481 22.5936 153.47 22.589C153.47 22.5843 153.459 22.5782 153.453 22.5735C153.448 22.5626 153.438 22.5581 153.431 22.5472C153.427 22.5425 153.421 22.5364 153.416 22.5255C153.411 22.5209 153.4 22.5101 153.395 22.5038C153.39 22.4992 153.38 22.4884 153.373 22.4822C153.367 22.4776 153.362 22.4667 153.351 22.4605C153.347 22.4497 153.336 22.4451 153.33 22.4343C153.325 22.4296 153.319 22.4234 153.314 22.4187C153.303 22.408 153.299 22.4033 153.288 22.3925C153.288 22.3925 153.277 22.3816 153.271 22.3771C153.26 22.3662 153.249 22.3554 153.244 22.3507C153.244 22.3507 153.233 22.3398 153.229 22.3398C153.218 22.3291 153.207 22.3183 153.197 22.3074C153.197 22.3074 153.192 22.3027 153.186 22.2966C153.175 22.2857 153.164 22.275 153.153 22.2641C153.153 22.2641 153.149 22.2594 153.143 22.2533C153.132 22.2424 153.116 22.2316 153.105 22.2208L153.101 22.2162C153.09 22.2053 153.074 22.1945 153.063 22.179C153.048 22.1682 153.037 22.1528 153.02 22.1419C152.855 21.9981 152.674 21.865 152.493 21.7412C152.493 21.7412 152.488 21.7412 152.482 21.7366C152.471 21.732 152.466 21.7258 152.455 21.7211C152.444 21.7165 152.44 21.7103 152.427 21.7057C152.423 21.7057 152.412 21.6949 152.406 21.6949C152.396 21.6902 152.385 21.6793 152.374 21.6732C152.369 21.6732 152.363 21.6685 152.358 21.6623C152.347 21.6578 152.337 21.6469 152.321 21.6406C152.317 21.6406 152.31 21.6361 152.306 21.6299C152.295 21.6252 152.279 21.6144 152.268 21.6082C152.209 21.5742 152.147 21.5479 152.086 21.517L136.974 12.7073C136.995 12.7196 137.012 12.7351 137.033 12.7475C136.237 12.2479 135.316 11.9694 134.363 11.9663C133.023 11.9663 131.733 12.4892 130.784 13.439C130.458 13.7638 130.18 14.1273 129.956 14.5156C129.951 14.5265 129.945 14.5373 129.934 14.5481C129.934 14.5527 129.923 14.5636 129.923 14.5698C129.923 14.576 129.919 14.5806 129.912 14.5852C129.908 14.5961 129.897 14.6115 129.891 14.6224C129.294 15.7423 129.139 17.0541 129.464 18.287C129.806 19.5833 130.647 20.6925 131.805 21.3638C131.805 21.3638 132.733 22.0352 138.35 25.1614C138.739 25.378 139.377 25.7802 139.377 25.7802L139.374 25.7786V25.8065L139.377 25.8112C139.377 25.8112 139.673 26.0262 139.806 26.1252C142.775 28.3233 144.168 30.9733 143.928 34.7013C143.928 34.7492 143.917 34.7971 143.912 34.8514L151.408 30.7304C151.668 30.6391 151.921 30.5339 152.159 30.4024C152.176 30.3916 152.191 30.387 152.206 30.3761H152.211C152.226 30.3653 152.243 30.3606 152.259 30.3498H152.264C152.279 30.3389 152.296 30.3282 152.312 30.3235H152.317C152.332 30.3127 152.349 30.3018 152.365 30.2972H152.369C152.385 30.2864 152.396 30.2817 152.41 30.2709C152.41 30.2709 152.415 30.2709 152.421 30.2663C152.432 30.2616 152.443 30.2554 152.454 30.2446C152.528 30.1966 152.604 30.1441 152.678 30.09C152.695 30.0791 152.711 30.0683 152.726 30.0574C152.742 30.0466 152.759 30.0357 152.775 30.0249C152.79 30.0142 152.806 30.0033 152.816 29.9925C152.831 29.9816 152.842 29.9708 152.859 29.96H152.864C152.875 29.9492 152.89 29.9383 152.901 29.9275C152.901 29.9275 152.906 29.9275 152.912 29.9229C152.923 29.9121 152.94 29.9012 152.949 29.8904C152.949 29.8904 152.954 29.8857 152.96 29.8795C152.971 29.8687 152.982 29.8578 152.997 29.8471C152.997 29.8471 153.007 29.8424 153.007 29.8362C153.018 29.8254 153.029 29.8146 153.04 29.81C153.04 29.81 153.051 29.7991 153.056 29.7991C153.067 29.7883 153.077 29.7836 153.088 29.7728C153.093 29.7728 153.099 29.762 153.104 29.7573C153.115 29.7465 153.121 29.7419 153.132 29.7311C153.136 29.7264 153.143 29.7202 153.147 29.7155C153.158 29.711 153.163 29.7001 153.174 29.694C153.178 29.6893 153.189 29.6831 153.196 29.6723C153.2 29.6676 153.21 29.6567 153.216 29.6506C153.221 29.646 153.232 29.6351 153.238 29.629C153.243 29.6243 153.254 29.6181 153.26 29.6073C153.271 29.6026 153.275 29.5919 153.281 29.5856C153.286 29.581 153.292 29.5748 153.297 29.5702C153.308 29.5593 153.313 29.5547 153.323 29.5439C153.323 29.5439 153.334 29.5331 153.339 29.5284C153.35 29.5175 153.355 29.5068 153.367 29.5021C153.367 29.5021 153.378 29.4913 153.378 29.4866C153.389 29.4758 153.399 29.465 153.41 29.4542C153.41 29.4542 153.414 29.4495 153.421 29.4433C153.431 29.4325 153.442 29.4216 153.453 29.4109C153.453 29.4109 153.458 29.4062 153.464 29.4C153.475 29.3892 153.486 29.3738 153.497 29.3629L153.501 29.3582C153.512 29.3474 153.523 29.332 153.534 29.3211V29.3164C153.545 29.301 153.556 29.2902 153.571 29.2732C153.582 29.2576 153.598 29.2469 153.608 29.2299C153.721 29.0968 153.821 28.953 153.918 28.8091C153.922 28.7982 153.928 28.7936 153.933 28.7828C153.933 28.7781 153.938 28.772 153.944 28.7673C153.949 28.7564 153.96 28.7457 153.966 28.7302C153.966 28.7302 153.97 28.7193 153.977 28.7148C153.988 28.7039 153.992 28.6884 154.002 28.6776C154.002 28.6776 154.002 28.6668 154.007 28.6668C154.017 28.6513 154.022 28.6405 154.033 28.6235C154.033 28.6235 154.033 28.6127 154.038 28.6127C154.049 28.5971 154.055 28.5863 154.066 28.5693C154.066 28.5693 154.066 28.5584 154.07 28.5539C154.075 28.5383 154.086 28.5276 154.092 28.5106C154.092 28.5106 154.097 28.4997 154.103 28.4951C154.108 28.4842 154.119 28.4688 154.125 28.4579C154.125 28.4533 154.13 28.4471 154.136 28.4424C154.14 28.4317 154.151 28.4161 154.158 28.4054C154.158 28.4007 154.162 28.3946 154.168 28.3899C154.173 28.379 154.179 28.3636 154.19 28.3528C154.19 28.3481 154.195 28.3419 154.2 28.3311C154.205 28.3202 154.211 28.3048 154.217 28.294C154.217 28.2893 154.222 28.2785 154.228 28.2723C154.233 28.2615 154.239 28.2507 154.243 28.2352C154.243 28.2306 154.248 28.2197 154.254 28.2136C154.259 28.2027 154.265 28.1919 154.27 28.181C154.27 28.1764 154.275 28.1656 154.281 28.1594C154.281 28.1486 154.292 28.1377 154.296 28.1269C154.296 28.116 154.301 28.1115 154.307 28.1006C154.307 28.0898 154.318 28.0789 154.323 28.0681C154.323 28.0572 154.328 28.0527 154.334 28.0418C154.334 28.031 154.345 28.0201 154.345 28.0093C154.345 27.9985 154.356 27.9877 154.356 27.983C154.356 27.9722 154.36 27.9614 154.366 27.9567C154.366 27.9459 154.377 27.9351 154.377 27.9243C154.377 27.9135 154.382 27.9088 154.388 27.8979C154.388 27.8871 154.399 27.8762 154.399 27.8655C154.399 27.8547 154.403 27.85 154.409 27.8391C154.409 27.8284 154.42 27.8175 154.42 27.8067C154.42 27.7958 154.424 27.7912 154.431 27.7804C154.431 27.7696 154.442 27.7587 154.442 27.7433C154.442 27.7386 154.446 27.7278 154.452 27.7216C154.452 27.7108 154.463 27.6954 154.463 27.6845C154.463 27.6798 154.463 27.669 154.468 27.6628C154.468 27.652 154.479 27.6365 154.479 27.6257C154.479 27.621 154.479 27.6103 154.484 27.604C154.484 27.5886 154.494 27.5777 154.494 27.5607C154.494 27.556 154.494 27.5499 154.499 27.539C154.499 27.5236 154.51 27.5128 154.51 27.4958C154.51 27.4911 154.51 27.4849 154.515 27.4803C154.515 27.4648 154.526 27.454 154.526 27.4369V27.4215C154.526 27.406 154.536 27.3952 154.536 27.3781V27.3627C154.536 27.3473 154.541 27.3364 154.547 27.3194V27.3039C154.547 27.2885 154.552 27.2776 154.558 27.2606V27.2452C154.558 27.2344 154.564 27.2188 154.569 27.2081C154.569 27.1972 154.569 27.1926 154.574 27.1817V27.16C154.61 26.9899 154.643 26.8136 154.664 26.6372C154.664 26.6217 154.664 26.6001 154.669 26.5846V26.58C154.669 26.5645 154.669 26.5428 154.674 26.5274V25.9999L154.678 25.9149V25.4508C154.678 25.4291 154.678 25.4136 154.674 25.392L154.68 25.3889Z" fill="#0F3157"></path>
<path d="M10.2019 22.4556C9.86 22.007 9.39594 21.6233 8.79883 21.2923C8.20171 20.9614 7.55666 20.7958 6.85282 20.7958C6.23405 20.7958 5.67406 20.9241 5.16205 21.1795C4.65001 21.4347 4.39942 21.8617 4.39942 22.4541C4.39942 23.0465 4.6825 23.4673 5.24248 23.7133C5.80709 23.9593 6.62852 24.2098 7.71135 24.4605C8.28679 24.5888 8.8638 24.759 9.45006 24.9725C10.0364 25.1859 10.5653 25.469 11.0449 25.8155C11.5244 26.1682 11.9096 26.6044 12.2082 27.1226C12.5067 27.6455 12.6568 28.2751 12.6568 29.0207C12.6568 29.9535 12.4805 30.7486 12.1293 31.3937C11.7767 32.0387 11.3126 32.5678 10.7262 32.9731C10.14 33.3783 9.46246 33.6661 8.689 33.8471C7.9109 34.0281 7.1096 34.1193 6.28356 34.1193C5.09398 34.1193 3.9369 33.9012 2.80608 33.4634C1.67995 33.0257 0.742516 32.4069 0 31.5964L2.51683 29.2388C2.94376 29.7942 3.49292 30.2474 4.1751 30.6094C4.85266 30.9714 5.6091 31.1539 6.43669 31.1539C6.71359 31.1539 6.99203 31.1214 7.27975 31.058C7.56749 30.9946 7.83509 30.8925 8.07486 30.7533C8.32082 30.6141 8.5173 30.4284 8.66734 30.1933C8.81739 29.9581 8.89164 29.6704 8.89164 29.3348C8.89164 28.6943 8.59774 28.241 8.01763 27.9642C7.43135 27.6873 6.5558 27.4151 5.38789 27.1382C4.81245 27.0097 4.2571 26.8442 3.7126 26.6415C3.16808 26.439 2.68853 26.1775 2.26159 25.8464C1.83463 25.5154 1.49431 25.1054 1.24217 24.6198C0.986929 24.1294 0.858535 23.5261 0.858535 22.8006C0.858535 21.9529 1.03488 21.2166 1.38604 20.6025C1.73873 19.9883 2.2028 19.4824 2.77205 19.088C3.34751 18.6935 3.99413 18.3996 4.71807 18.214C5.4374 18.0222 6.18454 17.9263 6.94717 17.9263C8.05166 17.9263 9.12831 18.1181 10.1848 18.5017C11.2352 18.8853 12.0736 19.467 12.6862 20.2559L10.2003 22.4541L10.2019 22.4556Z" fill="#0F3157"></path>
<path d="M23.6831 17.9265C24.6809 17.9265 25.5394 18.1028 26.2479 18.454C26.9626 18.8067 27.5441 19.2646 28.0022 19.8401C28.4554 20.4155 28.791 21.0714 29.0046 21.8185C29.218 22.5594 29.3248 23.3283 29.3248 24.1126V33.6756H25.5009V25.2588C25.5009 24.8103 25.4683 24.3524 25.4047 23.8728C25.3415 23.3933 25.2067 22.9601 25.0043 22.5657C24.8016 22.1712 24.5139 21.851 24.1457 21.5942C23.7729 21.339 23.281 21.2106 22.6622 21.2106C22.0434 21.2106 21.5159 21.3281 21.0673 21.5632C20.6188 21.7984 20.2505 22.1124 19.952 22.5022C19.6534 22.8968 19.4291 23.3345 19.2807 23.8248C19.1306 24.3153 19.0564 24.8118 19.0564 25.3238V33.6756H15.2324V9.57471H19.0564V20.5083H19.1198C19.2698 20.1881 19.4879 19.8787 19.7757 19.5693C20.0634 19.2599 20.3944 18.983 20.7781 18.7432C21.1617 18.5035 21.5948 18.3008 22.0852 18.1508C22.5756 18.0007 23.1046 17.9265 23.6801 17.9265H23.6831Z" fill="#0F3157"></path>
<path d="M31.2971 25.9594C31.2971 24.7482 31.5152 23.6499 31.9483 22.6582C32.386 21.6714 32.9722 20.8236 33.7195 20.1244C34.4605 19.4252 35.3469 18.8823 36.3647 18.4971C37.3842 18.1135 38.4671 17.9216 39.618 17.9216C40.7688 17.9216 41.847 18.1135 42.871 18.4971C43.8905 18.8807 44.7691 19.4191 45.5162 20.1244C46.2572 20.8236 46.8497 21.6714 47.2874 22.6582C47.7192 23.6452 47.9388 24.7435 47.9388 25.9594C47.9388 27.1752 47.7207 28.2736 47.2874 29.2775C46.8497 30.2752 46.2587 31.1338 45.5162 31.8423C44.7691 32.5569 43.8887 33.1123 42.871 33.5176C41.8515 33.9229 40.7703 34.1256 39.618 34.1256C38.4656 34.1256 37.3827 33.9229 36.3647 33.5176C35.3454 33.1123 34.4605 32.5569 33.7195 31.8423C32.9784 31.1323 32.386 30.2737 31.9483 29.2775C31.5106 28.2797 31.2971 27.1768 31.2971 25.9594ZM35.1859 25.9594C35.1859 26.5565 35.2773 27.149 35.4582 27.7461C35.6393 28.3432 35.9115 28.8723 36.2749 29.3409C36.6369 29.8097 37.0902 30.1887 37.6455 30.4872C38.1947 30.7858 38.8568 30.9358 39.6242 30.9358C40.3912 30.9358 41.0488 30.7858 41.6026 30.4872C42.1578 30.1887 42.6111 29.805 42.9731 29.3409C43.335 28.8723 43.6073 28.3432 43.7837 27.7461C43.9647 27.149 44.056 26.5565 44.056 25.9594C44.056 25.3623 43.9647 24.776 43.7837 24.1882C43.6026 23.6019 43.3306 23.079 42.9731 22.6088C42.6111 22.14 42.1563 21.7657 41.6026 21.4779C41.0471 21.1903 40.3912 21.0464 39.6242 21.0464C38.8568 21.0464 38.1995 21.1903 37.6455 21.4779C37.0902 21.7657 36.6369 22.1447 36.2749 22.6088C35.913 23.0775 35.6408 23.6003 35.4582 24.1882C35.2773 24.7745 35.1859 25.3623 35.1859 25.9594Z" fill="#0F3157"></path>
<path d="M49.4717 25.9594C49.4717 24.7482 49.6898 23.6499 50.1275 22.6582C50.5652 21.6714 51.1515 20.8236 51.8987 20.1244C52.6397 19.4252 53.5261 18.8823 54.5439 18.4971C55.5634 18.1135 56.6463 17.9216 57.7972 17.9216C58.9479 17.9216 60.0263 18.1135 61.0503 18.4971C62.0698 18.8807 62.9543 19.4191 63.6954 20.1244C64.4364 20.8283 65.0289 21.6714 65.4667 22.6582C65.9044 23.6452 66.118 24.7435 66.118 25.9594C66.118 27.1752 65.8999 28.2736 65.4667 29.2775C65.0289 30.2752 64.4427 31.1338 63.6954 31.8423C62.9543 32.5569 62.068 33.1123 61.0503 33.5176C60.0308 33.9229 58.9496 34.1256 57.7972 34.1256C56.6445 34.1256 55.5679 33.9229 54.5439 33.5176C53.5246 33.1123 52.6397 32.5569 51.8987 31.8423C51.1576 31.1323 50.5652 30.2737 50.1275 29.2775C49.6898 28.2797 49.4717 27.1768 49.4717 25.9594ZM53.3604 25.9594C53.3604 26.5565 53.4519 27.149 53.6327 27.7461C53.8138 28.3432 54.0861 28.8723 54.4433 29.3409C54.8007 29.8097 55.2601 30.1887 55.8139 30.4872C56.3631 30.7858 57.0251 30.9358 57.7925 30.9358C58.5596 30.9358 59.2171 30.7858 59.7709 30.4872C60.3264 30.1887 60.7795 29.805 61.1414 29.3409C61.5034 28.8723 61.7756 28.3432 61.952 27.7461C62.1284 27.149 62.2243 26.5565 62.2243 25.9594C62.2243 25.3623 62.1331 24.776 61.952 24.1882C61.7712 23.6019 61.4989 23.079 61.1414 22.6088C60.7795 22.14 60.3246 21.7657 59.7709 21.4779C59.2156 21.1903 58.5596 21.0464 57.7925 21.0464C57.0251 21.0464 56.3678 21.1903 55.8139 21.4779C55.2586 21.7657 54.8052 22.1447 54.4433 22.6088C54.0813 23.0775 53.8091 23.6003 53.6327 24.1882C53.4519 24.7745 53.3604 25.3623 53.3604 25.9594Z" fill="#0F3157"></path>
<path d="M66.6564 21.4363V18.375H69.3339V13.9431H73.0945V18.375H76.9186V21.4363H73.0945V28.546C73.0945 29.2282 73.2167 29.7882 73.4626 30.2367C73.7085 30.6854 74.2516 30.9081 75.1054 30.9081C75.3622 30.9081 75.6392 30.8818 75.9316 30.8277C76.23 30.775 76.4916 30.6946 76.7266 30.5879L76.855 33.5858C76.5132 33.7142 76.114 33.8147 75.6437 33.8889C75.1752 33.9633 74.7313 34.0004 74.3057 34.0004C73.2862 34.0004 72.4558 33.8565 71.8197 33.5687C71.1793 33.2811 70.6782 32.8866 70.3054 32.39C69.9326 31.8888 69.6759 31.318 69.5427 30.6668C69.4036 30.0217 69.3356 29.3225 69.3356 28.5815V21.4394H66.6579V21.4348L66.6564 21.4363Z" fill="#0F3157"></path>
<path d="M88.7167 22.4556C88.3748 22.007 87.9061 21.6233 87.3137 21.2923C86.7211 20.9614 86.0715 20.7958 85.3722 20.7958C84.7537 20.7958 84.1935 20.9241 83.6814 21.1795C83.1695 21.4347 82.9144 21.8617 82.9144 22.4541C82.9144 23.0465 83.1973 23.4673 83.7572 23.7133C84.3174 23.9593 85.1434 24.2098 86.2263 24.4605C86.8016 24.5888 87.3787 24.759 87.965 24.9725C88.5513 25.1859 89.0804 25.469 89.5598 25.8155C90.0393 26.162 90.4231 26.6044 90.7214 27.1226C91.02 27.6393 91.1686 28.2751 91.1686 29.0207C91.1686 29.9535 90.9923 30.7486 90.6412 31.3937C90.2885 32.0387 89.8259 32.5678 89.2381 32.9731C88.6519 33.3783 87.9741 33.6661 87.1946 33.8471C86.421 34.0281 85.6152 34.1193 84.7892 34.1193C83.5995 34.1193 82.4426 33.9012 81.3118 33.4634C80.1872 33.0257 79.2482 32.4069 78.5056 31.5964L81.0239 29.2388C81.4509 29.7942 82.0001 30.2474 82.6823 30.6094C83.3645 30.9714 84.1177 31.1539 84.9499 31.1539C85.2269 31.1539 85.5039 31.1214 85.7916 31.058C86.0792 30.9946 86.3468 30.8925 86.5867 30.7533C86.8327 30.6141 87.0292 30.4284 87.1792 30.1933C87.3275 29.9581 87.4035 29.6704 87.4035 29.3348C87.4035 28.6943 87.1112 28.241 86.5294 27.9642C85.9431 27.6873 85.0677 27.4151 83.8996 27.1382C83.3242 27.0097 82.7688 26.8442 82.226 26.6415C81.6814 26.439 81.2017 26.1775 80.775 25.8464C80.3479 25.5154 80.0123 25.1054 79.7555 24.6198C79.5003 24.1294 79.3719 23.5261 79.3719 22.8006C79.3719 21.9529 79.5483 21.2166 79.8992 20.6025C80.2506 19.9883 80.7099 19.4824 81.287 19.088C81.8623 18.6935 82.5074 18.3996 83.2329 18.214C83.9538 18.0222 84.701 17.9263 85.4636 17.9263C86.5666 17.9263 87.6448 18.1181 88.6998 18.5017C89.7516 18.8853 90.5886 19.467 91.2011 20.2559L88.7152 22.4541L88.7167 22.4556Z" fill="#0F3157"></path>
<path d="M92.6024 21.4363V18.375H95.2801V13.9431H99.0407V18.375H102.864V21.4363H99.0407V28.546C99.0407 29.2282 99.163 29.7882 99.4089 30.2367C99.6544 30.6854 100.198 30.9081 101.051 30.9081C101.308 30.9081 101.586 30.8818 101.879 30.8277C102.178 30.775 102.44 30.6946 102.674 30.5879L102.803 33.5858C102.461 33.7142 102.061 33.8147 101.592 33.8889C101.123 33.9633 100.68 34.0004 100.253 34.0004C99.234 34.0004 98.4018 33.8565 97.7676 33.5687C97.1272 33.2811 96.6259 32.8866 96.2533 32.39C95.8788 31.8888 95.6235 31.318 95.4906 30.6668C95.3512 30.0217 95.2816 29.3225 95.2816 28.5815V21.4394H92.6039V21.4348L92.6024 21.4363Z" fill="#0F3157"></path>
<path d="M115.144 31.731H115.048C114.664 32.4132 114.052 32.9685 113.198 33.4063C112.35 33.844 111.379 34.0622 110.296 34.0622C109.677 34.0622 109.037 33.9818 108.366 33.8224C107.694 33.663 107.08 33.3955 106.514 33.0273C105.949 32.6545 105.485 32.1687 105.111 31.5609C104.738 30.9575 104.551 30.2057 104.551 29.3147C104.551 28.1684 104.875 27.2511 105.522 26.5736C106.168 25.896 107.005 25.3732 108.024 25.0112C109.043 24.6492 110.172 24.4141 111.421 24.2965C112.663 24.179 113.88 24.1202 115.068 24.1202V23.7365C115.068 22.7821 114.722 22.072 114.033 21.6142C113.339 21.161 112.519 20.932 111.565 20.932C110.759 20.932 109.981 21.1022 109.237 21.4394C108.497 21.7813 107.878 22.1974 107.388 22.6816L105.408 20.3565C106.277 19.5505 107.286 18.9427 108.422 18.5374C109.557 18.1321 110.709 17.9341 111.881 17.9341C113.241 17.9341 114.362 18.1259 115.247 18.5095C116.128 18.8932 116.825 19.3897 117.333 20.0085C117.845 20.6273 118.197 21.3156 118.401 22.0783C118.603 22.8456 118.703 23.6097 118.703 24.3723V33.6801H115.13V31.7341H115.141L115.144 31.731ZM115.081 26.6958H114.223C113.604 26.6958 112.958 26.7221 112.274 26.7762C111.593 26.8288 110.968 26.9463 110.392 27.1289C109.817 27.3099 109.34 27.5666 108.957 27.8915C108.573 28.2226 108.381 28.6696 108.381 29.2466C108.381 29.6086 108.461 29.9134 108.621 30.1531C108.782 30.3929 108.989 30.5956 109.244 30.7456C109.501 30.8957 109.789 31.0009 110.103 31.0658C110.423 31.1292 110.743 31.1618 111.058 31.1618C112.375 31.1618 113.373 30.809 114.056 30.1114C114.739 29.4122 115.076 28.4531 115.076 27.2419V26.6974H115.081V26.6958Z" fill="#0F3157"></path>
<path d="M150.929 30.8339C150.508 30.9452 150.075 30.9993 149.643 30.9993C148.757 30.9993 147.947 30.7008 147.162 30.2475L144.546 28.7192L139.38 25.8157C139.539 25.927 139.678 26.0338 139.812 26.1359C142.783 28.3341 144.175 30.9838 143.935 34.7119C143.935 34.7598 143.924 34.8078 143.92 34.8619L152.079 30.376C151.722 30.574 151.334 30.7286 150.933 30.8339H150.929Z" fill="#0F3157"></path>
<path d="M154.689 25.9224V25.4583C154.689 25.4367 154.689 25.4212 154.685 25.3995C154.685 25.3779 154.685 25.3624 154.68 25.3408C154.68 25.3191 154.68 25.3037 154.675 25.282C154.664 25.1969 154.647 25.1118 154.632 25.0267C154.632 25.0112 154.628 24.9942 154.622 24.9788V24.9741C154.622 24.9587 154.617 24.937 154.611 24.9216C154.611 24.8999 154.6 24.8845 154.6 24.8628C154.6 24.8411 154.589 24.8257 154.589 24.804C154.589 24.7824 154.578 24.7668 154.574 24.7452C154.574 24.7236 154.563 24.708 154.557 24.6865V24.6818C154.557 24.6663 154.546 24.6447 154.541 24.6276V24.6168C154.541 24.6013 154.53 24.5843 154.526 24.5688V24.558C154.526 24.5426 154.515 24.5256 154.51 24.51V24.4946C154.51 24.4791 154.499 24.4621 154.494 24.4467V24.4311C154.494 24.4157 154.484 24.4049 154.477 24.3878C154.477 24.3832 154.477 24.377 154.473 24.3724C154.473 24.3569 154.462 24.3461 154.457 24.329C154.457 24.3245 154.457 24.3183 154.452 24.3074C154.452 24.2966 154.442 24.2811 154.437 24.2702C154.437 24.2657 154.437 24.2548 154.432 24.2486C154.432 24.2378 154.422 24.2224 154.422 24.2115C154.422 24.2069 154.418 24.196 154.411 24.1898C154.411 24.179 154.4 24.1681 154.4 24.1574C154.4 24.1466 154.396 24.1419 154.39 24.131C154.39 24.1203 154.379 24.1094 154.379 24.0986C154.379 24.0877 154.374 24.0832 154.368 24.0723C154.368 24.0615 154.357 24.0506 154.357 24.0398C154.357 24.0289 154.346 24.0181 154.346 24.0135C154.346 24.0027 154.342 23.9918 154.335 23.9872C154.335 23.9764 154.324 23.9656 154.324 23.9547C154.324 23.9439 154.32 23.9392 154.314 23.9284C154.314 23.9176 154.303 23.9068 154.298 23.8959C154.298 23.8851 154.293 23.8805 154.287 23.8696C154.287 23.8588 154.276 23.8479 154.272 23.8372C154.272 23.8325 154.267 23.8217 154.261 23.8155C154.256 23.8047 154.25 23.7938 154.245 23.7784C154.245 23.7737 154.24 23.7629 154.234 23.7567C154.228 23.7459 154.224 23.7304 154.218 23.7196C154.218 23.7149 154.213 23.7087 154.207 23.6979C154.202 23.6871 154.196 23.6716 154.186 23.6608C154.186 23.6562 154.181 23.6499 154.175 23.6454C154.17 23.6345 154.159 23.6191 154.153 23.6082C154.153 23.6082 154.148 23.5974 154.142 23.5927C154.137 23.5773 154.126 23.5665 154.12 23.5494C154.12 23.5494 154.12 23.5386 154.116 23.5339C154.111 23.5185 154.1 23.5076 154.094 23.4906C154.094 23.4906 154.094 23.4798 154.089 23.4798C154.084 23.4644 154.073 23.4535 154.067 23.4365C154.067 23.4365 154.067 23.4257 154.063 23.4257C154.056 23.4102 154.045 23.3994 154.041 23.3824C154.041 23.3824 154.041 23.3715 154.036 23.3715C154.031 23.3607 154.022 23.3453 154.015 23.3344C154.015 23.3344 154.011 23.3236 154.004 23.3189C154 23.3081 153.994 23.2973 153.983 23.2865C153.913 23.1751 153.838 23.0683 153.763 22.9616C153.752 22.9462 153.741 22.9291 153.73 22.9136C153.72 22.8982 153.709 22.8874 153.698 22.8703V22.8657C153.687 22.8502 153.676 22.8394 153.665 22.8224L153.66 22.8177C153.649 22.807 153.639 22.7914 153.629 22.7806C153.629 22.7806 153.628 22.776 153.624 22.7697C153.613 22.759 153.602 22.7435 153.592 22.7326C153.592 22.7326 153.587 22.728 153.581 22.7219C153.57 22.711 153.559 22.7002 153.554 22.6893C153.554 22.6893 153.55 22.6785 153.543 22.6738C153.532 22.6631 153.528 22.6522 153.517 22.6414C153.517 22.6414 153.506 22.6305 153.501 22.626C153.49 22.6151 153.486 22.6043 153.475 22.5996C153.475 22.595 153.464 22.5888 153.458 22.5842C153.453 22.5733 153.442 22.5686 153.436 22.5579C153.431 22.5532 153.426 22.5471 153.422 22.5362C153.417 22.5315 153.406 22.5208 153.4 22.5145C153.395 22.5099 153.384 22.4991 153.378 22.4929C153.372 22.4882 153.367 22.4774 153.356 22.4712C153.351 22.4604 153.341 22.4557 153.334 22.445C153.33 22.4403 153.323 22.4341 153.319 22.4294C153.308 22.4186 153.303 22.414 153.292 22.4032C153.292 22.4032 153.281 22.3923 153.275 22.3877C153.265 22.3769 153.254 22.3661 153.249 22.3614C153.249 22.3614 153.238 22.3505 153.233 22.3505C153.224 22.3397 153.213 22.3289 153.202 22.3181C153.202 22.3181 153.197 22.3134 153.191 22.3073C153.18 22.2964 153.169 22.2856 153.158 22.2748C153.158 22.2748 153.153 22.2701 153.147 22.264C153.136 22.2531 153.121 22.2423 153.11 22.2314L153.105 22.2269C153.094 22.216 153.079 22.2052 153.068 22.1897C153.053 22.1789 153.042 22.1634 153.026 22.1525C152.859 22.0086 152.678 21.8757 152.497 21.7519C152.497 21.7519 152.493 21.7519 152.487 21.7473C152.476 21.7427 152.471 21.7364 152.46 21.7318C152.449 21.7272 152.444 21.721 152.432 21.7163C152.428 21.7163 152.417 21.7055 152.411 21.7055C152.4 21.7009 152.389 21.69 152.379 21.6839C152.374 21.6839 152.368 21.6792 152.363 21.673C152.352 21.6684 152.341 21.6576 152.326 21.6513C152.321 21.6513 152.315 21.6468 152.31 21.6405C152.299 21.6359 152.284 21.6251 152.273 21.6189C151.916 21.4116 151.537 21.2461 151.136 21.1286C149.747 20.7 148.443 20.8361 147.27 21.4874L144.548 22.9848L139.386 25.8156L144.567 28.8259L147.186 30.3512C147.964 30.8044 148.843 31.0396 149.735 31.0396C150.166 31.0396 150.6 30.9869 151.021 30.8741C151.426 30.7673 151.809 30.6126 152.167 30.4146C152.184 30.4038 152.199 30.3992 152.215 30.3883H152.219C152.234 30.3775 152.251 30.3728 152.267 30.3621H152.271C152.287 30.3512 152.304 30.3404 152.32 30.3357H152.324C152.34 30.3249 152.357 30.3141 152.372 30.3094H152.377C152.393 30.2986 152.403 30.294 152.419 30.2832C152.419 30.2832 152.424 30.2832 152.429 30.2785C152.44 30.2739 152.451 30.2676 152.462 30.2569C152.536 30.2088 152.612 30.1547 152.686 30.1022C152.703 30.0913 152.719 30.0805 152.734 30.0696C152.75 30.0589 152.767 30.048 152.782 30.0372C152.798 30.0263 152.815 30.0155 152.824 30.0046C152.839 29.9939 152.85 29.9831 152.867 29.9722H152.872C152.883 29.9614 152.898 29.9505 152.909 29.9397C152.909 29.9397 152.913 29.9397 152.92 29.9351C152.931 29.9242 152.948 29.9134 152.957 29.9026C152.957 29.9026 152.962 29.898 152.968 29.8918C152.979 29.881 152.99 29.8701 153.005 29.8593C153.005 29.8593 153.016 29.8546 153.016 29.8484C153.027 29.8377 153.037 29.8268 153.048 29.8222C153.048 29.8222 153.059 29.8113 153.063 29.8113C153.074 29.8005 153.085 29.7959 153.096 29.785C153.101 29.785 153.107 29.7742 153.111 29.7695C153.122 29.7588 153.129 29.7541 153.139 29.7433C153.144 29.7386 153.15 29.7324 153.155 29.7278C153.166 29.7232 153.171 29.7123 153.182 29.7061C153.186 29.7015 153.197 29.6953 153.203 29.6844C153.208 29.6799 153.219 29.669 153.225 29.6629C153.229 29.6582 153.24 29.6473 153.246 29.6412C153.251 29.6365 153.261 29.6303 153.268 29.6195C153.278 29.6149 153.283 29.6041 153.289 29.5979C153.294 29.5932 153.3 29.587 153.305 29.5824C153.316 29.5715 153.32 29.5669 153.331 29.5561C153.331 29.5561 153.342 29.5452 153.347 29.5407C153.358 29.5298 153.362 29.519 153.375 29.5143C153.375 29.5143 153.386 29.5035 153.386 29.4989C153.397 29.488 153.408 29.4772 153.418 29.4663C153.418 29.4663 153.423 29.4618 153.428 29.4555C153.439 29.4447 153.45 29.4339 153.461 29.4231C153.461 29.4231 153.465 29.4184 153.472 29.4122C153.483 29.4014 153.493 29.3859 153.504 29.3751L153.509 29.3704C153.52 29.3597 153.531 29.3442 153.542 29.3333V29.3287C153.553 29.3132 153.564 29.3024 153.579 29.2853C153.59 29.2699 153.606 29.2591 153.616 29.2421C153.729 29.109 153.829 28.9651 153.925 28.8213C153.93 28.8104 153.936 28.8058 153.941 28.795C153.941 28.7904 153.946 28.7842 153.952 28.7796C153.956 28.7687 153.967 28.7579 153.974 28.7424C153.974 28.7424 153.978 28.7316 153.984 28.7269C153.995 28.7161 154 28.7007 154.011 28.6898C154.011 28.6898 154.011 28.679 154.015 28.679C154.026 28.6635 154.03 28.6527 154.041 28.6357C154.041 28.6357 154.041 28.6248 154.045 28.6248C154.056 28.6093 154.063 28.5986 154.074 28.5816C154.074 28.5816 154.073 28.5707 154.078 28.566C154.083 28.5506 154.094 28.5398 154.1 28.5228C154.1 28.5228 154.105 28.5119 154.111 28.5072C154.116 28.4964 154.126 28.481 154.133 28.4701C154.133 28.4655 154.137 28.4594 154.144 28.4547C154.148 28.4439 154.159 28.4283 154.165 28.4176C154.165 28.4129 154.17 28.4067 154.176 28.4021C154.181 28.3912 154.187 28.3758 154.198 28.3649C154.198 28.3604 154.202 28.3541 154.209 28.3434C154.213 28.3325 154.22 28.317 154.226 28.3061C154.226 28.3016 154.229 28.2907 154.236 28.2846C154.24 28.2737 154.247 28.2629 154.251 28.2474C154.251 28.2428 154.256 28.2319 154.262 28.2257C154.267 28.2149 154.273 28.2041 154.278 28.1932C154.278 28.1886 154.282 28.1778 154.289 28.1716C154.289 28.1608 154.3 28.1499 154.304 28.1391C154.304 28.1283 154.309 28.1237 154.315 28.1128C154.315 28.102 154.326 28.0912 154.331 28.0804C154.331 28.0695 154.335 28.0649 154.342 28.054C154.342 28.0432 154.352 28.0324 154.352 28.0216C154.352 28.0107 154.363 27.9999 154.363 27.9953C154.363 27.9845 154.368 27.9736 154.374 27.9689C154.374 27.9581 154.385 27.9472 154.385 27.9365C154.385 27.9256 154.39 27.921 154.396 27.9101C154.396 27.8994 154.407 27.8885 154.407 27.8777C154.407 27.8668 154.411 27.8623 154.418 27.8514C154.418 27.8406 154.427 27.8297 154.427 27.8189C154.427 27.808 154.432 27.8035 154.438 27.7926C154.438 27.7818 154.449 27.7709 154.449 27.7555C154.449 27.7508 154.454 27.74 154.46 27.7338C154.46 27.723 154.471 27.7075 154.471 27.6967C154.471 27.692 154.471 27.6813 154.476 27.675C154.476 27.6643 154.487 27.6487 154.487 27.6379C154.487 27.6333 154.487 27.6225 154.491 27.6163C154.491 27.6008 154.502 27.5899 154.502 27.5729C154.502 27.5683 154.502 27.5621 154.507 27.5513C154.507 27.5358 154.518 27.525 154.518 27.5079C154.518 27.5034 154.518 27.4972 154.522 27.4925C154.522 27.477 154.533 27.4662 154.533 27.4491V27.4337C154.533 27.4183 154.544 27.4074 154.544 27.3904V27.3749C154.544 27.3595 154.549 27.3486 154.555 27.3316V27.3162C154.555 27.3007 154.56 27.2898 154.566 27.2728V27.2574C154.566 27.2465 154.572 27.231 154.577 27.2203C154.577 27.2094 154.577 27.2048 154.581 27.1939V27.1723C154.619 27.0022 154.65 26.8257 154.672 26.6494C154.672 26.634 154.672 26.6123 154.677 26.5969V26.5922C154.677 26.5767 154.677 26.5551 154.682 26.5396V26.0121L154.686 25.927L154.689 25.9224Z" fill="#0F3157"></path>
<path d="M152.185 21.5801L136.979 12.7163C137.266 12.8927 137.543 13.0999 137.794 13.3351C137.842 13.3784 137.89 13.4263 137.938 13.4743C138.881 14.4241 139.409 15.7142 139.409 17.0539L139.399 19.9821L139.383 25.8218L144.546 22.9847L147.203 21.5229C148.375 20.8778 149.763 20.7231 151.048 21.0959C151.447 21.2135 151.832 21.379 152.184 21.5863V21.5816L152.185 21.5801Z" fill="#0F3157"></path>
<path d="M139.381 25.8153L139.397 19.9758L139.407 17.0474C139.407 15.7093 138.884 14.4177 137.936 13.4679C136.993 12.5181 135.707 11.9797 134.368 11.9751C133.028 11.9751 131.738 12.4979 130.788 13.4478C130.463 13.7726 130.185 14.1361 129.961 14.5244C129.956 14.5352 129.95 14.5461 129.939 14.5569C129.939 14.5615 129.928 14.5724 129.928 14.5786C129.928 14.5847 129.923 14.5894 129.917 14.594C129.913 14.6048 129.902 14.6203 129.895 14.6311C129.298 15.7511 129.144 17.0629 129.468 18.2958C129.81 19.5921 130.652 20.7012 131.808 21.3726C131.808 21.3726 132.737 22.0439 138.354 25.1703C138.749 25.3884 139.095 25.591 139.389 25.7937L139.378 25.8153H139.381Z" fill="#0F3157"></path>
<path d="M129.515 32.8613C129.894 31.5603 130.69 30.5264 131.873 29.8706L134.341 28.5147L134.883 28.2179C134.28 27.8822 133.579 27.534 132.833 27.203C131.517 26.6322 130.332 26.0195 129.27 25.3528L129.248 33.8068C129.281 33.502 129.515 32.8613 129.515 32.8613Z" fill="#0F3157"></path>
<path d="M138.945 36.1457C139.078 35.6816 139.158 35.185 139.191 34.6792C139.372 31.9165 138.108 30.0014 134.855 28.1992H133.714L130.295 28.3539C129.112 29.0051 129.73 31.4925 129.351 32.7934C129.229 33.2251 129.239 33.7666 129.23 34.209V34.5617C129.267 35.335 129.47 36.0932 129.849 36.7801C130.031 37.1109 130.249 37.4205 130.494 37.702C130.494 37.702 130.498 37.7067 130.505 37.7126C130.516 37.7236 130.52 37.7345 130.531 37.7452C130.542 37.7561 130.553 37.7669 130.559 37.7777C130.559 37.7777 130.564 37.7825 130.57 37.7886C130.612 37.8366 130.655 37.8798 130.698 37.9216C131.648 38.876 132.934 39.4143 134.278 39.4253C136.421 39.4143 138.241 38.0547 138.94 36.1503L138.951 36.1457H138.945Z" fill="#0F3157"></path>
</svg>