<svg xmlns="http://www.w3.org/2000/svg" width="121" height="48" viewBox="0 0 121 48" fill="none" aria-hidden="true">
<path d="M59.6347 23.8495C60.7135 23.8495 61.5922 23.4876 62.2712 22.7437C62.9699 21.9998 63.3097 21.0347 63.3097 19.8686C63.3097 18.6824 62.9699 17.7173 62.2908 16.9735C61.6118 16.2296 60.7332 15.8475 59.6347 15.8475C58.5363 15.8475 57.6576 16.2296 56.9785 16.9735C56.2995 17.7173 55.96 18.6824 55.96 19.8686C55.96 21.0548 56.2995 21.9998 56.9985 22.7437C57.6776 23.4675 58.5564 23.8495 59.6347 23.8495ZM53.3636 13.7164H55.96L55.9799 15.5259C56.8587 14.0582 58.3164 13.3143 60.3339 13.3143C61.4324 13.3143 62.4108 13.5757 63.2699 14.1185C64.1485 14.6413 64.8276 15.4052 65.3468 16.3904C65.8464 17.3755 66.106 18.5216 66.106 19.8083C66.106 20.9744 65.866 22.04 65.367 23.0251C64.8674 24.0103 64.1687 24.8145 63.2699 25.4177C62.371 26.0209 61.3522 26.3224 60.2341 26.3224C59.3353 26.3224 58.5363 26.1616 57.8376 25.8198C57.1383 25.478 56.5791 24.9955 56.1597 24.3521V31.8916H53.4035V13.7164H53.3636ZM77.7696 18.6623C77.7096 17.657 77.4102 16.893 76.8708 16.3301C76.3515 15.7872 75.6125 15.5058 74.6739 15.5058C73.7548 15.5058 73.0164 15.7872 72.4371 16.3301C71.8579 16.8729 71.4985 17.657 71.3785 18.6623H77.7696ZM75.5727 26.3426C74.1944 26.3426 72.976 26.0812 71.9375 25.5785C70.8991 25.0759 70.0804 24.332 69.5012 23.3468C68.922 22.3617 68.6422 21.2157 68.6422 19.8887C68.6422 18.6422 68.9018 17.5364 69.4014 16.5513C69.9004 15.5661 70.6193 14.782 71.5579 14.219C72.4966 13.656 73.5552 13.3545 74.7737 13.3545C75.8721 13.3545 76.8708 13.5957 77.7096 14.0783C78.5681 14.5608 79.2275 15.2645 79.7265 16.1894C80.206 17.1142 80.446 18.1797 80.446 19.4062C80.446 20.0295 80.4056 20.4718 80.3461 20.7935H71.3981C71.5781 21.8389 72.0373 22.6633 72.7966 23.2262C73.5552 23.8092 74.5539 24.0907 75.7925 24.0907C77.2302 24.0907 78.5883 23.769 79.8863 23.1458L80.1661 25.3172C79.5667 25.6389 78.8681 25.9002 78.0489 26.0812C77.2504 26.242 76.4312 26.3426 75.5727 26.3426ZM83.7811 13.7164H86.4177L86.4373 15.2846C86.7771 14.6613 87.2761 14.1788 87.9355 13.837C88.5944 13.4952 89.353 13.3344 90.2121 13.3344C91.6699 13.3344 92.7886 13.7767 93.5674 14.6814C94.3463 15.5862 94.7259 16.8729 94.7259 18.5417V25.9606H91.9694V19.0644C91.9694 17.9586 91.7697 17.1544 91.3503 16.6116C90.9511 16.0888 90.3119 15.8074 89.4534 15.8074C88.5148 15.8074 87.7953 16.1089 87.2963 16.7322C86.7771 17.3555 86.5175 18.1999 86.5175 19.3057V25.9606H83.7609V13.7164H83.7811ZM99.7185 16.0687H97.1622V13.7164H99.7185V10.2985H102.475V13.7164H105.571V16.0687H102.475V25.9404H99.7185V16.0687ZM113.659 23.8495C114.758 23.8495 115.636 23.4675 116.315 22.7236C116.994 21.9797 117.334 21.0146 117.334 19.8284C117.334 18.6422 116.994 17.6972 116.296 16.9533C115.597 16.2094 114.718 15.8475 113.659 15.8475C112.581 15.8475 111.702 16.2094 111.023 16.9533C110.324 17.6972 109.984 18.6623 109.984 19.8284C109.984 21.0146 110.324 21.9797 111.003 22.7236C111.682 23.4675 112.561 23.8495 113.659 23.8495ZM113.659 26.3426C112.481 26.3426 111.383 26.0812 110.404 25.5383C109.425 24.9955 108.646 24.2315 108.067 23.2262C107.488 22.2209 107.189 21.095 107.189 19.8284C107.189 18.6623 107.468 17.5967 108.007 16.6116C108.547 15.6264 109.325 14.8423 110.324 14.2391C111.323 13.636 112.441 13.3344 113.659 13.3344C114.838 13.3344 115.936 13.5958 116.915 14.1386C117.893 14.6814 118.672 15.4455 119.251 16.4306C119.831 17.4158 120.131 18.5417 120.131 19.8083C120.131 20.9945 119.851 22.0601 119.311 23.0453C118.772 24.0304 117.993 24.8145 116.994 25.4177C116.016 26.0409 114.897 26.3426 113.659 26.3426Z" fill="#00234B"></path>
<path d="M30.9539 26.1657C30.9539 27.0628 30.2435 27.7803 29.3555 27.7803H28.9608V13.0098H29.3555C30.2435 13.0098 30.9539 13.7274 30.9539 14.6244V26.1657ZM27.3229 29.8335C27.3229 30.7305 26.6125 31.4481 25.7245 31.4481H25.3496V29.4348H27.3229V29.8335ZM23.692 33.5211C23.692 34.4181 22.9816 35.1357 22.0936 35.1357H9.06958V33.1225H23.692V33.5211ZM23.692 29.4348V31.4481H9.06958V29.4348H23.692ZM23.692 13.0098V27.7803H9.06958V13.0098H23.692ZM5.43864 11.3354V10.9367C5.43864 10.0398 6.14903 9.32217 7.03703 9.32217H7.45143V11.3155H5.43864V11.3354ZM27.3229 13.0098V27.7803H25.3496V13.0098H27.3229ZM23.692 9.34211V11.3354H9.06958V9.34211H23.692ZM22.0936 5.65446C22.9816 5.65446 23.692 6.37206 23.692 7.26905V7.66772H9.06958V7.26905C9.06958 6.37206 9.78 5.65446 10.668 5.65446H22.0936ZM25.7245 9.34211C26.6125 9.34211 27.3229 10.0597 27.3229 10.9567V11.3553H25.3496V9.36205H25.7245V9.34211ZM28.9608 11.3354V10.9367C28.9608 9.12284 27.5006 7.66772 25.7245 7.66772H25.3496V7.26905C25.3496 5.45513 23.8893 4 22.1133 4H10.668C8.87227 4 7.4317 5.47506 7.4317 7.26905V7.66772H7.0173C5.22158 7.66772 3.78104 9.14278 3.78104 10.9367V11.3354H3.36664C1.57091 11.3354 0.130371 12.8105 0.130371 14.6045V43.5475H1.78797V14.6045C1.78797 13.7075 2.49838 12.9899 3.38638 12.9899H3.80077V43.5475H5.45838V13.0098H7.45143V43.5874H9.10904V36.8101H22.1331C23.9288 36.8101 25.3694 35.3351 25.3694 33.5411V33.1424H25.7443C27.54 33.1424 28.9805 31.6674 28.9805 29.8734V29.4747H29.3752C31.1709 29.4747 32.6115 27.9996 32.6115 26.2056V14.6444C32.6115 12.8304 31.1512 11.3753 29.3752 11.3753H28.9608V11.3354Z" fill="#00234B"></path>
</svg>