<svg xmlns="http://www.w3.org/2000/svg" width="165" height="48" viewBox="0 0 165 48" fill="none" aria-hidden="true">
<path d="M65.655 30.8493V15.2725C65.655 13.7535 64.8469 12.3495 63.5336 11.5868L52.2416 5.02343C50.347 3.92226 47.9713 5.28901 47.9713 7.48004V24.0755L39.9505 19.4554C35.6592 16.9842 30.3751 16.9907 26.0903 19.4716L18.1148 24.09V7.48166C18.1148 5.29063 15.7392 3.92387 13.8445 5.02505L2.55254 11.5884C1.23922 12.3511 0.431152 13.7551 0.431152 15.2741V30.8655C0.431152 33.0501 1.54691 35.0824 3.38814 36.2564L13.668 42.8101C16.3416 44.5137 19.7925 44.3776 22.322 42.4668L29.4683 37.071C31.4326 35.5876 34.6471 35.5876 36.6114 37.071L43.7561 42.4635C46.2872 44.3728 49.7365 44.5088 52.4101 42.8052L62.7012 36.2419C64.5409 35.0678 65.655 33.0355 65.655 30.8526V30.8493Z" fill="#0F3157"></path>
<path d="M95.7365 17.7567C96.5753 18.0579 96.9964 18.4579 96.9964 18.9599C96.9964 19.1235 96.9219 19.4295 96.7713 19.8813L93.1633 30.3118C93.1374 30.3992 93.0936 30.5061 93.0321 30.6308C92.969 30.7555 92.8038 30.9223 92.5333 31.1296C92.2629 31.3368 91.9439 31.4405 91.5747 31.4405C91.2054 31.4405 90.8848 31.3368 90.616 31.1296C90.3456 30.9223 90.1674 30.7198 90.08 30.519L87.8809 24.035C86.4898 28.145 85.7821 30.2373 85.7562 30.3118C85.7303 30.3863 85.6753 30.4931 85.5878 30.6308C85.5004 30.7684 85.4 30.8931 85.2866 31.0065C84.9984 31.2947 84.6534 31.4389 84.2534 31.4389C83.8535 31.4389 83.5231 31.3449 83.2672 31.1571C83.0098 30.9692 82.8381 30.7814 82.7507 30.5935L82.6195 30.3118L78.9921 19.8813C78.8544 19.4684 78.7848 19.1607 78.7848 18.9599C78.7848 18.4595 79.2042 18.0644 80.0447 17.7761C80.4074 17.6514 80.7361 17.5883 81.0309 17.5883C81.3256 17.5883 81.5507 17.6887 81.7078 17.8895C81.8649 18.0903 82.0057 18.3964 82.1304 18.8109L84.1984 25.0876L86.2469 18.9048C86.4218 18.3785 86.7424 18.0158 87.2056 17.815C87.4064 17.7275 87.6655 17.6838 87.9861 17.6838C88.3068 17.6838 88.6031 17.7875 88.8784 17.9947C89.1537 18.202 89.3302 18.4061 89.4047 18.6053L91.5666 25.1265L93.6345 18.8109C93.7349 18.5227 93.8159 18.3105 93.8791 18.1713C93.9422 18.0336 94.0572 17.8992 94.2272 17.7664C94.3972 17.6336 94.6061 17.5688 94.8572 17.5688C95.1082 17.5688 95.4029 17.632 95.7413 17.7567H95.7365Z" fill="#0F3157"></path>
<path d="M106.261 25.3226C106.261 26.0934 106.07 26.6634 105.688 27.0327C105.305 27.4019 104.883 27.5865 104.42 27.5865H99.9646C99.9646 27.9379 100.172 28.2326 100.585 28.4707C100.998 28.7087 101.412 28.8286 101.825 28.8286C102.552 28.8286 103.122 28.7541 103.535 28.6035L103.743 28.529C104.044 28.3913 104.293 28.3217 104.494 28.3217C104.896 28.3217 105.239 28.6035 105.527 29.167C105.689 29.5055 105.772 29.7937 105.772 30.0318C105.772 31.1475 104.437 31.7046 101.769 31.7046C100.841 31.7046 100.018 31.5443 99.2975 31.2252C98.5768 30.9062 98.0165 30.4836 97.6149 29.9573C96.8247 28.9419 96.4312 27.8083 96.4312 26.5549C96.4312 24.976 96.9413 23.7146 97.9631 22.7672C98.9849 21.8215 100.259 21.3486 101.788 21.3486C103.529 21.3486 104.808 21.9624 105.623 23.1899C106.049 23.8409 106.262 24.5534 106.262 25.3226H106.261ZM102.295 25.8764C102.771 25.8764 103.009 25.6756 103.009 25.2756C103.009 24.9874 102.899 24.7558 102.68 24.5809C102.462 24.406 102.148 24.3186 101.741 24.3186C101.335 24.3186 100.93 24.4854 100.528 24.8174C100.127 25.1493 99.9274 25.504 99.9274 25.8797H102.295V25.8764Z" fill="#0F3157"></path>
<path d="M113.911 22.6068C113.985 21.9056 114.481 21.5542 115.396 21.5542C115.885 21.5542 116.248 21.5914 116.486 21.6676C116.724 21.742 116.891 21.8748 116.985 22.0627C117.078 22.2505 117.135 22.4173 117.153 22.5615C117.172 22.7056 117.18 22.921 117.18 23.2092V29.7871C117.18 30.0754 117.171 30.2924 117.153 30.4349C117.133 30.579 117.08 30.7458 116.993 30.9337C116.818 31.2592 116.389 31.4227 115.705 31.4227C115.022 31.4227 114.565 31.3385 114.334 31.1685C114.102 31.0001 113.968 30.7523 113.929 30.4268C113.466 31.0907 112.692 31.4227 111.608 31.4227C110.525 31.4227 109.519 30.9272 108.591 29.9377C107.663 28.9483 107.2 27.7985 107.2 26.4885C107.2 25.1784 107.667 24.0335 108.601 23.0489C109.534 22.0659 110.559 21.5736 111.675 21.5736C112.1 21.5736 112.489 21.6481 112.841 21.7987C113.192 21.9493 113.435 22.0902 113.574 22.2214C113.712 22.3526 113.825 22.4821 113.913 22.6068H113.911ZM110.491 26.516C110.491 26.9289 110.653 27.303 110.98 27.635C111.305 27.967 111.7 28.1337 112.164 28.1337C112.627 28.1337 113.012 27.9653 113.32 27.6269C113.628 27.2884 113.78 26.916 113.78 26.5079C113.78 26.0998 113.632 25.7225 113.338 25.3711C113.043 25.0197 112.648 24.8448 112.154 24.8448C111.66 24.8448 111.258 25.0197 110.951 25.3711C110.643 25.7225 110.491 26.1047 110.491 26.5176V26.516Z" fill="#0F3157"></path>
<path d="M128.383 21.7795C129.034 22.1681 129.361 22.5811 129.361 23.0199C129.361 23.2709 129.237 23.6158 128.986 24.0531L125.096 30.7249C124.971 30.9387 124.77 31.1298 124.495 31.2982C124.22 31.4666 123.946 31.5524 123.677 31.5524C123.409 31.5524 123.151 31.486 122.907 31.3549C122.662 31.2237 122.49 31.0893 122.39 30.95L122.222 30.7427L118.312 24.0515C118.061 23.6385 117.937 23.3001 117.937 23.0361C117.937 22.5843 118.262 22.1649 118.915 21.7762C119.391 21.5009 119.767 21.3633 120.042 21.3633C120.317 21.3633 120.534 21.4475 120.69 21.6175C120.847 21.7859 121.012 22.0402 121.188 22.3786L123.65 27.1153L126.111 22.3786C126.249 22.1406 126.353 21.9689 126.422 21.8621C126.49 21.7552 126.6 21.6499 126.751 21.543C126.902 21.4362 127.102 21.3827 127.352 21.3827C127.601 21.3827 127.946 21.5139 128.385 21.7778L128.383 21.7795Z" fill="#0F3157"></path>
<path d="M133.484 19.7211C133.39 19.9025 133.224 20.032 132.985 20.1065C132.747 20.181 132.432 20.2199 132.036 20.2199C131.641 20.2199 131.326 20.1826 131.088 20.1065C130.849 20.032 130.683 19.8992 130.589 19.7114C130.495 19.5235 130.438 19.3584 130.42 19.2126C130.401 19.0685 130.393 18.8531 130.393 18.5649C130.393 18.2766 130.403 18.0612 130.42 17.9171C130.44 17.773 130.492 17.6127 130.581 17.4378C130.756 17.0993 131.245 16.9309 132.046 16.9309C132.848 16.9309 133.311 17.0993 133.475 17.4378C133.575 17.6256 133.635 17.7924 133.653 17.9365C133.672 18.0807 133.68 18.2977 133.68 18.5843C133.68 18.8709 133.67 19.0895 133.653 19.2321C133.633 19.3762 133.578 19.5397 133.484 19.7211ZM130.393 23.2076C130.393 22.9194 130.403 22.704 130.42 22.5599C130.44 22.4158 130.492 22.249 130.581 22.0611C130.756 21.7356 131.245 21.5721 132.046 21.5721C132.647 21.5721 133.073 21.6789 133.324 21.8911C133.536 22.066 133.649 22.3364 133.662 22.6991C133.675 22.8238 133.682 23.0068 133.682 23.2449V29.8228C133.682 30.1111 133.672 30.3281 133.654 30.4706C133.635 30.6147 133.577 30.7799 133.476 30.9693C133.313 31.2948 132.83 31.4584 132.028 31.4584C131.227 31.4584 130.757 31.29 130.581 30.9515C130.493 30.7637 130.44 30.6001 130.42 30.4625C130.401 30.3248 130.393 30.1046 130.393 29.805V23.2076Z" fill="#0F3157"></path>
<path d="M141.614 22.6068C141.688 21.9056 142.184 21.5542 143.099 21.5542C143.588 21.5542 143.95 21.5914 144.188 21.6676C144.427 21.742 144.593 21.8748 144.687 22.0627C144.781 22.2505 144.838 22.4173 144.856 22.5615C144.875 22.7056 144.883 22.921 144.883 23.2092V29.7871C144.883 30.0754 144.873 30.2924 144.856 30.4349C144.836 30.579 144.783 30.7458 144.695 30.9337C144.52 31.2592 144.091 31.4227 143.408 31.4227C142.725 31.4227 142.268 31.3385 142.036 31.1685C141.805 31.0001 141.67 30.7523 141.631 30.4268C141.168 31.0907 140.394 31.4227 139.311 31.4227C138.228 31.4227 137.222 30.9272 136.294 29.9377C135.366 28.9483 134.903 27.7985 134.903 26.4885C134.903 25.1784 135.369 24.0335 136.304 23.0489C137.236 22.0659 138.262 21.5736 139.377 21.5736C139.803 21.5736 140.192 21.6481 140.543 21.7987C140.895 21.9493 141.138 22.0902 141.277 22.2214C141.414 22.3526 141.528 22.4821 141.615 22.6068H141.614ZM138.194 26.516C138.194 26.9289 138.355 27.303 138.683 27.635C139.008 27.967 139.403 28.1337 139.866 28.1337C140.33 28.1337 140.715 27.9653 141.023 27.6269C141.33 27.2884 141.483 26.916 141.483 26.5079C141.483 26.0998 141.335 25.7225 141.04 25.3711C140.746 25.0197 140.351 24.8448 139.857 24.8448C139.363 24.8448 138.961 25.0197 138.653 25.3711C138.346 25.7225 138.194 26.1047 138.194 26.5176V26.516Z" fill="#0F3157"></path>
<path d="M152.138 24.8804L150.917 24.8059V27.4002C150.917 27.7386 150.97 27.9831 151.077 28.1337C151.184 28.2843 151.385 28.3588 151.678 28.3588C151.971 28.3588 152.198 28.3685 152.355 28.3864C152.512 28.4058 152.677 28.4641 152.854 28.5645C153.142 28.728 153.286 29.1475 153.286 29.8244C153.286 30.6146 153.111 31.0956 152.76 31.2721C152.572 31.3595 152.405 31.413 152.261 31.4324C152.117 31.4518 151.906 31.4599 151.631 31.4599C150.327 31.4599 149.338 31.1652 148.661 30.5758C147.984 29.9863 147.646 28.9904 147.646 27.588V24.8059C147.408 24.8431 147.15 24.8626 146.875 24.8626C146.6 24.8626 146.37 24.7557 146.188 24.5436C146.007 24.3314 145.916 23.9671 145.916 23.4537C145.916 22.9404 145.947 22.5679 146.01 22.3347C146.073 22.1032 146.161 21.9364 146.273 21.836C146.473 21.674 146.724 21.5914 147.024 21.5914L147.644 21.6659V19.7308C147.644 19.4425 147.654 19.2304 147.672 19.0911C147.691 18.9535 147.749 18.8029 147.85 18.6393C148.012 18.3268 148.494 18.1697 149.298 18.1697C150.149 18.1697 150.656 18.4012 150.82 18.8644C150.883 19.0652 150.914 19.3842 150.914 19.8231V21.6643C151.464 21.6141 151.882 21.5898 152.164 21.5898C152.446 21.5898 152.659 21.5995 152.803 21.6173C152.948 21.6368 153.114 21.6951 153.302 21.7955C153.628 21.959 153.791 22.4416 153.791 23.2432C153.791 24.0448 153.623 24.5144 153.284 24.6909C153.097 24.7784 152.93 24.8318 152.786 24.8512C152.642 24.8707 152.426 24.8788 152.138 24.8788V24.8804Z" fill="#0F3157"></path>
<path d="M163.998 25.3226C163.998 26.0934 163.807 26.6634 163.425 27.0327C163.043 27.4019 162.62 27.5865 162.157 27.5865H157.702C157.702 27.9379 157.909 28.2326 158.322 28.4707C158.735 28.7087 159.15 28.8286 159.563 28.8286C160.29 28.8286 160.86 28.7541 161.273 28.6035L161.48 28.529C161.781 28.3913 162.031 28.3217 162.232 28.3217C162.633 28.3217 162.977 28.6035 163.265 29.167C163.427 29.5055 163.509 29.7937 163.509 30.0318C163.509 31.1475 162.175 31.7046 159.506 31.7046C158.578 31.7046 157.756 31.5443 157.035 31.2252C156.314 30.9062 155.754 30.4836 155.352 29.9573C154.562 28.9419 154.169 27.8083 154.169 26.5549C154.169 24.976 154.679 23.7146 155.701 22.7672C156.722 21.8215 157.997 21.3486 159.526 21.3486C161.266 21.3486 162.546 21.9624 163.36 23.1899C163.786 23.8409 164 24.5534 164 25.3226H163.998ZM160.032 25.8764C160.509 25.8764 160.747 25.6756 160.747 25.2756C160.747 24.9874 160.637 24.7558 160.418 24.5809C160.199 24.406 159.885 24.3186 159.479 24.3186C159.072 24.3186 158.667 24.4854 158.266 24.8174C157.864 25.1493 157.665 25.504 157.665 25.8797H160.032V25.8764Z" fill="#0F3157"></path>
</svg>