<svg xmlns="http://www.w3.org/2000/svg" width="108" height="48" viewBox="0 0 108 48" fill="none" aria-hidden="true">
<g clip-path="url(#clip0_5442_53214)">
<path d="M25.6274 29.4334L25.6121 29.3847L35.3166 20.5004V16.2197H19.7473V20.5004H29.0469L29.0622 20.5414L19.4525 29.4334V33.714H35.473V29.4334H25.6274Z" fill="#00234B"></path>
<path d="M45.0312 15.812C43.2354 15.812 41.7718 16.0828 40.6405 16.6246C39.5867 17.0966 38.6991 17.8745 38.0927 18.8571C37.5125 19.8463 37.1483 20.947 37.0238 22.0869L41.7479 22.7508C41.9187 21.7442 42.2605 21.0308 42.7732 20.6104C43.3559 20.1708 44.0741 19.9486 44.8033 19.9824C45.7621 19.9824 46.4576 20.2387 46.8896 20.7514C47.318 21.2641 47.5358 21.9741 47.5358 22.9097V23.3762H42.9936C40.6815 23.3762 39.0206 23.8888 38.0106 24.9142C37.0007 25.9394 36.4966 27.2929 36.4983 28.9744C36.4983 30.6969 37.0024 31.9785 38.0106 32.8193C39.0189 33.66 40.2868 34.0778 41.8145 34.0727C43.7097 34.0727 45.1675 33.4208 46.1874 32.1169C46.7901 31.3157 47.2204 30.3985 47.4511 29.4229H47.6228L48.2739 33.7036H52.5545V22.8635C52.5545 20.6232 51.9643 18.8879 50.7834 17.6575C49.6026 16.4272 47.6851 15.812 45.0312 15.812ZM46.5284 29.1743C45.8491 29.7408 44.9595 30.0227 43.8523 30.0227C42.9398 30.0227 42.3058 29.863 41.9504 29.5434C41.7772 29.3922 41.6394 29.2047 41.5468 28.9944C41.4543 28.7839 41.4091 28.5557 41.4146 28.3259C41.4046 28.1091 41.4387 27.8926 41.5149 27.6894C41.5911 27.4863 41.7079 27.3008 41.8581 27.1442C42.0206 26.9918 42.2122 26.874 42.4215 26.7978C42.6307 26.7216 42.8533 26.6885 43.0756 26.7007H47.5435V26.9955C47.5524 27.4122 47.4655 27.8254 47.2898 28.2031C47.1137 28.5809 46.8533 28.9132 46.5284 29.1743Z" fill="#00234B"></path>
<path d="M78.4384 16.2197H73.3812V33.7166H78.4384V16.2197Z" fill="#00234B"></path>
<path d="M108.298 16.2197C106.869 16.2197 105.743 16.7238 104.919 17.7321C104.328 18.4566 103.879 19.5272 103.571 20.9438H103.423L102.761 16.2197H98.4421V33.714H103.5V24.7426C103.5 23.6114 103.765 22.7441 104.294 22.1409C104.824 21.5376 105.801 21.2361 107.226 21.2361H109.146V16.2197H108.298Z" fill="#00234B"></path>
<path d="M93.4231 16.7912C92.2427 16.0888 90.7532 15.7385 88.9557 15.7402C86.1258 15.7402 83.9111 16.546 82.3117 18.1574C80.7119 19.7688 79.9124 21.9904 79.9124 24.8219C79.8717 26.5338 80.2454 28.2302 81.0018 29.7665C81.6942 31.1354 82.7724 32.2716 84.1033 33.0346C85.4428 33.8087 87.0364 34.1966 88.884 34.1983C90.4816 34.1983 91.8161 33.9523 92.8876 33.4601C93.895 33.0181 94.772 32.3254 95.4357 31.4479C96.0671 30.5866 96.5363 29.6172 96.8195 28.5873L92.4623 27.3672C92.2786 28.0369 91.9255 28.6479 91.437 29.141C90.9445 29.6331 90.1199 29.8792 88.9633 29.8792C87.5876 29.8792 86.5622 29.4853 85.8874 28.6976C85.3975 28.1285 85.0901 27.3159 84.9543 26.2625H96.8863C96.9351 25.7703 96.9607 25.3576 96.9607 25.0244V23.935C96.9893 22.4715 96.6873 21.0204 96.0765 19.6902C95.5047 18.4785 94.5797 17.4679 93.4231 16.7912ZM88.8096 19.9107C90.8603 19.9107 92.0227 20.9197 92.2979 22.9379H85.044C85.1591 22.2645 85.4383 21.6298 85.8564 21.0898C86.5215 20.302 87.5056 19.909 88.8096 19.9107Z" fill="#00234B"></path>
<path d="M75.9649 9.16839C75.5844 9.15545 75.2053 9.21912 74.8499 9.35563C74.4946 9.49213 74.1706 9.69868 73.8963 9.963C73.6266 10.2298 73.4146 10.5499 73.2748 10.9029C73.135 11.256 73.07 11.6342 73.0839 12.0136C73.0704 12.3955 73.1354 12.7761 73.2757 13.1317C73.4155 13.4873 73.6274 13.8102 73.8977 14.0803C74.1679 14.3504 74.491 14.5619 74.8468 14.7016C75.2026 14.8412 75.5831 14.9061 75.9649 14.8922C76.3445 14.9065 76.7227 14.8416 77.0758 14.7018C77.4289 14.5619 77.7489 14.35 78.0155 14.0796C78.2804 13.8064 78.4865 13.4826 78.6228 13.1275C78.759 12.7725 78.8217 12.3936 78.8078 12.0136C78.8253 11.6359 78.7639 11.2586 78.6272 10.906C78.4906 10.5534 78.2822 10.2331 78.0151 9.96558C77.7476 9.69807 77.4276 9.48924 77.0749 9.35242C76.7227 9.2156 76.3454 9.1538 75.9676 9.17096L75.9649 9.16839Z" fill="#00234B"></path>
<path d="M65.5172 15.7402C63.7946 15.7402 62.4103 16.2811 61.3648 17.3628C60.5905 18.1642 60.0222 19.3604 59.6602 20.9514H59.4988L58.8374 16.2273H54.5183V38.743H59.5755V29.4691H59.7601C59.9143 30.0874 60.1307 30.6886 60.4058 31.2634C60.8338 32.1997 61.5356 32.9843 62.4184 33.5139C63.3335 34.0134 64.3646 34.2619 65.407 34.2342C67.5244 34.2342 69.1363 33.4097 70.2437 31.7607C71.351 30.1116 71.9049 27.8107 71.9049 24.8578C71.9049 22.0057 71.3689 19.7731 70.2979 18.16C69.2264 16.5468 67.6329 15.7402 65.5172 15.7402ZM66.0299 28.4182C65.4401 29.2726 64.5175 29.6998 63.2613 29.6998C62.7438 29.7237 62.2275 29.6239 61.7561 29.4086C61.2842 29.1932 60.8706 28.8687 60.5497 28.4617C59.895 27.6398 59.5687 26.5145 59.5705 25.0859V24.7527C59.5705 23.3019 59.8968 22.1911 60.5497 21.4204C61.2022 20.6497 62.1065 20.2687 63.2613 20.2772C64.5399 20.2772 65.4684 20.6831 66.0478 21.4948C66.6272 22.3065 66.9167 23.4386 66.9167 24.8911C66.9203 26.3931 66.6264 27.5689 66.0348 28.4182H66.0299Z" fill="#00234B"></path>
<path d="M17.4969 29.4333H0V33.7191H17.4969V29.4333Z" fill="#00234B"></path>
</g>
<defs>
<clipPath id="clip0_5442_53214">
<rect width="108" height="48" fill="white"></rect>
</clipPath>
</defs>
</svg>