<svg width="18" height="14" viewBox="0 0 18 14" fill="none" xmlns="http://www.w3.org/2000/svg">
<path d="M8.95146 6.00011C5.74662 6.00011 2.7112 5.26436 0 3.94934C0.265398 3.42671 0.519971 2.8909 0.763721 2.34189C1.07706 1.63658 1.37176 0.910514 1.64782 0.163699C3.90583 0.828924 6.35077 1.19471 8.90309 1.19898H8.95112C11.5528 1.19898 14.0432 0.824404 16.3384 0.139648C16.6158 0.881687 16.9132 1.60377 17.2306 2.3059C17.4756 2.8511 17.732 3.38313 18 3.90201C15.2644 5.24662 12.1948 6.00011 8.95146 6.00011Z" fill="#FF817B"/>
<path d="M8.95146 13.8605C5.74662 13.8605 2.7112 13.1247 0 11.8097C0.265398 11.2871 0.519971 10.7512 0.763721 10.2022C1.07706 9.49693 1.37176 8.77087 1.64782 8.02405C3.90583 8.68928 6.35077 9.05506 8.90309 9.05933H8.95112C11.5528 9.05933 14.0432 8.68476 16.3384 8C16.6158 8.74204 16.9132 9.46412 17.2306 10.1662C17.4756 10.7114 17.732 11.2435 18 11.7624C15.2644 13.107 12.1948 13.8605 8.95146 13.8605Z" fill="#FFADA8"/>
</svg>
