<svg width="24" height="24" viewBox="0 0 24 24" fill="none" xmlns="http://www.w3.org/2000/svg" aria-hidden="true"><path d="M19.6376 16.1951L20.5001 17.1636C20.8589 17.5664 20.8336 18.1811 20.4429 18.553L19.7169 19.2441C19.3077 19.6337 18.6572 19.6071 18.2811 19.1854L13.5982 13.935L17.4039 18.2078C17.7595 18.6069 17.7382 19.2151 17.3557 19.5885L16.9041 20.0293C16.4965 20.4272 15.8394 20.4047 15.4599 19.98L11.8156 15.9018L14.7719 19.221C15.1353 19.6289 15.104 20.253 14.7017 20.6226L14.1558 21.1239C13.744 21.5022 13.102 21.4693 12.7311 21.0509L9.92541 17.886L11.5998 19.7659C11.9657 20.1767 11.9311 20.8059 11.5224 21.174L10.3738 22.2085C10.304 22.2715 10.1966 22.2671 10.1321 22.1986L4.37747 16.087C3.42023 15.0704 2.88718 13.7267 2.88718 12.3304H1.75V5.1875H7.34847C9.19307 5.1875 10.9499 5.97535 12.1767 7.3528M19.6376 16.1951L13.8133 9.65612L11.3791 12.3892C10.9813 12.8357 10.2833 12.8357 9.88557 12.3892L9.38064 11.8223C9.04296 11.4432 9.04296 10.8712 9.38064 10.492L12.1767 7.3528M19.6376 16.1951L19.6976 16.1277C20.629 15.0821 21.1436 13.7306 21.1436 12.3304H22.25V5.1875H17.005C15.1604 5.1875 13.4036 5.97535 12.1767 7.3528" stroke="black" stroke-width="1.5" stroke-linecap="square"></path><path d="M12 4V1" stroke="black" stroke-opacity="0.99" stroke-width="1.5"></path><path d="M15 4V1" stroke="black" stroke-opacity="0.99" stroke-width="1.5"></path><path d="M9 4V1" stroke="black" stroke-opacity="0.99" stroke-width="1.5"></path></svg>