<svg width="24" height="24" viewBox="0 0 24 24" fill="none" xmlns="http://www.w3.org/2000/svg" aria-hidden="true"><path d="M20.0065 5.14937L18.8506 3.99349L17.2742 4.55763C15.8142 5.0801 14.196 4.40982 13.5331 3.00801L12.9382 1.75H11.0618L10.4669 3.00801C9.80397 4.40982 8.18577 5.0801 6.72578 4.55763L5.44599 4.09964L4.09964 5.44599L4.55763 6.72578C5.0801 8.18577 4.40982 9.80397 3.00801 10.4669L1.75 11.0618V12.9382L3.00801 13.5332C4.40982 14.1961 5.0801 15.8143 4.55763 17.2743L3.9939 18.8495L5.15052 20.0062L6.72578 19.4424C7.27536 19.2457 7.84736 19.2181 8.38239 19.3348C8.8199 19.4303 9.23269 19.6223 9.58827 19.8975C9.95302 20.1797 10.2575 20.5494 10.4669 20.992L11.0618 22.25H12.9382L13.5331 20.992C14.196 19.5902 15.8142 18.9199 17.2742 19.4424L19.1461 20.1123L20.1122 19.1462L19.6265 17.7888C18.9995 16.0369 19.8039 14.095 21.486 13.2995L22.2506 12.938V11.0621L20.992 10.4669C19.5902 9.80397 18.9199 8.18577 19.4424 6.72578L20.0065 5.14937Z" stroke="black" stroke-width="1.5"></path><path d="M12.0001 17.0003C14.7616 17.0003 17.0003 14.7616 17.0003 12.0001C17.0003 9.23864 14.7616 7 12.0001 7C9.23864 7 7 9.23864 7 12.0001C7 14.7616 9.23864 17.0003 12.0001 17.0003Z" stroke="black" stroke-opacity="0.99" stroke-width="1.5"></path></svg>