<svg width="24" height="24" viewBox="0 0 24 24" fill="none" xmlns="http://www.w3.org/2000/svg" aria-hidden="true"><path d="M12 1C12 3.93637 9.70721 6.31677 6.87891 6.31677C4.0506 6.31677 1.75781 3.93637 1.75781 1" stroke="black" stroke-width="1.5"></path><path d="M22.2422 1C22.2422 3.93637 19.9494 6.31677 17.1211 6.31677C14.2928 6.31677 12 3.93637 12 1" stroke="black" stroke-width="1.5"></path><path d="M1.75781 1V12.0249C1.75781 17.6815 6.3434 22.2671 12 22.2671C17.6566 22.2671 22.2422 17.6815 22.2422 12.0249V1" stroke="black" stroke-width="1.5"></path><path d="M13.504 14.8383L13.0528 14.2392L12.7398 14.4749L12.7545 14.8664L13.504 14.8383ZM10.4162 14.8383L11.1657 14.8664L11.1804 14.4749L10.8675 14.2392L10.4162 14.8383ZM10.3548 16.4776L9.60532 16.4495L9.57614 17.2276H10.3548V16.4776ZM13.5655 16.4776V17.2276H14.3441L14.3149 16.4495L13.5655 16.4776ZM13.7787 12.7853C13.7787 13.3789 13.4951 13.9061 13.0528 14.2392L13.9552 15.4374C14.7576 14.8331 15.2787 13.8699 15.2787 12.7853H13.7787ZM11.9601 10.9668C12.9645 10.9668 13.7787 11.781 13.7787 12.7853H15.2787C15.2787 10.9525 13.7929 9.4668 11.9601 9.4668V10.9668ZM10.1416 12.7853C10.1416 11.781 10.9558 10.9668 11.9601 10.9668V9.4668C10.1273 9.4668 8.6416 10.9525 8.6416 12.7853H10.1416ZM10.8675 14.2392C10.4252 13.9061 10.1416 13.3789 10.1416 12.7853H8.6416C8.6416 13.8699 9.1627 14.833 9.96503 15.4374L10.8675 14.2392ZM11.1042 16.5057L11.1657 14.8664L9.66679 14.8102L9.60532 16.4495L11.1042 16.5057ZM13.5655 15.7276H10.3548V17.2276H13.5655V15.7276ZM12.7545 14.8664L12.816 16.5057L14.3149 16.4495L14.2535 14.8102L12.7545 14.8664Z" fill="black" fill-opacity="0.99"></path></svg>