<svg xmlns="http://www.w3.org/2000/svg" width="143" height="48" viewBox="0 0 143 48" fill="none" aria-hidden="true">
<g clip-path="url(#clip0_9329_27257)">
<path d="M37.6142 13.0005C35.7529 13.0005 34.3364 13.5159 33.3649 14.5466C32.3933 15.5774 31.9076 17.0217 31.9076 18.8797V19.9514H29.208V23.4111H31.9076V35.3831H36.1109V23.4111H40.6207V19.9514H36.1109V18.7569C36.1109 17.9813 36.3054 17.3944 36.6941 16.9963C37.0828 16.5981 37.6862 16.3992 38.5042 16.3995C38.9434 16.3959 39.3814 16.4472 39.8078 16.5524C40.1796 16.644 40.5361 16.7888 40.8663 16.9824V13.765C40.5184 13.542 40.0635 13.3584 39.5014 13.2141C38.8836 13.0651 38.2498 12.9933 37.6142 13.0005Z" fill="#00234B"></path>
<path d="M53.5377 20.5326C52.3101 19.8388 50.9091 19.4918 49.3343 19.4915C47.7794 19.4915 46.3936 19.8385 45.1769 20.5326C43.9732 21.2133 42.9888 22.2223 42.339 23.4414C41.6639 24.6868 41.3264 26.1056 41.3264 27.6975C41.3264 29.2896 41.669 30.7031 42.3542 31.9384C43.0138 33.1476 44.003 34.1455 45.2076 34.8167C46.4245 35.5005 47.8001 35.8424 49.3343 35.8424C50.9091 35.8424 52.3101 35.5005 53.5377 34.8167C54.7486 34.1488 55.7437 33.1504 56.4063 31.9384C57.0912 30.7031 57.4337 29.2896 57.4337 27.6975C57.4337 26.1056 57.0912 24.6868 56.4063 23.4414C55.7446 22.2207 54.7501 21.2122 53.5377 20.5326ZM52.6936 30.0707C52.3969 30.755 51.9623 31.2856 51.39 31.6626C50.8178 32.0398 50.1326 32.2287 49.3343 32.2294C48.5565 32.2294 47.8916 32.0405 47.3399 31.6626C46.7881 31.2849 46.3586 30.7542 46.0516 30.0707C45.7449 29.3871 45.5915 28.5962 45.5915 27.6975C45.5915 26.7786 45.7398 25.9773 46.0362 25.2938C46.3327 24.6102 46.7622 24.0744 47.3245 23.6864C47.8872 23.2991 48.5575 23.1052 49.3352 23.1045C50.1332 23.1045 50.8184 23.2985 51.391 23.6864C51.9636 24.0744 52.3981 24.6159 52.6946 25.3109C52.9908 26.005 53.139 26.8014 53.1394 27.6999C53.1397 28.5985 52.9912 29.3887 52.6936 30.0707Z" fill="#00234B"></path>
<path d="M69.1845 29.0758C69.1845 30.0556 68.9237 30.821 68.4022 31.372C67.8806 31.9231 67.17 32.1988 66.2699 32.199C65.3906 32.199 64.6951 31.9183 64.1835 31.3568C63.672 30.7952 63.4166 30.0349 63.4175 29.0758V19.95H59.2444V29.3509C59.2444 30.6371 59.5255 31.7804 60.0879 32.7806C60.6503 33.7808 61.4582 34.5565 62.5117 35.1079C63.5651 35.659 64.8177 35.9344 66.2699 35.9344C67.7425 35.9344 69.0158 35.659 70.0898 35.1079C71.1637 34.5568 71.9819 33.7813 72.5443 32.7811C73.1062 31.7811 73.3871 30.6379 73.3879 29.3514V19.9514H69.1845V29.0758Z" fill="#00234B"></path>
<path d="M87.8684 20.2416C87.0704 19.7418 86.1091 19.4918 84.9846 19.4915C83.5936 19.4915 82.4431 19.8385 81.5331 20.5326C80.886 21.0264 80.3653 21.6665 80.0143 22.4002V19.9511H75.873V35.3838H80.0453V27.085C80.0453 25.8402 80.3371 24.8553 80.9199 24.1303C81.5035 23.4053 82.3174 23.0431 83.3618 23.0434C84.3635 23.0434 85.0893 23.3394 85.54 23.9315C85.9907 24.5237 86.216 25.4315 86.2153 26.655V35.3828H90.3861V25.7094C90.3861 24.4235 90.1665 23.3161 89.7267 22.3874C89.2869 21.4585 88.6672 20.7433 87.8684 20.2416Z" fill="#00234B"></path>
<path d="M115.756 20.3338C114.671 19.7726 113.382 19.4918 111.891 19.4915C110.766 19.4915 109.733 19.6496 108.792 19.9659C107.891 20.2637 107.035 20.6816 106.245 21.2082V24.8824C106.864 24.2874 107.594 23.8192 108.393 23.5044C109.223 23.176 110.109 23.0097 111.001 23.0147C112.248 23.0147 113.22 23.3464 113.915 24.0099C114.611 24.6734 114.958 25.6176 114.958 26.8422V27.6397C114.623 27.2058 114.206 26.8407 113.732 26.5647C112.975 26.1155 112.044 25.8909 110.94 25.8909C109.854 25.8909 108.898 26.0952 108.071 26.5036C107.243 26.9119 106.594 27.4886 106.123 28.2336C105.653 28.9789 105.418 29.8618 105.418 30.882C105.418 31.8214 105.639 32.6684 106.079 33.4234C106.515 34.1752 107.152 34.7903 107.919 35.1993C108.707 35.6277 109.602 35.8421 110.604 35.8424C111.79 35.8424 112.807 35.5413 113.657 34.9389C114.2 34.5573 114.646 34.0544 114.96 33.4702V35.3814H119.072V26.4118C119.072 24.9825 118.79 23.7526 118.228 22.7218C117.665 21.6911 116.841 20.895 115.756 20.3338ZM113.671 32.6732C113.24 32.8873 112.739 32.9944 112.167 32.9948C111.287 32.9948 110.603 32.7804 110.111 32.3516C109.62 31.9229 109.375 31.3514 109.375 30.6369C109.375 29.9227 109.625 29.3616 110.127 28.9532C110.628 28.5447 111.318 28.3406 112.198 28.3406C113.036 28.3406 113.711 28.5498 114.222 28.968C114.734 29.3862 114.989 29.9323 114.989 30.6063C114.995 31.0331 114.879 31.4529 114.653 31.8155C114.427 32.1723 114.1 32.4582 113.671 32.6732Z" fill="#00234B"></path>
<path d="M142.34 22.385C141.9 21.4568 141.282 20.7423 140.484 20.2416C139.687 19.7409 138.725 19.4908 137.601 19.4915C136.209 19.4915 135.058 19.8385 134.149 20.5326C133.501 21.0264 132.981 21.6665 132.63 22.4002V19.9511H128.488V35.3838H132.658V27.085C132.658 25.8402 132.951 24.8553 133.533 24.1303C134.117 23.4053 134.93 23.0431 135.973 23.0434C136.975 23.0434 137.7 23.3394 138.151 23.9315C138.602 24.5237 138.827 25.4315 138.827 26.655V35.3828H143V25.7094C143 24.4219 142.78 23.3138 142.34 22.385Z" fill="#00234B"></path>
<path d="M102.657 32.2448C102.309 32.3777 101.869 32.4439 101.337 32.4436C100.6 32.4436 100.038 32.2447 99.65 31.8468C99.2615 31.449 99.0672 30.8526 99.0665 30.0575V23.4109H103.515V19.9508H99.0665V15.6641H94.8632V19.9508H91.7338V23.4109H94.8632V30.5778C94.8632 31.6607 95.0625 32.6005 95.4619 33.3968C95.8526 34.1843 96.473 34.8355 97.2414 35.2645C98.0279 35.7133 98.9849 35.9379 100.11 35.9381C100.928 35.9381 101.602 35.8565 102.134 35.693C102.687 35.5201 103.213 35.2729 103.7 34.9583V31.7088L103.669 31.7393C103.349 31.9401 103.009 32.1095 102.657 32.2448Z" fill="#00234B"></path>
<path d="M125.882 19.9507H121.678V35.3828H125.882V19.9507Z" fill="#00234B"></path>
<path d="M18.04 35.3836C19.1792 35.3836 20.2716 34.9319 21.0771 34.1281C21.8827 33.324 22.3352 32.2338 22.3352 31.0969C22.3352 29.96 21.8827 28.8696 21.0771 28.0657C20.2716 27.2617 19.1792 26.81 18.04 26.81C15.0214 26.81 12.7939 29.0242 11.778 32.8116H10.5572C9.54178 29.0242 7.31373 26.8086 4.29526 26.8086C3.1561 26.8086 2.06358 27.2603 1.25805 28.0642C0.452535 28.8682 0 29.9586 0 31.0954C0 32.2323 0.452535 33.3226 1.25805 34.1267C2.06358 34.9306 3.1561 35.3822 4.29526 35.3822L18.04 35.3836Z" fill="#00234B"></path>
<path d="M18.04 15.6646C15.0214 15.6646 12.7939 17.8786 11.778 21.6661H10.5572C9.54178 17.8786 7.31373 15.6646 4.29526 15.6646C3.1561 15.6646 2.06358 16.1162 1.25805 16.9201C0.452535 17.724 0 18.8144 0 19.9513C0 21.0882 0.452535 22.1785 1.25805 22.9825C2.06358 23.7864 3.1561 24.238 4.29526 24.238C7.16245 24.238 9.52315 25.5816 11.1676 27.9648C12.8121 25.5816 15.1728 24.238 18.04 24.238C19.1792 24.238 20.2716 23.7864 21.0771 22.9825C21.8827 22.1785 22.3352 21.0882 22.3352 19.9513C22.3352 18.8144 21.8827 17.724 21.0771 16.9201C20.2716 16.1162 19.1792 15.6646 18.04 15.6646Z" fill="#00234B"></path>
</g>
<defs>
<clipPath id="clip0_9329_27257">
<rect width="143" height="48" fill="white"></rect>
</clipPath>
</defs>
</svg>