<svg width="1384" height="1384" viewBox="0 0 1384 1384" fill="none" xmlns="http://www.w3.org/2000/svg">
  <circle cx="692" cy="692" r="692" fill="#15003E"/>
  <path d="m1179.41 200.69 34.4 37.03c-18.75-21.78-33.75-36.42-34.4-37.03Z" fill="#5A05FF"/>
  <path d="M1215.31 239.47c.46.43 1.04 1.01 1.47 1.47l-2.94-3.2c.37.4.7.8 1.04 1.24.15.15.31.33.43.49Z" fill="#5A05FF"/>
  <path d="m1110.13 140.58-.09.4a590.94 590.94 0 0 1 39 32.7c.15.16.34.28.49.44 2.3.95 2.91 1.22 3.34 1.6-12.61-11.27-30.43-25.07-43.47-35.81a4 4 0 0 1 .73.7v-.03Z" fill="#5A05FF"/>
  <path d="M1033.55 90.08Z" fill="#5A05FF"/>
  <path d="M1034.07 92.23a560.68 560.68 0 0 1 41.95 27.06c.18.12.36.24.55.34 2.7.33 3.68.4 4.54.3.03-.06.09-.18.15-.24l-.31-.22c-14.2-8.74-32.86-20.43-47.37-29.36 1.11.86.92 1.41.49 2.15v-.03Z" fill="#5A05FF"/>
  <path d="M952.74 54.67A534.2 534.2 0 0 1 997 75.94l.58.27c1.75-.12 3.75-.24 5.03-.64 2.52-.8.4-1.87-.76-2.46-15.71-7.88-37.4-16.84-53.48-23.96 5.15 2.27 6.04 3.4 4.36 5.56v-.04Z" fill="#5A05FF"/>
  <path d="M867.38 28.53a517.41 517.41 0 0 1 45.8 15.25l.62.19c1.96-.4 4.2-.83 5.86-1.57 4.85-2.15-.55-4.11-3.47-5.15-15.8-5.28-36.63-10.96-53.72-15.74 6.17 2.08 7.49 4.14 4.9 7.02Z" fill="#5A05FF"/>
  <path d="M862.47 21.5a65.85 65.85 0 0 0-6.05-1.68c1.94.55 4 1.14 6.05 1.69Z" fill="#5A05FF"/>
  <path d="M770.64 4.85c-3.28-.68-7.55-1.26-13.04-1.72 4.08.55 8.5 1.1 13.04 1.72Z" fill="#5A05FF"/>
  <path d="M779.1 13.93a507.56 507.56 0 0 1 46.7 9.11l.62.1c2-.59 5.67-1.72 7.7-3.07 4.54-3.01.12-5.68-13.13-7.95-14.88-2.6-33.72-5.12-50.38-7.3 14.75 2.94 10.18 7.42 8.47 9.08l.03.03Z" fill="#5A05FF"/>
  <path d="M608.42 5.15c-6.44.77-19.2 2.61-39.12 7.03 6.35-.8 16.97-2.09 24.95-1.5 14.7 1.1 7.45 7.18 4.72 9.48a490.53 490.53 0 0 1 46.64-3.6c.21 0 .43-.02.64-.05 3.29-1.5 10.13-4.6 12.25-7.46 4.1-5.64-11.57-7.42-40.38-4.85a982.95 982.95 0 0 1 34.58-3.06c5.73-.25 15.86-.68 24.2-.07 21.79 1.6 14.67 7.95 12.34 10.04 12.67.21 27.12.7 46.97 2.85h.65c2.73-1.04 7.27-2.8 9.63-4.79 3.93-3.31 2.24-7.48-27.92-8.65L694.27 0l-33.75.7c-2.76.13-5.22.25-7.12.37-11.66.34-43.29 3.6-49.21 4.51 1.38-.12 2.82-.27 4.26-.43h-.03Z" fill="#5A05FF"/>
  <path d="M524.48 21.72s.09.25.15.34c-.1.15-.21.37-.34.52a579.1 579.1 0 0 1 42.65-9.9c5.1-.99 6.17-2.22 6.29-2.34-.43 0-.52 0-1.63.18l-9.02 1.66c-12.91 2.52-28.9 6.35-43.26 9.91 3.78-.74 4.63-.52 5.19-.37h-.03Z" fill="#5A05FF"/>
  <path d="M519.3 22.06c-2.68.52-6.79 1.5-13.32 3.34l13.31-3.34Z" fill="#5A05FF"/>
  <path d="M555.83 31.02c3.56-1.84 11.88-6.17 14.12-9.48 4.1-6.05-13.04-5.98-41.76.15-10.68 2.27-39.06 13.29-40.26 13.75 4.64-1.08 16.91-3.87 23.26-3.2 8.53.96 1.47 6.6-1.53 9.03a500.02 500.02 0 0 1 45.5-10.13c.21-.06.43-.1.64-.15l.03.03Z" fill="#5A05FF"/>
  <path d="M441.02 47.1a306.44 306.44 0 0 0-26.72 12.58c19.2-8.2 31.08-11.85 32.61-10.04-.15.77-.3 1.05-1.6 2.33a533.88 533.88 0 0 1 40.35-15.7c5.65-1.94 8.63-5.22 8.78-5.53-2.98-1.84-32.62 8.47-48.08 14.33l6.5-2.48c-4.1 1.5-6.62 2.48-10 3.8l1.69-.64c-1.07.43-2.45.95-3.5 1.35h-.03Z" fill="#5A05FF"/>
  <path d="M441.02 47.1c.65-.25 1.26-.5 1.84-.7l-3.28 1.22 1.44-.52Z" fill="#5A05FF"/>
  <path d="M363.55 82.84c.61-.34 1.41-.77 2-1.07l-2 1.07Z" fill="#5A05FF"/>
  <path d="M214.07 191.48c.58-.55 1.38-1.32 2-1.87l.94-.92-2.94 2.8Z" fill="#5A05FF"/>
  <path d="M428.69 66.12c3.59 1.07-2.82 5.98-6.3 8.62a518.93 518.93 0 0 1 43.82-16.81c.22-.1.43-.16.62-.25 4.48-2.6 14.9-8.71 16.5-12.15 2.18-4.75-12.7-2.51-34.6 5.19-9 3.16-39.31 20.28-39.62 20.43 3.93-1.53 15.9-6.14 19.55-5.06l.03.03Z" fill="#5A05FF"/>
  <path d="M373.83 88.82c-.19 1.08-.98 2.06-4.17 5 12.85-8.1 26.69-14.48 39.48-22.67.1-.06 9.73-6.38 9.8-8.9-2.46-1.62-20.38 6.23-35.57 14.42-.86.46-2.02 1.1-2.91 1.6a466.87 466.87 0 0 0-26.51 19.45c16.2-9.85 19.26-9.51 19.85-8.9h.03Z" fill="#5A05FF"/>
  <path d="M380.49 77.4s.12.22.15.35c-.06.15-.12.36-.18.55 4.02-2.46 16.26-9.97 31.97-17.7 1.68-.83 3.13-1.54 3.8-2.73-.67-.04-1.44-.1-12.46 4.97l-11.96 5.61c-7.15 3.5-16.6 8.31-23.66 11.97l-1.07.58c-4.39 2.33-8.96 4.79-17.55 11.41 15.65-9.36 28.35-15.52 30.96-14.97v-.03Z" fill="#5A05FF"/>
  <path d="M328.67 109.29a175.36 175.36 0 0 1 20.89-16.9c0-.13-.03-.32-.06-.47-2.43-.73-30.62 16.81-42.04 25.28l-1.65 1.23c0 .86-.28 2.06-1.05 5.1 9.09-7.95 21.88-16.08 23.9-14.24Z" fill="#5A05FF"/>
  <path d="m312.04 113.58-1.72 1.14c-5.08 3.35-12.64 8.58-22.7 15.68a943.04 943.04 0 0 0-22.07 16.56L261.7 150c3.46-2.76 5.83-4.08 7.08-4.78 9.09-7.95 26.39-20.44 37.04-26.79a44.38 44.38 0 0 1 6.23-4.85Z" fill="#5A05FF"/>
  <path d="M274.57 145.34c-1.93 0-3.83-.77-5.8-.13 0 0-1.75 1.17-5.24 3.75-9.82 7.2-32.4 25.95-33.45 29.05.06.1.16.22.22.3h.34c10-7.41 17-11.53 23.1-14.87-1.38-2.3 10.3-11.88 20.83-18.1Z" fill="#5A05FF"/>
  <path d="M338.54 120.64a530.6 530.6 0 0 1 41.49-23.6c.21-.09.4-.21.61-.3 4.9-3.2 17.98-11.7 18.84-14.51.86-2.73-10 .7-26.94 10.03-6.93 3.8-29.27 20.28-38.38 27.21 11.72-7.6 13.07-7.27 13.86-7.05-.64 1.47-3.8 4.02-9.44 8.22h-.04Z" fill="#5A05FF"/>
  <path d="M348.58 105.79c-1.69-.4-11.39 5.61-21.85 14.27-.61.52-1.44 1.22-2.09 1.75a622.88 622.88 0 0 0-24.85 25.34c2.46-2.61 6.63-6.81 7.46-7-.68.77-2.03 2.18-7.46 7a499.15 499.15 0 0 1 32.43-26.3c.16-.12 16.39-12.6 16.36-15.06Z" fill="#5A05FF"/>
  <path d="M359.38 91.4c.27-2.6-15.44 5.9-28.84 16.38-4.05 3.16-13.38 15.1-16.14 18.69 8-7.64 12.18-9.6 13-9.08 0 .83-.51 1.68-2.78 4.42 3.46-3.17 14.05-12.83 27.7-22.9 4.42-3.25 6.97-7.11 7.03-7.51h.03Z" fill="#5A05FF"/>
  <path d="M299.8 147.15c.24-2.73 1.4-4.42 1.9-4.54.06.18.27.64-1.9 4.54a151.77 151.77 0 0 1 13.7-19.6c2.56-3.08 3.1-5.87 3.05-6.27-.53-2.76-11.57 4.67-16.08 12.77l-.52 1c.15 3.23.06 7-.16 12.07v.03Z" fill="#5A05FF"/>
  <path d="M274.7 144.78c-.07.16-.1.4-.13.56a34.2 34.2 0 0 1 13.13-1.38c-.06-4.05 8.2-10 12.28-8.87.64-3.2 1.69-6.81 4.81-11.57-6.5-.09-28.35 16.17-30.06 21.3l-.04-.03Z" fill="#5A05FF"/>
  <path d="M286.5 144.17c-8.7 1.97-16.16 7.8-17.39 9.85-1.01 1.69.52 2.09 4.7 1.2.36-.1.88-.22 1.25-.28a158.9 158.9 0 0 1 24.73-7.76c-4.45.95-4.88.61-5.03.49.25-.46 2.24-1.04 5.03-.5-4.05-.97-8.04-2.3-12.12-3.18-.33-.1-.82.12-1.2.21l.04-.03Z" fill="#5A05FF"/>
  <path d="M152.34 1124.96c.49.61 1.13 1.41 1.6 2.02 11.62 14.3 28.37 32.28 40.61 46.03 26.42 27.03 47.71 30.43 58.4 9.35.36-.7.79-1.68 1.13-2.39a471.64 471.64 0 0 1-40.2-35.04c-24.08 18.6-46.66-2.48-61.57-19.97h.03Z" fill="#5A05FF"/>
  <path d="M408.16 1185.65c.8-1.11 1.81-2.61 2.58-3.75-23.2-12.21-38.78-23.13-45.47-27.79-32.8 27.85-68.15 36.08-111.22 25.86 10.1 15.68 17.02 25.8 22.09 33.17 76.49 29.11 115.55-4.73 132-27.49h.02Z" fill="#5A05FF"/>
  <path d="M542.73 1078.35c1.17-1.56 2.7-3.71 3.84-5.27a357.23 357.23 0 0 1-46.85-26.51c-44.5 42.09-91.84 63.26-149.03 66.61 8.87 23.44 13.41 37.28 14.58 40.96 97.66 9.54 153.1-43.39 177.43-75.79h.03Z" fill="#5A05FF"/>
  <path d="M98.64 1046.88c4.3 7.63 9.27 16.19 16.48 27.09l9.11 13.4c41.64 58.91 62.84 34.77 69.99 21.63.43-.79.98-1.93 1.4-2.76a446.51 446.51 0 0 1-35.58-39.48c-26.67 20.55-47.8-1.54-61.4-19.92v.04Z" fill="#5A05FF"/>
  <path d="M347.93 1117.29c.86-1.23 1.97-2.89 2.8-4.11a384.77 384.77 0 0 1-43.14-32.95c-34.37 29.97-69.96 38.22-111.96 26.01 9.85 21.42 18.28 38.66 18.28 38.66.16.12 21.48 11.84 49.16 13.84 15.8 1.13 55.72-.61 84.86-41.48v.03Z" fill="#5A05FF"/>
  <path d="M486.15 1004.2c1.23-1.66 2.77-3.9 3.96-5.59a353.4 353.4 0 0 1-45.1-29.91c-45.47 43.29-92.69 64.4-148.56 66.42 2.58 9.7 7.36 27.77 11.17 45.11 99.99 14.88 158.2-48.24 178.57-76.06l-.04.03Z" fill="#5A05FF"/>
  <path d="M72.65 1000.61a490.1 490.1 0 0 0 10.13 18.99c-4.57-8.32-7.82-14.76-9.85-18.72l-.3-.27h.02Z" fill="#5A05FF"/>
  <path d="M98.98 1048.01c-2.24-6.44-6.6-11.66-10.03-17.4 3.8 6.72 7.54 13.29 10.77 19.12-.37-.58-.59-1.29-.74-1.69v-.03Z" fill="#5A05FF"/>
  <path d="m88.52 1029.85.46.76c-2.06-3.65-4.14-7.33-6.2-11.01 1.72 3.16 3.62 6.56 5.74 10.25Z" fill="#5A05FF"/>
  <path d="M57.5 963.76c37.43 101.49 72.93 88.18 88.03 64.34.55-.86 1.22-2.03 1.74-2.92-15.74-19.54-25.52-35.25-29.73-41.94-28.84 21.75-48.08-.7-60.04-19.48Z" fill="#5A05FF"/>
  <path d="M293.38 1039.45c.95-1.29 2.12-3.04 3.04-4.33-19.94-15.86-34-30.77-38.63-35.65-35.8 30.68-70.94 38.84-110.55 25.71a2338.55 2338.55 0 0 0 12.8 41.64c.12.12 20.28 13.16 46.85 15.77 19.17 1.87 55.9-1.23 86.52-43.11l-.03-.03Z" fill="#5A05FF"/>
  <path d="M433.93 924.52c1.26-1.69 2.86-3.96 4.08-5.65a328.07 328.07 0 0 1-41.78-31.57c-45.69 43.42-91.87 64.03-145.31 64.95 1.6 9.64 4.54 27.59 6.87 47.22 95.33 17.71 154.94-46.51 176.14-74.95Z" fill="#5A05FF"/>
  <path d="M38.23 916.02c-.18 0-.4.06-.58.06-.43-.4-.77-1.1-.99-1.66 5.56 16.26 14.46 37.44 20.72 53.45 0-.03.06-.1.12-2.82 0-1.17-.62-2.7-1.1-3.78a577.94 577.94 0 0 1-18.14-45.25h-.03Z" fill="#5A05FF"/>
  <path d="M28.9 877.12c5.77 28.59 11.75 58.14 35.1 77.43 5.34 4.4 24.27 16.54 44.15-12 .62-.88 1.41-2.1 2.03-3.03a377.32 377.32 0 0 1-23.69-43.72c-22.73 17-41.57 10.9-57.59-18.68Z" fill="#5A05FF"/>
  <path d="M247.7 956.67c.98-1.32 2.27-3.1 3.22-4.42a328.13 328.13 0 0 1-33.66-37.61c-36.33 31.1-70.35 39.02-107.08 24.88 2.4 14.58 4.9 29.12 7.33 43.7 68.36 44.39 116.93-9.12 130.19-26.55Z" fill="#5A05FF"/>
  <path d="M387.76 842.17c1.26-1.66 2.88-3.93 4.1-5.62a294.93 294.93 0 0 1-37.98-32.8c-44.94 42.8-89.25 62.6-139.38 62.32.58 7.46 2.15 27.3 2.79 48.54 91.7 20.98 153.69-50.17 170.47-72.47v.03Z" fill="#5A05FF"/>
  <path d="M12.67 824.34c3.4 17.19 9.45 39.8 13.6 56.83.1.47.32.81.67 1.04.24-.22.74-.64 1.6-3.62.33-1.17-.07-2.86-.4-3.99a543.3 543.3 0 0 1-12.1-46.24c-1.8.56-2.5-.27-3.34-4.02h-.03Z" fill="#5A05FF"/>
  <path d="M12.7 788.32c1.32 25.32 3.29 39.95 3.32 40.01 4.32 19.33 30.74 72.78 66.12 25.44.67-.92 1.56-2.18 2.24-3.1a352.13 352.13 0 0 1-17.52-44.8C43.5 823.21 25.8 817.44 12.7 788.32Z" fill="#5A05FF"/>
  <path d="M211.15 870.55c1.01-1.32 2.34-3.1 3.35-4.45a294.9 294.9 0 0 1-28.38-39.06C150.46 857.57 117.2 865.3 84.4 850.7c.7 15.03 1.5 30.07 2.11 45.1 60.97 46.67 110.8-7.55 124.63-25.28v.03Z" fill="#5A05FF"/>
  <path d="M347.87 758.38c1.23-1.63 2.82-3.84 4.02-5.5a264.26 264.26 0 0 1-33.72-33.53c-43.38 41.4-85.02 60.01-131.04 58.57-.06 26.39-.77 43.11-1.07 49.1 84.03 23.65 145.06-46.58 161.78-68.67l.03.03Z" fill="#5A05FF"/>
  <path d="M1.1 731.66c1.08 17.76 4.05 41.3 5.9 59 .21 1.62.42 2.2.49 2.42 1.07 2.94 3.03-.1 4.5-3.16.56-1.14.47-2.95.25-4.17a528.8 528.8 0 0 1-6.1-46.58c-2.77 1.14-4.4.28-5.04-7.48v-.03Z" fill="#5A05FF"/>
  <path d="M8.62 698.46c-2.15 24.73-2.51 40.62-2.48 40.68 1.8 18.35 22.52 72.9 61.18 23.9.73-.92 1.65-2.2 2.39-3.13a331.55 331.55 0 0 1-11.3-45.31c-23.5 17.64-39.76 12.36-49.76-16.14h-.03Z" fill="#5A05FF"/>
  <path d="M183.78 782.34c1.05-1.29 2.37-3.07 3.38-4.39-12.8-18.53-20.13-34.14-22.89-40-34.76 29.91-65.72 37.09-94.6 22-.94 15.3-1.83 30.64-2.81 45.95 41.85 38.39 87.84 13.01 116.92-23.53v-.03Z" fill="#5A05FF"/>
  <path d="M314.55 674.28c1.2-1.56 2.73-3.71 3.9-5.27a232.15 232.15 0 0 1-29.09-33.9c-40.4 39.02-79.8 56.63-120.43 53.84-.73 9.48-2.27 29.24-4.69 49 59.61 20.8 116.75-19.24 150.31-63.67Z" fill="#5A05FF"/>
  <path d="M2.15 638.7c.09-1.54.18-3.1.3-4.58-.15 1.69-.24 3.2-.3 4.57Z" fill="#5A05FF"/>
  <path d="M2.15 638.7C.95 656.91.52 679.67 0 697.1c0 1.27 0 3.84.46 5.68 1.23 5.25 4.57 1.48 7.15-2.6.7-1.1.95-2.95.89-4.27a499.48 499.48 0 0 1-.19-46.2c-4.05 1.9-6.65.58-6.13-11.02h-.03Z" fill="#5A05FF"/>
  <path d="M16.45 608.84a806.09 806.09 0 0 0-8.17 40.87c-.43 18.74 15.68 69.83 55.2 21.96.77-.92 1.75-2.17 2.49-3.13a327.3 327.3 0 0 1-5-45.28c-22.92 17.4-37.9 12.52-44.52-14.45v.03Z" fill="#5A05FF"/>
  <path d="M165.59 693.21c1.01-1.26 2.33-3 3.34-4.3-9.81-18.31-15.3-34.88-17.12-40.3-33.29 28.7-61.36 35.25-85.84 19.93-2.55 15.35-5 30.72-7.61 46.03 34.67 39.33 79.43 13.04 107.2-21.39l.03.03Z" fill="#5A05FF"/>
  <path d="M288.07 591.04c1.1-1.47 2.58-3.5 3.65-5a206.64 206.64 0 0 1-24.05-33.9c-36.82 36.02-73.09 52.22-107.76 48.17-1.62 10.59-4.32 28.35-8.1 48.3 51.55 22.66 105.64-16.85 136.26-57.57Z" fill="#5A05FF"/>
  <path d="M15.16 610.65a9.38 9.38 0 0 0 1.5-4.33 490.33 490.33 0 0 1 5.7-45.2c-7.11 3.81-8.95-2.08-5.73-18.98-3.62 17.64-7.15 38.8-10.03 55.25-.46 3.1-1.57 10.34-1.05 14.98.86 8 5.74 3.46 9.64-1.72h-.03Z" fill="#5A05FF"/>
  <path d="M16.6 542.17c.58-2.82 1.16-5.58 1.75-8.2-.7 2.98-1.3 5.71-1.75 8.2Z" fill="#5A05FF"/>
  <path d="M74.53 533.2c-22.3 17.2-35.29 12.99-38.54-12.48-9.33 26-13.8 42.06-13.4 48.17 2.39 37.16 22.11 42.07 48 11.94l2.56-3.07c-.74-18.9.33-33.75 1.35-44.55h.03Z" fill="#5A05FF"/>
  <path d="m156.66 604.42 3.25-4.11a234.9 234.9 0 0 1-11.16-40.16c-30.78 27-56.21 32.92-75.6 17.58-4.09 15.18-8.07 30.37-12.18 45.53 26.78 39.8 68.3 14.73 95.7-18.87v.03Z" fill="#5A05FF"/>
  <path d="M268.65 509.7c1.04-1.37 2.36-3.24 3.38-4.66-9.42-13.4-14.55-23.99-18.66-33.4-33.17 33-64.55 47.03-93.24 41.69-1.87 8.16-6.3 27.33-11.35 46.85 39.8 22.86 88.88-8.87 119.87-50.47Z" fill="#5A05FF"/>
  <path d="m67.68 393.55.46-1.01c-.24.49-.36.8-.46 1Z" fill="#5A05FF"/>
  <path d="M67.68 393.55a548.1 548.1 0 0 0-5.12 11.29c1.72-3.74 3.38-7.21 4.94-10.52 0-.19 0-.31.18-.77Z" fill="#5A05FF"/>
  <path d="M47.8 439.36Z" fill="#5A05FF"/>
  <path d="M48.66 437.33c4.2-9.85 9.14-21.7 13.9-32.46a656.5 656.5 0 0 0-13.9 32.46Z" fill="#5A05FF"/>
  <path d="M48.5 437.7s.07-.12.07-.15a1.84 1.84 0 0 0-.06.15Z" fill="#5A05FF"/>
  <path d="M34.43 522.6a10.72 10.72 0 0 0 2.08-4.33 482.23 482.23 0 0 1 11.5-43.54c-.58.34-1.31.83-1.9 1.1-6.47 3.1-11.29-1.04 2.49-38.28a431.79 431.79 0 0 0-5.37 13.86l-8.47 24.24-6.01 19.2c-5.4 18.11-6.3 26.42-6.08 30.2.4 6.9 4.48 6.04 11.76-2.42v-.04Z" fill="#5A05FF"/>
  <path d="M66.98 435.37c-13.75 27.26-20.34 45.99-19.8 56.17 1.42 26.24 18.02 26.33 41.3.22.8-.9 1.82-2.09 2.58-2.98a329.34 329.34 0 0 1 7.77-43.1c-21.08 16.41-32.1 12.85-31.85-10.34v.03Z" fill="#5A05FF"/>
  <path d="M157.03 517.2c.95-1.14 2.18-2.7 3.1-3.87-4.02-18.2-4.7-33.08-5-39.43-27.9 24.82-50.05 29.98-64.07 14.88-5.58 14.8-11.01 29.61-16.53 44.4 17.03 37.19 54.7 17.76 82.5-16.02v.03Z" fill="#5A05FF"/>
  <path d="M256.53 431.44c.92-1.26 2.12-2.94 3-4.2-6.83-12.86-10.36-23.6-12.94-32.4-28.56 29.02-55.23 40.93-77.07 34.45-2.55 8.07-9.33 29.46-14.45 44.64 30.31 24.3 73.82-5 101.4-42.49h.06Z" fill="#5A05FF"/>
  <path d="M108.61 322.34c-.03-.5-.09-1.47 2.43-5.92a1849.69 1849.69 0 0 0-22.98 37.67l-4.85 8.8c-.68 1.2-.86 1.73-1.01 2.13l.21.3c.43-.37.77-.64 2.21-2.33.28-.3.61-.74.9-1.04a579.73 579.73 0 0 1 24.1-39.61c-.27.09-.73.15-1 0Z" fill="#5A05FF"/>
  <path d="M111.04 316.42c2.97-4.73 5.86-9.27 8.56-13.41a195.24 195.24 0 0 0-8.56 13.4Z" fill="#5A05FF"/>
  <path d="M85.54 361.92c-33.23 55.13-34 78.45-34 78.66-.12 7.27 4.6 6.14 13.63-3.28a13.07 13.07 0 0 0 2.64-4.26c4.6-12.8 10.4-26.7 17.27-41.3-1.13.7-2.67 1.69-3.93 2.18-4.72 1.75-10.46-.06 4.4-31.97v-.03Z" fill="#5A05FF"/>
  <path d="M127.33 366.8c-7.06 4.75-22.98 13-18.1-12.86a1044.4 1044.4 0 0 0-24.15 37.8c-.03.1-3.99 13.04-3.34 22.58 1.16 16.72 15 13.38 35.28-8.47l2.58-2.82a349.89 349.89 0 0 1 14.2-41.11c-1.9 1.5-4.41 3.52-6.44 4.87h-.03Z" fill="#5A05FF"/>
  <path d="M166.66 432.85c1.2-1.44 2.89-3.68 2.8-5.55-.37-7.37-.43-19.6 1.47-36.24-24.67 22.4-42.9 26.63-51.33 11.94a4018.57 4018.57 0 0 0-20.77 42.68c-1.2 10.67 20.1 44.64 67.86-12.86l-.03.03Z" fill="#5A05FF"/>
  <path d="M252.02 357.38c.8-1.1 1.84-2.61 2.6-3.72-4.25-12.42-5.82-22.21-6.9-30.95-23.34 24.57-44.97 34.27-59.4 26.57a18869.5 18869.5 0 0 1-17.4 41.85c18.36 23.71 55.64 1.47 81.1-33.72v-.03Z" fill="#5A05FF"/>
  <path d="m158.93 250.7-2.12 2.6 1.66-1.99c.19-.28.34-.46.46-.61Z" fill="#5A05FF"/>
  <path d="m158.93 250.7.9-1.08c-.5.59-.68.8-.9 1.08Z" fill="#5A05FF"/>
  <path d="M159.91 257.08c-1.5-1.84 5.56-11.87 19.33-27.52a348.65 348.65 0 0 0-24.7 26.54l2.28-2.83c-1.35 1.63-2.95 3.53-4.82 5.86-15.86 19.3-26.05 35.56-25.28 37.37.46 0 1.25 0 5.52-3.68l1.38-1.22a541 541 0 0 1 29.18-35.44c-1.72.86-2.03.95-2.89.89v.03Z" fill="#5A05FF"/>
  <path d="M133.62 291.63c-34.27 41.26-41.6 60.93-41.73 70.16-.09 5.74 5.22 3.72 15.31-5.89a18.06 18.06 0 0 0 3.2-4.1 487.4 487.4 0 0 1 22.91-38.36c-1.65 1.07-4.14 2.7-5.92 3.25-3.25 1.01-9.17.62 6.26-25.06h-.03Z" fill="#5A05FF"/>
  <path d="M166.3 291.9c-4.42 1.78-10.8 2.3-3.78-14.14a1078.42 1078.42 0 0 0-29.24 35.71c-.06.12-7.42 14.97-7.15 23.41.28 8.56 8.29 9.79 29.92-12.52l2.51-2.64a388.88 388.88 0 0 1 20.71-38.53c-2.97 2.42-8.53 6.96-12.94 8.74l-.03-.03Z" fill="#5A05FF"/>
  <path d="M158.56 321.72c-16.75 26.51-25.01 41.6-24.79 45.29 1.32 21.17 21.54 21.63 51.92-14.51 1.13-1.35 2.67-3.35 2.88-5.1.92-6.96 2.98-18.59 7.61-34.39-21.26 19.76-34.95 22.95-37.62 8.75v-.04Z" fill="#5A05FF"/>
  <path d="M256.9 256.43c-17.86 19.8-33.75 26.91-40.47 18.1-9.14 17.03-20.25 38.42-20.25 38.42 0 .18 2.6 17.24 23.93 8.5 2.82-1.17 17.86-8.22 35.2-32.74.67-.95 1.53-2.2 2.17-3.16-1.53-12-1.2-21.08-.58-29.12Z" fill="#5A05FF"/>
  <path d="M207.87 203.02c-.28 0-.7 0-.95-.19.06-2.45 9.79-12.55 23.69-24.51a123.9 123.9 0 0 0-14.58 11.26c-2.05 1.93-4.08 3.9-6.1 5.86-4.33 4.2-9.94 9.94-14.21 14.2l-8.47 8.87c-10 10.68-10.43 11.84-10.61 12.34l.24.12a13.95 13.95 0 0 0 2.36-1.44 397.58 397.58 0 0 1 28.66-26.54l-.03.03Z" fill="#5A05FF"/>
  <path d="M220.57 199.61c-.46-.7.06-3.65 14.55-15.95-17.37 11.53-27.19 19.33-27.22 19.39-13.62 12.55-26.3 26.84-27.12 30.62-.46 2.12 2.73.64 10.06-4.63.55-.4 1.32-.95 1.87-1.38a503.42 503.42 0 0 1 34.1-30.53c-3.88 2.15-5.1 2.64-6.24 2.51v-.03Z" fill="#5A05FF"/>
  <path d="M162.83 256.19c-6.05 7.42-19.33 25.8-19.4 31.97 0 2.85 2.9 3.71 16.88-8.44a27.74 27.74 0 0 0 3.69-3.93A513.57 513.57 0 0 1 192.5 241c-2.21 1.5-6.84 4.66-9 4.79-1.8.12-4.5-1.41 9.21-18.13-18.68 16.93-29.85 28.47-29.88 28.53Z" fill="#5A05FF"/>
  <path d="M205.5 248.43c.74-.71 1.73-1.7 2.43-2.4a428.09 428.09 0 0 1 27.19-35.28c-2.86 2.4-10.44 8.71-13.5 9.08-2.1.25-2.92-1.6 5.06-11.81A976.18 976.18 0 0 0 192.53 241c-1.01 1.2-11.84 16.08-12 22.25-.09 4.72 6.41 3.34 24.98-14.8v-.02Z" fill="#5A05FF"/>
  <path d="M176.76 295.5c.37 12.11 14.42 8.64 37.3-18.17 1.08-1.23 2.43-3 2.95-4.57 3.32-9.64 7.98-20.44 13.87-32.1-3.59 3.47-9.63 9.3-15.34 12.28-5.06 2.63-10.5 3.59-7.64-6.94-20.99 26.3-31.38 42.8-31.17 49.5h.03Z" fill="#5A05FF"/>
  <path d="M264.39 207.62c-1.23.98-11.94 9.36-10.5-1.23-16.56 23.9-24.29 38-23.16 42.31 2.6 10.22 18.87 2.7 35.93-22.24.52-.77 1.2-1.78 1.68-2.52a134.48 134.48 0 0 1 6.02-26.69c-2 2.42-5.74 6.96-9.97 10.4v-.03Z" fill="#5A05FF"/>
  <path d="M262.33 164.45c-.3-.92 2.85-4.23 12.73-9.54a283.24 283.24 0 0 0-21.32 8.53c-16.94 11.1-26.57 21.1-26.97 22.92-.28 1.26 1.84.67 6.81-1.9l1.57-.83a352.24 352.24 0 0 1 32.43-20.56c-3.38 1.32-4.4 1.6-5.22 1.35l-.03.03Z" fill="#5A05FF"/>
  <path d="m244.78 180.59.15.4c1.08 0 3.66-.95 15.22-8.25.7-.46 1.66-1.05 2.37-1.5a510.9 510.9 0 0 1 37.27-24.1c-7.73 4.49-8.53 4.73-9.17 4.95.8-.68 4.02-2.52 9.17-4.94-41.26 18.99-52.7 28.65-55.01 33.44Z" fill="#5A05FF"/>
  <path d="M205.88 220.94c0 1.62 3.22 1.04 18.37-10.99 1.32-1.04 3.01-2.51 4.2-3.68a533.84 533.84 0 0 1 34.03-30.62c-5.8 4.08-9.23 6.29-10.89 6.47a1.57 1.57 0 0 1-.18-.24c.64-1.72 3.96-4.91 11.14-10.68a785.03 785.03 0 0 0-35.72 25.9c-8.34 7.33-20.99 20.58-20.92 23.84h-.03Z" fill="#5A05FF"/>
  <path d="M244.87 195.26c.7 0 2.89.03 20.34-15.8.71-.65 1.63-1.5 2.34-2.12 10.49-10.71 20.43-20 32.24-30.16-7.6 6.44-8.34 6.84-9.08 7.2 1.08-1 3.5-3.09 9.08-7.2-50 36.36-55.87 45.74-54.92 48.1v-.02Z" fill="#5A05FF"/>
  <path d="M226.86 227.53c.65 3.93 8.75-.27 25-18.8a31.35 31.35 0 0 0 3.01-3.96c8.14-13.53 17.28-25.35 20.29-29.24-5 5.09-10.4 10.28-12.65 10.25-.8-1.17 2.06-4.85 5.04-8.5-26.27 25.95-42.1 41.6-40.69 50.22v.03Z" fill="#5A05FF"/>
  <path d="M268.99 188.87c.92 2.58 8.13-2.76 17.37-17.02l1.16-1.84c2.3-5.31 5.77-12.74 12.24-22.86-1.16 1.75-3.99 5.89-5.03 6.35.3-.68 1.41-2.33 5.03-6.35-15.4 16.84-32.83 35.92-30.8 41.72h.03Z" fill="#5A05FF"/>
  <path d="M318.66 1244.68c.28-.62.58-1.41.83-2.03a500.01 500.01 0 0 1-43.32-29.48c-14.8 10.67-30.38 7.27-52.16-11.39 14.17 12.89 34.18 28.81 48.97 41.03 28.87 21.01 40.77 12.61 45.68 1.87Z" fill="#5A05FF"/>
  <path d="M427.83 1217.46c96.98 4.91 150-44.3 172.95-74.09 1.14-1.44 2.55-3.44 3.65-4.91a362.18 362.18 0 0 1-47.12-22.09c-43.7 40.16-88.92 60.38-146.57 65.53 3.19 6.38 10.7 21.36 17.09 35.53v.03Z" fill="#5A05FF"/>
  <path d="M546.57 1073.08a447.54 447.54 0 0 1 10.74 43.32c111.37-11.45 175.5-77.84 203.82-116.4 1.38-1.88 3.16-4.42 4.5-6.33a334.39 334.39 0 0 1-47.03-21.9c-50.6 52.37-105.27 84.55-172 101.31h-.03Z" fill="#5A05FF"/>
  <path d="M711.51 921.79c1.5 7.51 5.53 27.49 7.1 49.98 130.79-28.1 197.61-121.84 214.98-149.91 1.29-2.12 2.98-4.94 4.23-7.06a372.65 372.65 0 0 1-45.34-22.58c-49.31 60.23-108.5 102.6-180.94 129.57h-.03Z" fill="#5A05FF"/>
  <path d="M937.82 814.8c1.6 8.6 4.88 26.48 5.8 51.42 110.98-33.75 161.57-109.8 181.85-152.11.99-2.06 2.21-4.82 3.16-6.88a419.53 419.53 0 0 1-37.98-23.8c-37.86 58.17-86.43 99.92-152.86 131.4l.03-.03Z" fill="#5A05FF"/>
  <path d="M1080.56 630.6c1.96 7.45 7.21 27.3 10.09 52.8 94.32-29.74 125.73-101.07 136.07-140.92.5-1.94 1.11-4.51 1.57-6.45-16.69-12.18-28.75-21.97-34.55-26.66-22.33 53.57-58.32 92.08-113.21 121.22h.03Z" fill="#5A05FF"/>
  <path d="M1316.35 473.9c0-4.1-8.33-16.37-24.98-36.78-5.15 44.7-25.19 76.12-63.05 98.91 2.49 8.56 7.67 26.33 11.69 51.95 66.76-19.58 76.46-79.9 76.34-114.08Z" fill="#5A05FF"/>
  <path d="M706.97 928.41c1.38-1.96 3.2-4.63 4.54-6.6a348.76 348.76 0 0 1-48.2-25.15c-51.11 54.1-106.13 86.52-173.2 101.98a516.6 516.6 0 0 1 9.64 47.93c117.33-8.04 184-85.3 207.22-118.15Z" fill="#5A05FF"/>
  <path d="M656.16 844.32c1.78 9.32 5.47 28.68 7.15 52.3 133.6-25.52 199.56-121.89 216.62-150.82 1.25-2.15 2.88-5.06 4.1-7.21a428.23 428.23 0 0 1-47.46-23.47c-48.84 60.53-107.84 102.78-180.4 129.2Z" fill="#5A05FF"/>
  <path d="M884 738.59c2.06 8.96 6.36 27.58 8.45 53.63 120.73-34.3 169.7-119.6 185.16-154.66.92-2.09 2.06-4.91 2.95-7a477.95 477.95 0 0 1-42.65-24.3c-36.82 58.9-85.73 100.94-153.9 132.3v.03Z" fill="#5A05FF"/>
  <path d="M1024.13 553.95a362.77 362.77 0 0 1 13.81 52.34c103.7-31.35 130.61-109.74 137.36-141.96.4-1.9.86-4.48 1.23-6.38-14.27-8.5-24.61-15-39.52-24.82-20.71 52.8-56.58 91.21-112.88 120.85v-.03Z" fill="#5A05FF"/>
  <path d="M1271.77 393.27c-.29-3.88-10.88-15.52-31.76-34.91-2.98 44.36-23.16 76-63.48 99.59a378.49 378.49 0 0 1 17.24 51.45c76.55-21.97 80.05-88.51 78-116.13Z" fill="#5A05FF"/>
  <path d="M651.62 851c1.38-1.99 3.2-4.69 4.54-6.68-23.62-10.83-40.07-21.57-47.12-26.14-51.15 54-105.49 86-171.02 100.7 1.38 7.72 5.06 28.25 6.96 49.82 115.95-5.16 183.11-84 206.61-117.7h.03Z" fill="#5A05FF"/>
  <path d="M602.72 765.65c1.71 9.82 4.87 28.1 6.32 52.53C741.37 793.78 806.26 698 822.98 669.22c1.23-2.12 2.8-4.97 3.99-7.09-18.5-7.6-31.02-13.56-47.8-22.83-47.62 59.44-105.33 100.76-176.42 126.35h-.03Z" fill="#5A05FF"/>
  <path d="M826.97 662.1c1.9 7.52 7 27.52 9.6 53.02 123.34-34.18 170.35-119.26 184.83-154.27.86-2.05 1.9-4.81 2.73-6.9a551.85 551.85 0 0 1-45.2-22.46c-36.1 58.51-82.99 98.8-151.96 130.64v-.03Z" fill="#5A05FF"/>
  <path d="M962.58 481.7a331.08 331.08 0 0 1 16.36 49.8c106.22-33.08 130.43-109.2 135.89-140.4.3-1.85.67-4.27.95-6.11a888.21 888.21 0 0 1-42.8-21.48c-18.9 50.84-53.97 88.4-110.4 118.19Z" fill="#5A05FF"/>
  <path d="M1215.1 317.1c-.22-1.6-.59-3.7-.83-5.26-8.72-6.2-16.23-11.53-35.78-25.19-1.32 42.4-21.23 73.64-62.68 98.34a360.1 360.1 0 0 1 21.2 48.1c81.8-24.57 81.86-89.3 78.12-116h-.03Z" fill="#5A05FF"/>
  <path d="M598.24 772.28c1.38-1.97 3.13-4.63 4.48-6.63a325.28 325.28 0 0 1-45.23-26.6c-50.01 53.17-102.63 84.16-165.65 97.54 1.17 9.3 3.56 28.65 4.36 50.71 111.92-2.79 178.56-81.37 202-115.02h.04Z" fill="#5A05FF"/>
  <path d="M551.97 687.08c1.32 8.16 4.45 27.24 5.55 51.94 102.39-17.86 174.24-86.25 207.32-144.3 1.16-2.05 2.64-4.81 3.77-6.87a417.28 417.28 0 0 1-47.4-21.97c-45.44 57.38-100.82 97.02-169.24 121.2Z" fill="#5A05FF"/>
  <path d="M768.61 587.85c2.24 7.98 7.52 26.63 10.56 51.45C902.2 605.34 946.69 522.41 960.1 488.32c.77-2 1.75-4.66 2.48-6.65a532.41 532.41 0 0 1-46.75-20.35c-33.57 55.78-80.36 95.97-147.22 126.53Z" fill="#5A05FF"/>
  <path d="M897.17 414.69c3.4 6.9 11.41 23.07 18.62 46.63 109.88-34.79 128.75-113.03 131.91-136.16.24-1.72.46-4.02.67-5.74a908 908 0 0 1-45.29-18.1c-16.69 48.1-50.35 84.13-105.88 113.37h-.03Z" fill="#5A05FF"/>
  <path d="M1149.65 249.8c-.31-1.47-.8-3.43-1.13-4.87-13.14-6.9-26.3-13.8-39.43-20.74.55 39.98-18.75 70.26-60.72 95.23 4.73 7.21 14.57 22.19 24.61 44.1 84.86-27.22 81.89-88.58 76.67-113.71Z" fill="#5A05FF"/>
  <path d="M547.64 693.52c1.32-1.9 3.04-4.51 4.33-6.44a297.16 297.16 0 0 1-42.71-26.85c-47.31 50.68-98.77 80.97-157.34 92.66.7 9.3 2.18 28.62 1.96 50.87 109.11-.16 175.9-84.44 193.76-110.27v.03Z" fill="#5A05FF"/>
  <path d="M504.41 609.67c1.14 7.51 4.14 27.46 4.82 50.59 98.06-15.83 167.43-83.73 197-137.05 1.08-1.94 2.46-4.57 3.5-6.54-23.65-9.05-38.9-17.09-46.23-20.92-42.5 54.3-94.53 91.58-159.12 113.92h.03Z" fill="#5A05FF"/>
  <path d="M709.76 516.67c2.4 7.61 7.98 25.38 11.48 49.22 124.08-33.75 164.36-119.45 173.78-144.91.7-1.87 1.54-4.39 2.18-6.3a545.9 545.9 0 0 1-47.62-18.19c-30.96 52.84-75.38 91.03-139.82 120.18Z" fill="#5A05FF"/>
  <path d="M828.93 353.6c3.47 5.92 12.7 21.66 20.62 42.9 108.77-34.68 123.59-107.88 125.55-129.48.16-1.6.25-3.71.37-5.3a973.34 973.34 0 0 1-46.97-14.7c-14.27 44.54-45.9 78.42-99.54 106.58h-.03Z" fill="#5A05FF"/>
  <path d="M1076.94 192c-.4-1.35-.99-3.13-1.39-4.45a7405.75 7405.75 0 0 1-42.4-16.29c2.3 36.4-16.57 66-57.68 90.48a284.3 284.3 0 0 1 27.58 39.61c88.98-29.82 79.04-91.21 73.89-109.32V192Z" fill="#5A05FF"/>
  <path d="M500.33 615.83c1.26-1.84 2.85-4.32 4.08-6.16a278.4 278.4 0 0 1-39.67-26.82c-44.4 48.11-92.26 76.28-146.3 86.15.28 8.1.9 27.13-.24 50.38 80.57 2.21 146.9-52.03 182.13-103.55Z" fill="#5A05FF"/>
  <path d="M460.5 534.28c1.23 8.53 3.75 26.3 4.24 48.57 92.08-13.31 156.3-76.95 183.3-127.42.98-1.8 2.2-4.26 3.12-6.1a375.1 375.1 0 0 1-44.42-19.8c-38.11 49.83-87.3 85.09-146.24 104.72v.03Z" fill="#5A05FF"/>
  <path d="M651.2 449.36c2.45 6.93 8.18 23.13 12.33 46.39 95.05-25.25 146.81-86.95 163.56-136.32.58-1.75 1.3-4.08 1.84-5.83a564.91 564.91 0 0 1-47.74-16.01c-27.37 48.38-69.9 84.95-130 111.74v.03Z" fill="#5A05FF"/>
  <path d="M758.76 298.93a232.24 232.24 0 0 1 22.4 38.66c84.2-26.79 115.64-79.84 117.02-120.55.06-1.44 0-3.34.03-4.79a1042.26 1042.26 0 0 1-47.98-11.29c-11.2 39.86-41.12 71.92-91.5 97.97h.03Z" fill="#5A05FF"/>
  <path d="M928.5 247.01c70.93-24.54 82.53-69.27 69.77-102.96-.46-1.2-1.14-2.8-1.63-3.96a7491.88 7491.88 0 0 1-44.73-11.9c4.08 32.8-13.47 60.32-53.63 84.12 5.55 5.44 17.12 16.73 30.22 34.77V247Z" fill="#5A05FF"/>
  <path d="M456.76 540.05c1.17-1.72 2.64-4.05 3.78-5.8a251.42 251.42 0 0 1-36.03-26.41C383.77 552.5 340.32 578.1 291.76 586c-.1 6.81-.4 27.58-2.37 49.06 73.15 4.7 134.42-46.02 167.37-95.05v.03Z" fill="#5A05FF"/>
  <path d="M420.83 461.9c1.14 8.5 3.29 24.37 3.69 45.97 79.19-9.73 140.67-65.08 166.48-115.58.85-1.66 1.9-3.9 2.73-5.55a361.26 361.26 0 0 1-42.04-18.5c-33.2 44.6-78.42 77-130.86 93.7v-.03Z" fill="#5A05FF"/>
  <path d="M593.7 386.7c2.36 5.99 8.68 21.91 13.03 42.87 90.03-23.07 136.78-79.87 150.56-125.33.5-1.6 1.04-3.72 1.47-5.31a597.78 597.78 0 0 1-47.1-13.66c-23.74 43.85-62.34 77.01-117.96 101.4v.04Z" fill="#5A05FF"/>
  <path d="M687.74 251.31c4.57 5.4 14.1 16.6 23.96 33.96 80.75-25.46 107.88-74.92 106.53-109.56-.07-1.26-.22-2.91-.28-4.17a1207.23 1207.23 0 0 1-48.33-7.89c-8.03 34.61-35.59 64.1-81.85 87.66h-.03Z" fill="#5A05FF"/>
  <path d="M850.26 200.96c70.14-24.82 79.28-65.29 64.46-94.86-.52-1.05-1.29-2.4-1.84-3.44-15.46-2.45-35.65-5.74-46.3-7.46 5.74 28.66-10.19 53.64-48.66 76.34 5.52 4.26 18.47 14.24 32.34 29.42Z" fill="#5A05FF"/>
  <path d="M417.46 467.25c1.04-1.6 2.36-3.72 3.37-5.31A217.61 217.61 0 0 1 389 436.2c-35.81 40.19-75.14 63.35-116.96 68.88-.43 7.24-1.63 26.5-4.33 47.1 64.62 7.32 121.07-41.15 149.76-84.9v-.03Z" fill="#5A05FF"/>
  <path d="M385.86 393.58c.92 7.2 2.85 22.21 3.1 42.59 70.6-6.63 125.58-57.41 146.78-101.78.7-1.47 1.56-3.46 2.24-4.93a339.03 339.03 0 0 1-38.94-16.94c-28.2 39.4-67.35 67.4-113.22 81.06h.04Z" fill="#5A05FF"/>
  <path d="M538.04 329.45a226.96 226.96 0 0 1 13.65 38.76c83.73-20.38 125.03-73.18 134.97-112.2.37-1.42.74-3.29 1.08-4.7a607.41 607.41 0 0 1-45.78-11.2c-19.27 38.2-54.22 68.24-103.92 89.34Z" fill="#5A05FF"/>
  <path d="M616.8 211.36c4.7 4.45 14.51 13.69 25.16 28.75 71.27-22.12 98.67-64.5 94.2-96.68-.16-1.07-.44-2.45-.62-3.52a1552.1 1552.1 0 0 1-47.93-4.4c-4.82 29.34-28.65 54.87-70.84 75.85h.03Z" fill="#5A05FF"/>
  <path d="M769.6 163.65a229.88 229.88 0 0 0-34.06-23.74c41.36-23.97 47.03-46.49 44.55-61.18a71.25 71.25 0 0 0-1.66-6.08c15.71 1.02 31.45 2.06 47.19 3.04.61.86 1.47 1.96 2.06 2.85.8 1.2 1.78 2.86 2.48 4.15.25.49.61 1.13.86 1.65 11.44 23.53 1.32 56.7-61.42 79.31Z" fill="#5A05FF"/>
  <path d="M382.94 398.37c.9-1.42 2.06-3.35 2.92-4.76a182.37 182.37 0 0 1-27.22-24.73c-30.37 35.1-64.65 55.26-99.1 58.36-.92 8.16-2.82 25.19-6.2 44.42 51.4 9.48 102.11-29.97 129.57-73.3h.03Z" fill="#5A05FF"/>
  <path d="M483.21 282.67c.55-1.26 1.23-2.98 1.75-4.27a312.73 312.73 0 0 1-35.22-15.12c-22.4 32.95-55.63 56.76-93.58 67 .73 6.2 2.45 20.68 2.51 38.57 57.96-3.07 107.45-46.7 124.54-86.18Z" fill="#5A05FF"/>
  <path d="M484.96 278.43a187.88 187.88 0 0 1 14.14 34.09c71.28-16.1 110.15-60.41 117.08-97.14.22-1.2.47-2.79.65-3.99a644.8 644.8 0 0 1-43.78-8.65c-14.76 32.43-44.4 57.9-88.06 75.7h-.03Z" fill="#5A05FF"/>
  <path d="M547.03 179.7a161.8 161.8 0 0 1 25.99 23.04c65.69-19.94 87.65-56.51 80.23-82.07-.25-.86-.64-1.96-.95-2.8-20.68-.12-38.3-.58-46.76-.82-1.47 23.16-21.72 44.82-58.54 62.68l.03-.03Z" fill="#5A05FF"/>
  <path d="M687.61 135.52c-15.58-9.76-28.9-15.13-35.28-17.7C676 104.35 689.15 90.6 691.36 77c1-7.03.03-10.52-2.74-16.17 9.15-.3 11.3-.37 47.5-1.44.64.67 1.57 1.53 2.18 2.2 6.81 7.28 8.16 13.63 8.59 15.75.06.34.18.8.25 1.13 1.5 10.07-1.26 35.75-59.53 57.04Z" fill="#5A05FF"/>
  <path d="M353.73 334.43c.74-1.23 1.69-2.89 2.43-4.15a150.4 150.4 0 0 1-22.1-23.4c-24.57 29.57-52.77 46.2-79.4 46.75a864.77 864.77 0 0 1-8 41.18c39.27 11.63 83.6-21.57 107.1-60.38h-.03Z" fill="#5A05FF"/>
  <path d="M434.09 237.9c.37-1.04.83-2.42 1.2-3.5a270.55 270.55 0 0 1-30.96-13.13c-15.96 25.9-42.93 45.23-72.14 51.67.62 5.9 1.94 18.13 1.9 33.93 45.97.43 87.7-35.46 100.03-69l-.03.03Z" fill="#5A05FF"/>
  <path d="M435.25 234.4c2.86 4.55 8.8 14.03 14.45 28.88 60.08-12.15 94.32-49.65 97.11-80.36.1-.95.13-2.27.19-3.22a763.54 763.54 0 0 1-41.18-5.95c-9.6 25.37-34.67 46.91-70.57 60.66Z" fill="#5A05FF"/>
  <path d="M479.28 156.84c4.91 2.49 15.1 7.61 26.54 16.9 54.62-16.04 75.85-46.17 64.8-65.99-.34-.61-.89-1.4-1.26-2.02-14.88 1.01-20.64 1.35-44.98 2.82 2.18 16.7-13.83 33.87-45.13 48.32l.03-.03Z" fill="#5A05FF"/>
  <path d="M658 77.96c-.06.22-.12.5-.18.68-7.24 23.62-51.82 38.22-52.25 38.35-.58.18-1.29-.52-1.81-.74-9.76-4.02-21.33-7.58-34.37-10.55 15.44-8.6 22.9-14.64 29.58-24 5.25-9.3 5.13-14.78-.46-21.69 31.3-4.1 47.78-5.57 49.46-4.38 8.78 6.13 12.15 13.65 10.03 22.33Z" fill="#5A05FF"/>
  <path d="M330.3 276.38c.57-1.01 1.31-2.4 1.86-3.44a119.75 119.75 0 0 1-16.5-21.63c-18.54 23.75-39.74 36.24-58.18 34.24-1.38 5.58-5.58 22.52-9.75 37.13 27.12 13.77 63.97-13.32 82.56-46.3Z" fill="#5A05FF"/>
  <path d="M389.17 200.87c.21-.8.43-1.84.61-2.64a245.56 245.56 0 0 1-26.2-10.86c-9.48 18.75-28.75 32.55-49.15 35.2.46 5.27 1.35 15.06 1.23 28.74 32.95 3.87 66.57-23.93 73.5-50.44Z" fill="#5A05FF"/>
  <path d="M389.78 198.23c2.64 3.35 8.8 11.2 14.52 23.07 48.75-8.19 77.04-38.56 75.29-62.03a56.5 56.5 0 0 0-.28-2.4c-12.3-.76-23.25-1.65-37.83-3.06-4.5 18.4-23.35 34.57-51.7 44.42Z" fill="#5A05FF"/>
  <path d="M414.67 143.47c3.65 1 14.78 4.1 25.46 9.63.4.22.9.64 1.32.68 7.64.8 72.63-27.68 48.11-48.64-.46-.4-1.1-.85-1.56-1.22-26.11 3.92-37.25 5.7-42.59 6.56 5.86 9.64-5.92 22.25-30.74 32.92v.07Z" fill="#5A05FF"/>
  <path d="M564.91 85.05s-.02.06-.06.1c-12.2 13.74-40.19 23.3-40.44 23.37-.55.12-1.25-.28-1.8-.4-9.85-2.09-21.48-3.5-34.61-4.17 6.35-3.44 11.29-6.23 16.96-10.83 8.07-6.63 15.38-15.93 4.36-22.61 34.24-8.17 42.65-10.13 46.05-10.13 1.08 0 1.66.18 2.4.46 7.79 2.82 19.11 9.73 7.14 24.2Z" fill="#5A05FF"/>
  <path d="M268.38 223.94a6525.15 6525.15 0 0 1-11.45 32.5c14.18 15.46 42.8-4.24 56.24-31.24.4-.8.89-1.87 1.29-2.67A85.93 85.93 0 0 1 303.94 203c-11.63 17.06-26.24 25.65-35.53 20.92l-.04.03Z" fill="#5A05FF"/>
  <path d="M303.48 180.1c.36 5.89.67 13.25.42 22.92 19.61 7.24 44.46-12.7 45.3-30.68v-1.75a217.14 217.14 0 0 1-20.87-8.29c-2.4 10.53-14.45 19.18-24.85 17.8Z" fill="#5A05FF"/>
  <path d="M363.58 187.37c36.05-4.02 58.63-26.66 51.85-42.4-.21-.46-.52-1.07-.76-1.5-11.72.09-19.61.06-33.94 0 1.1 10.58-11.87 21.75-31.57 27.15a86.72 86.72 0 0 1 14.39 16.78l.03-.03Z" fill="#5A05FF"/>
  <path d="M354.16 140.12c9.51.3 18.01 1.32 25.25 3.04.4.1.92.37 1.32.3.13 0 15.9-3.7 27.46-10.76 13.41-8.23 14.67-16.7 2.86-19.33-.56-.13-1.32-.25-1.88-.34a1299.06 1299.06 0 0 0-39.48 10.46c.86.19 2.05.43 2.82.9 2.98 1.77 2.4 7.94-18.38 15.76l.03-.03Z" fill="#5A05FF"/>
  <path d="M478.51 92.69c-3.12 2.94-7.11 5.4-9.01 6.56l-.5.31c-10.34 6.14-23.5 10.95-23.6 10.95-.51.13-1.25 0-1.8 0-10.03-.06-21.6.77-34.43 2.49l2.46-1.26c16.05-8.28 22.37-16.29 14.7-18.6-1.2-.36-2.89-.48-4.12-.57 42.5-15.22 44.98-15.1 46.8-15.04 14.63.65 18.46 6.75 9.5 15.16Z" fill="#5A05FF"/>
  <path d="M302.83 181.94c.22-.55.46-1.29.65-1.84a58.69 58.69 0 0 1-4.18-17.03c-.86 1.9-2.42 5.43-5.49 8.28-.06.07-6.54 6.02-6.26-1.34-4.82 9.6-8.13 16.62-13.16 27.24.12 1.63.24 3.16 1.07 4.76 4.36 8.34 20.35-1.5 27.37-20.07Z" fill="#5A05FF"/>
  <path d="M348.02 134.1c-1.13 1.24-5.27 4.49-19.17 8.26-9.51 2.58-19.48 2.52-29.06 4.79 3.8-.98 6.54-1.9 7.52-2.55-.3-.06-.55-.1-2.24.46-.25.06-.46.16-.68.25-.27.09-.52.21-.8.3l-1.53.59c4.7-2.03 9.3-3.96 14.09-5.9a789.65 789.65 0 0 1 18-7.02h.04c.64-.15 1.47-.4 2.12-.55a56.1 56.1 0 0 1 5.86-1.17l1.04-.12c4.85-.46 6.75.58 4.81 2.67Z" fill="#5A05FF"/>
  <path d="M314.89 153.13c4.5 6.47-2.95 15-10.1 14.02a7.06 7.06 0 0 1-5.49-4.08c-.06-.28.03-.67.06-.95.19-2.91.4-7.88.43-14.97.16 2.67 1.26 2.76 1.63 2.48.12-.09.27-.3.27-.58 0-.5-.42-1.2-1.9-1.9 5.13 2.05 9.45 3.59 14.48 5.18.19.25.47.55.62.8Z" fill="#5A05FF"/>
  <path d="M398.87 107.23c-1.3 2.06-6.26 6.66-25.16 14.58-.34.15-.8.33-1.14.49-.86.33-1.96.89-2.85 1.16-1.97.52-4 .83-5.99 1.29a291.8 291.8 0 0 0-29.54 8.53c6.38-3.07 12.98-6.5 13.74-8.68-.8-1.17-5.03.27-9.32 1.87 2.54-1.26 38.13-18.8 44.33-20.47 11.81-3.16 18.38-2.64 15.93 1.23Z" fill="#5A05FF"/>
  <path d="M328.33 162.3s7.02.37 14.97-2.08c14.67-4.57 21.02-14.8 12.09-19.52-1.26-.67-1.72-.92-30.65 2.67.61.22 1.47.5 1.96.9 2.6 2.08-1.6 7.23-12.43 8.1a56.5 56.5 0 0 1 13.35 9.32c.22.18.4.58.68.64l.03-.03Z" fill="#5A05FF"/>
  <path d="M765.64 993.67c1.6 8.04 4.9 24.76 6.4 46.12 122.28-29.18 187.1-111.93 209.3-146.14 1.31-2.02 3-4.75 4.29-6.8a342.02 342.02 0 0 1-42-20.63c-49.87 59.03-106.41 99.53-178 127.45Z" fill="#5A05FF"/>
  <path d="M1128.67 707.23a369.36 369.36 0 0 1 5.89 51.6c87.22-28.74 120.3-98.3 132.27-137.2.58-1.9 1.28-4.45 1.84-6.35-6.72-6.13-15.13-13.8-28.66-27.27-24.18 53.44-58.51 90.2-111.34 119.22Z" fill="#5A05FF"/>
  <path d="M821.57 1371.82s.21-.06.34-.06l-1.2.24.86-.15v-.03Z" fill="#5A05FF"/>
  <path d="M833.32 1369.21c17.55-3.96 37.65-8.9 53.42-13.1 1.65-.49 3.5-1.07 3.28-1.87 0-.06-.12-.12-.15-.22a523.35 523.35 0 0 1-40.78 9.15c-2.79 1.72-6.6 3.68-15.77 6.01v.03Z" fill="#5A05FF"/>
  <path d="m833.32 1369.21-11.44 2.55c4.54-.89 8.31-1.75 11.44-2.55Z" fill="#5A05FF"/>
  <path d="M711.51 1383.6c3.8-.06 6.66-.12 11.6-.31 16.78-.88 39.09-3.19 55.81-4.75 39.06-5.09 42.19-11.54 43.23-13.62.13-.22.22-.56.31-.8a544.6 544.6 0 0 1-43.54 3.8c-13.2 9.18-33.35 13.84-67.4 15.68Z" fill="#5A05FF"/>
  <path d="M663.62 1383.17c-.34.09-.8.16-1.17.19l27.4.64 23.1-.31h-.67c-16.23-.82-32.46.19-48.7-.52h.04Z" fill="#5A05FF"/>
  <path d="M707.56 1360.9c-17.74 12.95-41.24 18.41-78.61 18.28 57.99 9.15 112.2 2.37 123.37-15.43.25-.4.55-.95.77-1.35-22.55.18-38.66-.98-45.57-1.5h.04Z" fill="#5A05FF"/>
  <path d="M626.37 1378.94a658.3 658.3 0 0 1-45.9-6.14c-1.96.98-3.37 1.26-7.42.83 16.72 2.85 39.2 5.28 56.02 7.46.28 0 .65-.13.9-.25 0-.41-.2-.82-.56-1.23-.64-.7-2.12-.61-3.04-.7v.03Z" fill="#5A05FF"/>
  <path d="M547.46 1362.83c76.33 26.33 124.1 2.82 134.17-11.9.37-.56.83-1.32 1.2-1.88-23.26-2.27-39.89-5.43-46.98-6.75-21.45 16.33-48.72 22.68-88.42 20.56l.03-.03Z" fill="#5A05FF"/>
  <path d="M480.57 1350.93c17.52 5.46 41.27 11.35 59 16.04 3.9.68 8.32.92 8.01-3.25 0-.28-.1-.61-.12-.86a619.25 619.25 0 0 1-48.27-12.21c-4.78 2.79-9.48 2.85-18.62.31v-.03Z" fill="#5A05FF"/>
  <path d="M468.2 1334.76c30.75 17.09 39 21.69 82.82 19.2 15.8-.89 44.58-5.61 60.07-27.27.5-.71 1.14-1.66 1.6-2.39a476.07 476.07 0 0 1-47.74-12.03c-25.13 19.66-54.96 26.6-96.74 22.49Z" fill="#5A05FF"/>
  <path d="M390.95 1315.18c16.54 7.86 39.21 16.94 56.09 24.06 12.42 4.6 19.48 3.49 20.95-3.23.1-.36.15-.88.22-1.25a590.07 590.07 0 0 1-47.38-17.98c-7.73 4.91-15.83 4.48-29.88-1.6Z" fill="#5A05FF"/>
  <path d="M392.36 1295.09c31.08 25.03 35.87 28.87 77.69 27.79 32.86-.86 56.88-11.53 71.49-31.69.61-.86 1.38-1.99 1.96-2.88-24.27-7.34-41.33-14.55-47.74-17.25-28.35 22.8-60.23 30.19-103.4 24.03Z" fill="#5A05FF"/>
  <path d="M305.78 1266.31c15.64 10.37 37.34 22.85 53.41 32.52 22.1 11.57 29.95 5.25 32.62-2.09.18-.49.37-1.16.52-1.65a523 523 0 0 1-45.75-23.72c-10.92 7.52-22.76 6.04-40.83-5.06h.03Z" fill="#5A05FF"/>
  <path d="M474.04 1244.59c.7-.99 1.6-2.34 2.3-3.32-23.5-9.51-41.15-19.24-46.95-22.43-31.14 25.56-64.52 33.32-108.24 25.16a762.65 762.65 0 0 0 25.46 27.37c.19.09 24.86 8.53 50.08 8.62 42.55.15 65.56-19.17 77.35-35.44v.04Z" fill="#5A05FF"/>
  <path d="M995.01 1314.23a912.8 912.8 0 0 0 11.6-5.83c-2.54 1.26-4.45 2.15-6.41 3.07a83.26 83.26 0 0 1-5.19 2.76Z" fill="#5A05FF"/>
  <path d="M993.76 1314.84c.49-.24.89-.42 1.25-.61-.42.22-.85.43-1.25.61Z" fill="#5A05FF"/>
  <path d="M984.67 1316.23c6.75-1.38 14.73-4.45 22.95-8.32-.33.19-.64.34-.98.49.4-.18.8-.4 1.23-.61 26.57-12.52 55.84-33.32 56.15-33.6.43-.33.98-.8 1.41-1.13a98.85 98.85 0 0 1-16.51 5.34c-17.67 13.89-36.29 24.85-64.25 37.83Z" fill="#5A05FF"/>
  <path d="m1067.61 1273.3 6.17-4.02c5.07-3.35 12.64-8.58 22.7-15.67 4.99-3.6 12.34-9.13 22.06-16.57l2.82-2.24c.34-.34.28-.68-.21-1.66a411.97 411.97 0 0 1-55.72 39.89c1.23.73 1.72.46 2.18.24v.03Z" fill="#5A05FF"/>
  <path d="M1134.25 1217.52c-1.04.68-2.61 1.38-3.47 2.27-3.86 3.99-6.01 9.21-9.63 13.38 20.49-12.85 47.65-39.45 55.47-47.31l2.46-2.45a72.05 72.05 0 0 0 8.8-12.68c-19.88 20.81-37.92 36.55-53.63 46.82v-.03Z" fill="#5A05FF"/>
  <path d="M1169.81 1192.7c3.87-3.71 8.62-8.43 12.82-12.61a72.54 72.54 0 0 1-3.58 3.29c-2.15 2.24-4.79 5.06-9.24 9.32Z" fill="#5A05FF"/>
  <path d="M1185.61 1177.15c-.92.92-1.96 1.93-2.98 2.97.83-.79 1.75-1.71 2.98-2.97Z" fill="#5A05FF"/>
  <path d="M1236.3 1119.53c1.1-1.41 2.15-2.86 3.28-4.21l-3.28 4.21Z" fill="#5A05FF"/>
  <path d="M889.87 1354.06c7.18-1.6 15.4-3.59 26.78-7.43l15.16-5.4c43.9-16.35 50.13-22.34 52.19-24.3.22-.21.5-.49.67-.7a307.27 307.27 0 0 1-30.34 8.98c-14.33 10.31-33.01 18.66-64.46 28.81v.04Z" fill="#5A05FF"/>
  <path d="M938.74 1323.1c10.8 2.29 25.86-1.14 45.17-10.28 17.98-8.53 41.08-20.71 60.04-39.55.62-.58 1.38-1.41 2-1.99a158.13 158.13 0 0 1-22.09 1.75c-24.3 20.83-48.97 35.34-85.09 50.1l-.03-.03Z" fill="#5A05FF"/>
  <path d="M1048.92 1278.4c30.04-14.85 56.8-33.78 79.5-56.27l2.36-2.37a74.65 74.65 0 0 1-6.56-4.57c-24.73 23.32-48.14 40.07-78.27 56.06 0 .06 2.21 5.03 2.97 7.15Z" fill="#5A05FF"/>
  <path d="M1137.16 1192.43c-1.47.89-3.83 1.59-4.91 2.91-.3.37-.33 1.08-.49 1.54a143.67 143.67 0 0 1-7.54 18.34c10.67-5.24 38.99-19.14 78.66-66.64l2.74-3.28a93.48 93.48 0 0 0 2.3-14.94c-23.97 27.55-47.78 48.44-70.69 62.07h-.07Z" fill="#5A05FF"/>
  <path d="M1236.76 1118.91a232.13 232.13 0 0 0 17.79-26.04c-19.91 26.6-34.08 41.78-48.97 52.43a299.28 299.28 0 0 1-17.7 25.43c11.91-5.98 35.75-35.03 48.91-51.82h-.03Z" fill="#5A05FF"/>
  <path d="M1277.41 1056.29c-.43.37-1.13.74-1.44 1.2-.52.74-1.01 1.84-1.47 2.64a529.85 529.85 0 0 1-17.55 29.12 39.4 39.4 0 0 0-2.18 3.8c.86 0 1.41-.15 4.23-4.08 12.21-17.46 13.23-18.9 31.73-50.07-6.57 10.61-10.77 15.34-13.29 17.42l-.03-.03Z" fill="#5A05FF"/>
  <path d="M1295.61 1030.58a833.48 833.48 0 0 0-4.91 8.29 306.9 306.9 0 0 0 4.91-8.29Z" fill="#5A05FF"/>
  <path d="m1296 1029.91.86-1.54c-.43.77-.86 1.51-1.25 2.24l.39-.67v-.03Z" fill="#5A05FF"/>
  <path d="m937.52 1324.54 1.22-1.44a347.86 347.86 0 0 1-34.57 4.48c-19.92 15.61-44.34 26.54-81.74 36.54 11.32.18 18.84-.25 26.63-.92 46.67-11.78 75.57-24.45 88.43-38.66h.03Z" fill="#5A05FF"/>
  <path d="M1017.78 1261.98c.77-.83 1.78-1.96 2.52-2.82-12 0-20.5-.89-27.22-1.78-30.07 27.03-61.27 45.38-104.25 61.39a307.03 307.03 0 0 0 15.34 8.81c32.21-10.1 79.06-27.89 113.61-65.6Z" fill="#5A05FF"/>
  <path d="M1023.83 1273c15.46-6.42 62.52-25.93 105.6-74.44.86-.95 1.97-2.24 2.82-3.22a108.71 108.71 0 0 1-12.7-7.24c-30.62 30.71-60.29 51.97-99.22 71.06a117.95 117.95 0 0 1 3.53 13.84h-.03Z" fill="#5A05FF"/>
  <path d="M1125.97 1162.24a191.4 191.4 0 0 1-6.42 25.86c15.13-6.53 55.26-23.87 100.21-84.62.89-1.19 2.06-2.82 2.95-4.05-.47-2.21-1.17-5.52-4.09-16.87-29.14 35.68-56.88 59.49-92.65 79.65v.03Z" fill="#5A05FF"/>
  <path d="M1273.42 1061.39c1.66-2.52 5.06-7.73 11.39-28.38-21.76 32.33-40.32 52.22-62.1 66.48a331.3 331.3 0 0 1-14.85 30.9c6.9-2.88 27.95-11.72 65.56-69Z" fill="#5A05FF"/>
  <path d="m1317.54 988.09 16.14-36.88c2.76-7 4.6-12.06 6.63-17.92-3.44 8.38-9.88 23.94-19.02 38.3-8.56 13.43-15.53 18.95-16.85 19.9-.7.53-1.81 1.05-2.36 1.75-.58.77-.8 2.06-1.14 2.95a521.48 521.48 0 0 1-16.13 36.79c3.55-.4 11.9-1.38 32.73-44.89Z" fill="#5A05FF"/>
  <path d="M887.04 1320.92c.56-.61 1.23-1.5 1.75-2.12-16.53.83-28.16.52-38.26 0-25.37 20.8-54.52 33.84-97.47 43.57a282.72 282.72 0 0 0 25.8 5.52c54.1-9.91 89.47-25.28 108.12-47l.06.03Z" fill="#5A05FF"/>
  <path d="M986.06 1240.78c.92-1.07 2.11-2.52 3.03-3.56-15.55-1.47-26.97-4.08-31.85-5.18-35.65 32.98-72 54.39-121.56 71.58 11.42 11.47 13.93 14.17 14.92 15.21 21.78-5.76 88.11-23.31 135.49-78.02l-.03-.03Z" fill="#5A05FF"/>
  <path d="M989.1 1237.22c.98 3.78 3 11.66 3.98 20.16 52.16-19.12 95.79-49.77 129.66-91.12.99-1.2 2.27-2.83 3.23-4.02a147.7 147.7 0 0 1-18.54-9.76c-35.43 37.03-71.95 63.17-118.34 84.74Z" fill="#5A05FF"/>
  <path d="M1112.16 1121.09c-.4 4.54-1.41 16.6-4.73 31.39 17.46-6.97 70.66-28.14 119.91-101 .95-1.41 2.21-3.32 3.13-4.73-5.31-9.17-8.78-15.71-10.28-18.53-32.46 41.54-64.77 69.31-108.03 92.87Z" fill="#5A05FF"/>
  <path d="M1230.47 1046.75c-1.69 6.05-5.19 18.66-11.85 35.84 10.41-4.05 42.01-16.39 80.91-84.84 3.07-5.37 3.62-6.35 4.97-30.3-23.41 37.76-45.56 61.48-74.03 79.27v.03Z" fill="#5A05FF"/>
  <path d="M1320.7 921.82c-.95.67-2.54 1.29-3.22 2.27-.55.8-.55 2.2-.8 3.16a516.34 516.34 0 0 1-12.15 40.22c17.25-3.83 33.78-29.08 49.19-75.04 3.89-11.63 7.36-32.22 8.31-38.26-3.28 9.38-9.39 26.87-20 43.53-10 15.68-19.55 22.83-21.33 24.12Z" fill="#5A05FF"/>
  <path d="M833.41 1306.38c.68-.83 1.57-1.94 2.24-2.79a376.1 376.1 0 0 1-41.36-4.42c-30.37 25.65-63.72 40.56-111.5 49.85 11.97 6.14 19.64 9.58 24.74 11.88 59.64-7.61 101.98-25.96 125.88-54.52Z" fill="#5A05FF"/>
  <path d="M949.3 1210.13c1.04-1.26 2.42-2.98 3.47-4.27a262.31 262.31 0 0 1-36-8.56c-40.5 38.48-81.4 62.56-136.77 80.54a374.06 374.06 0 0 1 14.3 21.36c66.11-14.98 118.24-44.95 154.97-89.07h.03Z" fill="#5A05FF"/>
  <path d="M952.77 1205.86c1.16 5.07 3.34 14.49 4.48 26.18 77.1-25.65 124.87-71.92 151.35-106.19 1.1-1.41 2.52-3.32 3.59-4.73a189.1 189.1 0 0 1-24.02-12.18c-40.04 43.11-81.8 73.02-135.37 96.96l-.03-.04Z" fill="#5A05FF"/>
  <path d="M1091.08 1072.46c-.09 5.74-.31 19.21-2.95 36.45 56.34-21.11 102.6-60.01 137.46-115.6 1.01-1.6 2.3-3.75 3.28-5.34a302.13 302.13 0 0 1-16.26-19.98c-35.16 46.85-71.52 78.09-121.53 104.47Z" fill="#5A05FF"/>
  <path d="M1315 929.12c1.96-3.89 1.49-14.5-1.41-31.85-24.64 42.56-49.96 69.68-84.72 90.7-1.1 6.72-3.37 20.71-8.68 40.25 36.82-13.78 68.7-47.13 94.81-99.1Z" fill="#5A05FF"/>
  <path d="M1370.35 811.18c.76-3.03 2.39-9.32 1.84-38.96-11.48 38.72-26.94 62.99-50.14 78.63-1.07 7.76-3.28 23.93-8.46 46.45 24.63-6.47 43.72-35.43 56.76-86.12Z" fill="#5A05FF"/>
  <path d="M777.33 1281.22c.82-1.01 1.87-2.36 2.67-3.38a375.57 375.57 0 0 1-43.76-8.8c-34.45 29.67-72.56 46.69-123.58 55.25 8.83 7 11.29 8.9 23.2 18.01 64.91-5.18 112.5-25.74 141.47-61.05v-.03Z" fill="#5A05FF"/>
  <path d="M908.06 1170.43c1.17-1.44 2.7-3.41 3.84-4.88a285.13 285.13 0 0 1-39.64-11.94c-44.06 42.74-90.2 69.93-149.64 88.12 3 5.52 8.6 15.77 13.62 27.28 72.6-14.15 130.4-47.31 171.8-98.58h.02Z" fill="#5A05FF"/>
  <path d="M911.9 1165.55c1.2 5.61 3.68 17.27 4.88 31.72 87.99-26.93 141.26-79.8 170.43-119.41 1.17-1.59 2.7-3.77 3.87-5.37a235.25 235.25 0 0 1-29.12-14.39c-43.38 47.78-91.06 81.92-150.06 107.48v-.03Z" fill="#5A05FF"/>
  <path d="M1062.98 1017.08c.27 6.88.89 21.2-.99 41.02 64.93-23.19 116.29-66.33 152.68-128.21 1.01-1.75 2.36-4.08 3.37-5.86a324.62 324.62 0 0 1-22.06-21.23c-36.72 50.65-77.75 85.9-132.97 114.28h-.03Z" fill="#5A05FF"/>
  <path d="M1218.01 924.03c-.49 7.3-1.5 22.49-5.37 43.96 45.23-16.41 81.25-54 107.05-111.68 1.68-3.72-.91-14.66-7.76-32.83-25.41 46.55-53.48 76.62-93.89 100.55h-.03Z" fill="#5A05FF"/>
  <path d="M1375.23 727.79c.98-5.25 1.5-7.92-4.7-39.24-10.34 41.39-27.24 67.93-54.86 86.03-.24 8.1-.73 24.94-3.8 48.9 39.55-11.32 56.27-58.29 63.36-95.72v.03Z" fill="#5A05FF"/>
  <path d="M719.58 1245.69c.95-1.17 2.15-2.76 3.07-3.96a374.96 374.96 0 0 1-45.56-13.19c-38.23 33.63-79.44 52.03-133.59 59.74 18.25 20.31 18.44 20.52 21.45 23.96 86.06-3.13 131.6-37.92 154.63-66.58v.03Z" fill="#5A05FF"/>
  <path d="M862.8 1122.17c1.26-1.63 2.92-3.81 4.15-5.43a311.1 311.1 0 0 1-42.68-15.22c-47.37 46.88-96.71 75.93-159.94 94.19 2.39 5.43 7.94 18.16 12.76 32.89 97.2-15.92 154.63-66.67 185.72-106.4v-.03Z" fill="#5A05FF"/>
  <path d="M1058.86 1023.04c1.26-1.78 2.86-4.18 4.08-5.96-17.21-7.02-28.41-13.44-33.81-16.53-46.42 52.34-97.96 89.25-162.21 116.16 1.16 5.61 4.2 20.55 5.34 36.9 102.66-29.05 160.95-94.28 186.6-130.61v.04Z" fill="#5A05FF"/>
  <path d="M1029.16 1000.55c90.39-30.65 139.76-92.3 165.29-138.62 1.04-1.87 2.36-4.42 3.37-6.3a338.25 338.25 0 0 1-27.58-22.27c-38.08 54.31-81.89 91.99-142.12 122.18.64 6.84 2.15 22.88 1.07 45.01h-.03Z" fill="#5A05FF"/>
  <path d="M1197.82 855.64c.12 6.72.46 24.51-1.87 47.16 66.03-23.3 100.33-79.38 117.48-122.33.71-1.75 1.6-4.11 2.27-5.9a1992.44 1992.44 0 0 1-16.38-27.6c-25.65 49.88-56.03 82.38-101.5 108.67Z" fill="#5A05FF"/>
  <path d="M1299.29 746.97c47.98-14.03 63.94-64.13 68.85-103.65.86-6.9.89-7.02-11.32-38.93-8.93 43.41-27.03 71.76-58.64 91.95.62 8.29 1.94 25.56 1.11 50.63Z" fill="#5A05FF"/>
  <path d="M660.92 1200.13c1.04-1.32 2.36-3.1 3.4-4.45a362.37 362.37 0 0 1-46.7-17.58c-41.23 37.18-84.83 56.67-141.28 63.17a1169.7 1169.7 0 0 1 19.42 29.79c89.84.55 139.42-38.26 165.16-70.93Z" fill="#5A05FF"/>
  <path d="M814.05 1065.71c1.32-1.75 3.07-4.14 4.36-5.92a320.63 320.63 0 0 1-45.1-18.47c-49.86 50.26-101.5 80.66-167.43 98.61 1.93 5.43 7.82 22 11.75 38.17 102.3-13.75 163.29-68.7 196.42-112.39Z" fill="#5A05FF"/>
  <path d="M1023.86 961.95c1.28-1.9 2.97-4.48 4.23-6.41a299.05 299.05 0 0 1-38.08-18.6c-48.53 56.18-103.06 95.21-171.57 122.85 1.5 7.52 4.63 23.1 5.83 41.7 111.07-29 172.7-99.87 199.59-139.54Z" fill="#5A05FF"/>
  <path d="M1165.05 790.32c1.02-1.97 2.34-4.64 3.32-6.63-16.33-10.22-27.49-18.9-32.86-23.07-38.69 56.97-84.59 96.43-148.81 127.9.95 6.94 3.5 25.41 3.28 48.42 103.77-33.44 154.21-106.22 175.04-146.62h.03Z" fill="#5A05FF"/>
  <path d="M1170.21 833.36c74.86-25.58 109.78-85.29 125.89-130.85.64-1.84 1.47-4.33 2.08-6.17a842.2 842.2 0 0 1-22.49-27.58c-25 51.82-58.11 87.26-107.32 114.93.83 8.38 2.57 25.8 1.84 49.67Z" fill="#5A05FF"/>
  <path d="M1271.58 386.92a459.21 459.21 0 0 1 20.19 49.34c28.29-3.65 32.58-27.65 12.15-67.5l-19.05-33.63c-3.99-6.53-6.05-9.7-9.45-14.88 11.1 20.13 22.79 48.9-3.84 66.67Z" fill="#5A05FF"/>
  <path d="M1214.57 311.02a436.44 436.44 0 0 1 25.81 46.45c35.34-5.74 38.07-33.97 7.45-77.44l-.52-.74-2.3-3.13a426.76 426.76 0 0 0-26.63-31.6l1.56 2.36c26.88 42.53 2.58 58.76-5.4 64.1h.03Z" fill="#5A05FF"/>
  <path d="M1178.86 285.77a405.32 405.32 0 0 0-30.01-41.7c6.72-4.6 27.25-18.6 14.7-47.28-3.65-7.76-5.52-10.46-10.98-17.73 8.34 6.6 18.5 14.81 30.37 25.9.19.17.34.33.49.51 7.64 8.75 10.96 13.1 16.11 21.14.06.06.09.16.15.22 10.8 17.8 22.49 49.12-20.83 58.94Z" fill="#5A05FF"/>
  <path d="M1109.46 223.33a366.25 366.25 0 0 0-33.6-36.57c5.25-3.62 21.2-14.6 19.18-32.22-1.6-11.04-5.4-18.35-15.62-30.16a551.49 551.49 0 0 1 33.94 20.71c.18.16.39.28.58.43 5.61 5.4 20.55 19.82 25.83 34.76.28.83.68 1.9.89 2.73 5.74 19.49-4.78 33.05-31.2 40.32Z" fill="#5A05FF"/>
  <path d="M1316.56 467.52a491.3 491.3 0 0 1 13.93 50.5c26.48-2.3 23.26-29.33 15.89-51.57-5.52-16.17-14.23-36.51-21.17-53.33 9.64 25.13 6.75 43.42-8.65 54.4Z" fill="#5A05FF"/>
  <path d="M1325.21 413.15c-.73-1.96-1.56-3.95-2.45-6.01.8 1.93 1.63 3.96 2.45 6.01Z" fill="#5A05FF"/>
  <path d="m1340.12 934.61 9.21-26.23 7.15-23.1c-6.32 18.22-15.22 44.98-16.36 49.33Z" fill="#5A05FF"/>
  <path d="M1372.8 804.74c-.31.27-.89.55-.98.92-1.57 5.68-1.93 11.54-3.01 17.3a629.96 629.96 0 0 1-6.5 30.6c1.41 2.05 2.02 1.4 2.7-.56 4.42-16.72 7.82-39.58 11.04-56.58-1.16 5.62-2.57 7.61-3.28 8.29l.03.03Z" fill="#5A05FF"/>
  <path d="M1376.42 721.93a615.43 615.43 0 0 1-3.93 49.58c4.42 1.75 6.66-.8 7.92-9.08 2.3-18.47 2.67-43.35 3.59-61.95-.55 12.86-3.44 17.86-7.61 21.45h.03Z" fill="#5A05FF"/>
  <path d="M1369.06 637.19a563.33 563.33 0 0 1 1.81 50.62c9.11 1.05 13.13-6.41 12.7-23.44-.64-18.4-3.5-42.83-5.12-61.18 1.68 17.77-.95 27.31-9.36 34.03l-.03-.03Z" fill="#5A05FF"/>
  <path d="M1349.48 552.63a518.27 518.27 0 0 1 7.7 50.93c14.36-.21 19.49-12.12 15.65-36.39-3.22-18.56-9.75-42.83-14.11-61.14 5.67 23.59 2.91 37.55-9.24 46.6Z" fill="#5A05FF"/>
  <path d="M1348.9 558.95c.27-4.36-5.74-17.05-18.01-38.07-7.3 44.64-26.23 74.3-61.39 96.27 1.41 7.95 4.75 26.54 6.19 51.58 58.85-17.4 71.12-76.27 73.21-109.81v.03Z" fill="#5A05FF"/>
  <path d="M1067.18 141.32c-.06.55-.12 1.29-.22 1.84-3.13 17.83-25.95 24.94-33.47 27.28a345.09 345.09 0 0 0-36.57-31.12c6.26-4.35 12.73-8.83 17.27-18.5 8.19-18.16-7.85-34.11-13.9-40.13 10.34 4.02 22 8.72 36.85 15.5l.61.33c7.8 6.23 31.48 25.25 29.43 44.8Z" fill="#5A05FF"/>
  <path d="m981.12 110.6-.22.31c-8.2 9.51-22.03 14.2-28.69 16.48-12.8-9.64-24.08-17-39.06-25.4 2.4-1.66 5.53-3.96 7.83-5.77 17-16.3 15.55-31.14-4.73-48.11 6.78 1.62 20.93 5 39.28 10.3.21.07.43.16.64.25 28.75 18.84 37.16 36.33 24.95 51.95Z" fill="#5A05FF"/>
  <path d="M870.5 32.15c-.2-.06-.42-.09-.67-.15a965.76 965.76 0 0 0-41.2-5.1c22.6 15.44 21.69 31.64-2.76 48.2 4.48 1.79 12 4.76 22.02 9.55 6.9 3.31 11.88 5.9 19 9.88 2.91-1.07 6.93-2.55 10.89-4.39.7-.34 1.6-.8 2.3-1.13 8.6-4.24 48.54-26.91-9.54-56.89l-.03.03Z" fill="#5A05FF"/>
  <path d="M736.3 58.9c5.5 1.36 22.25 5.4 40.23 12.34.64.25 1.47.7 2.15.83 2.33.5 5.18-2.02 7.36-2.98 30.65-13.53 41.27-34.85-4.17-51.97-.22 0-.46-.06-.68-.06-20.1-.3-35.22 0-42.5.15 22.38 11.7 21.58 25.71-2.39 41.73v-.03Z" fill="#5A05FF"/>
  <path d="M645.8 53.7c5.6.51 22.76 2.14 40.86 6.19.65.15 1.5.52 2.18.5.06 0 10.77-4.12 19.14-9.46 17.65-11.26 23.94-27.77-16.38-37.12h-.67c-17.8 1.93-30.1 3.59-43.14 5.43 21.44 7.58 20.77 19.48-2 34.48v-.03Z" fill="#5A05FF"/>
  <path d="M596.49 59.5c.67.02 1.56.27 2.2.11.13 0 15.93-6.44 24.8-13.93 10.86-9.17 11.47-20.83-22.55-23.44-.22.03-.46.07-.68.13-21.84 5.03-36.3 8.9-43.26 10.74 1.04.15 2.42.33 3.47.55 6.35 1.26 24.79 6.9-5 26.02 5.61-.34 22.67-1.32 41.02-.22v.03Z" fill="#5A05FF"/>
  <path d="M466.55 77.26c5.5-1.2 22.15-4.85 40.68-6.82.68-.06 1.6 0 2.21-.24.19-.06 20.71-9.02 27.34-17.06 1.93-2.33 9.79-13.84-25.68-10.3-.22.05-.46.11-.68.2a1205.25 1205.25 0 0 0-42.83 16.14c3.68-.24 7.46-.49 10.5.4 4.23 1.26 8.34 5.25-11.54 17.7v-.02Z" fill="#5A05FF"/>
  <path d="M422.27 92.41c.22-.09 22.86-10.89 26.6-17.3 1.94-3.32-1.22-6.94-25.55.52-.22.1-.43.18-.65.3a1148.56 1148.56 0 0 0-41.75 21.54c3.16-1.1 9.75-3.37 12.02-2.54 2.73.98-1.47 4.94-12.55 11.72 5.31-2.09 21.45-8.44 39.7-13.62.65-.19 1.57-.34 2.19-.62Z" fill="#5A05FF"/>
  <path d="M362.72 110.48c-.49-.21-4.02-.76-23.8 10.37-.22.13-.44.25-.62.4-13.9 8.93-25.77 16.9-38.5 25.9 3.74-2.61 8.46-5.8 9.69-6.1-1.14.82-3.16 2.2-9.7 6.1a478.87 478.87 0 0 1 36.6-19.67c.25-.12 26.12-13.53 26.33-16.97v-.03Z" fill="#5A05FF"/>
</svg>
